G04 #@! TF.GenerationSoftware,KiCad,Pcbnew,(5.1.2-1)-1*
G04 #@! TF.CreationDate,2022-02-06T13:22:23-05:00*
G04 #@! TF.ProjectId,Wasp_Hive,57617370-5f48-4697-9665-2e6b69636164,rev?*
G04 #@! TF.SameCoordinates,Original*
G04 #@! TF.FileFunction,Other,ECO1*
%FSLAX46Y46*%
G04 Gerber Fmt 4.6, Leading zero omitted, Abs format (unit mm)*
G04 Created by KiCad (PCBNEW (5.1.2-1)-1) date 2022-02-06 13:22:23*
%MOMM*%
%LPD*%
G04 APERTURE LIST*
%ADD10C,3.000000*%
%ADD11C,0.010000*%
G04 APERTURE END LIST*
D10*
X51500000Y-195000000D02*
G75*
G03X51500000Y-195000000I-1500000J0D01*
G01*
X51500000Y-210000000D02*
G75*
G03X51500000Y-210000000I-1500000J0D01*
G01*
X66500000Y-225000000D02*
G75*
G03X66500000Y-225000000I-1500000J0D01*
G01*
X81500000Y-225000000D02*
G75*
G03X81500000Y-225000000I-1500000J0D01*
G01*
X96500000Y-225000000D02*
G75*
G03X96500000Y-225000000I-1500000J0D01*
G01*
X111500000Y-225000000D02*
G75*
G03X111500000Y-225000000I-1500000J0D01*
G01*
X126500000Y-225000000D02*
G75*
G03X126500000Y-225000000I-1500000J0D01*
G01*
X141500000Y-210000000D02*
G75*
G03X141500000Y-210000000I-1500000J0D01*
G01*
X141500000Y-195000000D02*
G75*
G03X141500000Y-195000000I-1500000J0D01*
G01*
X141500000Y-180000000D02*
G75*
G03X141500000Y-180000000I-1500000J0D01*
G01*
X141500000Y-165000000D02*
G75*
G03X141500000Y-165000000I-1500000J0D01*
G01*
X141500000Y-150000000D02*
G75*
G03X141500000Y-150000000I-1500000J0D01*
G01*
X141500000Y-135000000D02*
G75*
G03X141500000Y-135000000I-1500000J0D01*
G01*
X126500000Y-120000000D02*
G75*
G03X126500000Y-120000000I-1500000J0D01*
G01*
X111500000Y-120000000D02*
G75*
G03X111500000Y-120000000I-1500000J0D01*
G01*
X96500000Y-120000000D02*
G75*
G03X96500000Y-120000000I-1500000J0D01*
G01*
D11*
G36*
X108535658Y-159024128D02*
G01*
X108526619Y-159033167D01*
X108517580Y-159024128D01*
X108526619Y-159015089D01*
X108535658Y-159024128D01*
X108535658Y-159024128D01*
G37*
X108535658Y-159024128D02*
X108526619Y-159033167D01*
X108517580Y-159024128D01*
X108526619Y-159015089D01*
X108535658Y-159024128D01*
G36*
X111460183Y-159542416D02*
G01*
X111465859Y-159575516D01*
X111487578Y-159711007D01*
X111506447Y-159819987D01*
X111524385Y-159911782D01*
X111543317Y-159995722D01*
X111565162Y-160081133D01*
X111584547Y-160151524D01*
X111615604Y-160294446D01*
X111626854Y-160440582D01*
X111627046Y-160465120D01*
X111627046Y-160627548D01*
X111554363Y-160710120D01*
X111501908Y-160775998D01*
X111449518Y-160851522D01*
X111426707Y-160888776D01*
X111395444Y-160940992D01*
X111369937Y-160979272D01*
X111357679Y-160993545D01*
X111341273Y-160984786D01*
X111316420Y-160952531D01*
X111305404Y-160934225D01*
X111271406Y-160881883D01*
X111235433Y-160838051D01*
X111228183Y-160831010D01*
X111192664Y-160794814D01*
X111149984Y-160745916D01*
X111135059Y-160727550D01*
X111080935Y-160659299D01*
X111153596Y-160580472D01*
X111198832Y-160527475D01*
X111237021Y-160475973D01*
X111252988Y-160449861D01*
X111274717Y-160398373D01*
X111300871Y-160322708D01*
X111328161Y-160234013D01*
X111353300Y-160143433D01*
X111373001Y-160062117D01*
X111382903Y-160009395D01*
X111393861Y-159945217D01*
X111406698Y-159886240D01*
X111410010Y-159873808D01*
X111418577Y-159831129D01*
X111428008Y-159764410D01*
X111436680Y-159685681D01*
X111439290Y-159656868D01*
X111445942Y-159582218D01*
X111450941Y-159540405D01*
X111455338Y-159528211D01*
X111460183Y-159542416D01*
X111460183Y-159542416D01*
G37*
X111460183Y-159542416D02*
X111465859Y-159575516D01*
X111487578Y-159711007D01*
X111506447Y-159819987D01*
X111524385Y-159911782D01*
X111543317Y-159995722D01*
X111565162Y-160081133D01*
X111584547Y-160151524D01*
X111615604Y-160294446D01*
X111626854Y-160440582D01*
X111627046Y-160465120D01*
X111627046Y-160627548D01*
X111554363Y-160710120D01*
X111501908Y-160775998D01*
X111449518Y-160851522D01*
X111426707Y-160888776D01*
X111395444Y-160940992D01*
X111369937Y-160979272D01*
X111357679Y-160993545D01*
X111341273Y-160984786D01*
X111316420Y-160952531D01*
X111305404Y-160934225D01*
X111271406Y-160881883D01*
X111235433Y-160838051D01*
X111228183Y-160831010D01*
X111192664Y-160794814D01*
X111149984Y-160745916D01*
X111135059Y-160727550D01*
X111080935Y-160659299D01*
X111153596Y-160580472D01*
X111198832Y-160527475D01*
X111237021Y-160475973D01*
X111252988Y-160449861D01*
X111274717Y-160398373D01*
X111300871Y-160322708D01*
X111328161Y-160234013D01*
X111353300Y-160143433D01*
X111373001Y-160062117D01*
X111382903Y-160009395D01*
X111393861Y-159945217D01*
X111406698Y-159886240D01*
X111410010Y-159873808D01*
X111418577Y-159831129D01*
X111428008Y-159764410D01*
X111436680Y-159685681D01*
X111439290Y-159656868D01*
X111445942Y-159582218D01*
X111450941Y-159540405D01*
X111455338Y-159528211D01*
X111460183Y-159542416D01*
G36*
X108405522Y-159919004D02*
G01*
X108422852Y-159952717D01*
X108447966Y-159989235D01*
X108472812Y-160036555D01*
X108481423Y-160078439D01*
X108489161Y-160123689D01*
X108508485Y-160180558D01*
X108516208Y-160198029D01*
X108545722Y-160261187D01*
X108574422Y-160323789D01*
X108579389Y-160334804D01*
X108609846Y-160394034D01*
X108653313Y-160468070D01*
X108702903Y-160546198D01*
X108751730Y-160617702D01*
X108792904Y-160671868D01*
X108804507Y-160685037D01*
X108847376Y-160730488D01*
X108795467Y-160776132D01*
X108756455Y-160806035D01*
X108726279Y-160821703D01*
X108722348Y-160822347D01*
X108681265Y-160838587D01*
X108637245Y-160878305D01*
X108599569Y-160930948D01*
X108577517Y-160985964D01*
X108577230Y-160987360D01*
X108562776Y-161059703D01*
X108527062Y-160991026D01*
X108455082Y-160864134D01*
X108382777Y-160761895D01*
X108329279Y-160700526D01*
X108288809Y-160655401D01*
X108270652Y-160625930D01*
X108270774Y-160603003D01*
X108278976Y-160586924D01*
X108295771Y-160545933D01*
X108314711Y-160476969D01*
X108334234Y-160388023D01*
X108352777Y-160287087D01*
X108368778Y-160182154D01*
X108380673Y-160081216D01*
X108383069Y-160054591D01*
X108389787Y-159986868D01*
X108396736Y-159939018D01*
X108402866Y-159917383D01*
X108405522Y-159919004D01*
X108405522Y-159919004D01*
G37*
X108405522Y-159919004D02*
X108422852Y-159952717D01*
X108447966Y-159989235D01*
X108472812Y-160036555D01*
X108481423Y-160078439D01*
X108489161Y-160123689D01*
X108508485Y-160180558D01*
X108516208Y-160198029D01*
X108545722Y-160261187D01*
X108574422Y-160323789D01*
X108579389Y-160334804D01*
X108609846Y-160394034D01*
X108653313Y-160468070D01*
X108702903Y-160546198D01*
X108751730Y-160617702D01*
X108792904Y-160671868D01*
X108804507Y-160685037D01*
X108847376Y-160730488D01*
X108795467Y-160776132D01*
X108756455Y-160806035D01*
X108726279Y-160821703D01*
X108722348Y-160822347D01*
X108681265Y-160838587D01*
X108637245Y-160878305D01*
X108599569Y-160930948D01*
X108577517Y-160985964D01*
X108577230Y-160987360D01*
X108562776Y-161059703D01*
X108527062Y-160991026D01*
X108455082Y-160864134D01*
X108382777Y-160761895D01*
X108329279Y-160700526D01*
X108288809Y-160655401D01*
X108270652Y-160625930D01*
X108270774Y-160603003D01*
X108278976Y-160586924D01*
X108295771Y-160545933D01*
X108314711Y-160476969D01*
X108334234Y-160388023D01*
X108352777Y-160287087D01*
X108368778Y-160182154D01*
X108380673Y-160081216D01*
X108383069Y-160054591D01*
X108389787Y-159986868D01*
X108396736Y-159939018D01*
X108402866Y-159917383D01*
X108405522Y-159919004D01*
G36*
X107288256Y-165550392D02*
G01*
X107279217Y-165559431D01*
X107270178Y-165550392D01*
X107279217Y-165541352D01*
X107288256Y-165550392D01*
X107288256Y-165550392D01*
G37*
X107288256Y-165550392D02*
X107279217Y-165559431D01*
X107270178Y-165550392D01*
X107279217Y-165541352D01*
X107288256Y-165550392D01*
G36*
X106619359Y-167774021D02*
G01*
X106610320Y-167783061D01*
X106601281Y-167774021D01*
X106610320Y-167764982D01*
X106619359Y-167774021D01*
X106619359Y-167774021D01*
G37*
X106619359Y-167774021D02*
X106610320Y-167783061D01*
X106601281Y-167774021D01*
X106610320Y-167764982D01*
X106619359Y-167774021D01*
G36*
X113428661Y-169565809D02*
G01*
X113425836Y-169572812D01*
X113409591Y-169590058D01*
X113406691Y-169590890D01*
X113398926Y-169576903D01*
X113398719Y-169572812D01*
X113412617Y-169555428D01*
X113417864Y-169554733D01*
X113428661Y-169565809D01*
X113428661Y-169565809D01*
G37*
X113428661Y-169565809D02*
X113425836Y-169572812D01*
X113409591Y-169590058D01*
X113406691Y-169590890D01*
X113398926Y-169576903D01*
X113398719Y-169572812D01*
X113412617Y-169555428D01*
X113417864Y-169554733D01*
X113428661Y-169565809D01*
G36*
X106505218Y-171446553D02*
G01*
X106501851Y-171452954D01*
X106484817Y-171470219D01*
X106481638Y-171471032D01*
X106480405Y-171459355D01*
X106483772Y-171452954D01*
X106500806Y-171435689D01*
X106503984Y-171434876D01*
X106505218Y-171446553D01*
X106505218Y-171446553D01*
G37*
X106505218Y-171446553D02*
X106501851Y-171452954D01*
X106484817Y-171470219D01*
X106481638Y-171471032D01*
X106480405Y-171459355D01*
X106483772Y-171452954D01*
X106500806Y-171435689D01*
X106503984Y-171434876D01*
X106505218Y-171446553D01*
G36*
X106420498Y-171787402D02*
G01*
X106411459Y-171796441D01*
X106402420Y-171787402D01*
X106411459Y-171778363D01*
X106420498Y-171787402D01*
X106420498Y-171787402D01*
G37*
X106420498Y-171787402D02*
X106411459Y-171796441D01*
X106402420Y-171787402D01*
X106411459Y-171778363D01*
X106420498Y-171787402D01*
G36*
X108272206Y-155553616D02*
G01*
X108399142Y-155577440D01*
X108440000Y-155587527D01*
X108577392Y-155632332D01*
X108689237Y-155692314D01*
X108785084Y-155773945D01*
X108872250Y-155880565D01*
X108904136Y-155927465D01*
X108930036Y-155972581D01*
X108952734Y-156023076D01*
X108975013Y-156086109D01*
X108999655Y-156168841D01*
X109029446Y-156278432D01*
X109034908Y-156299060D01*
X109060745Y-156400190D01*
X109082209Y-156490674D01*
X109097913Y-156564119D01*
X109106471Y-156614131D01*
X109107278Y-156632821D01*
X109108337Y-156662930D01*
X109117314Y-156718739D01*
X109132565Y-156791078D01*
X109144506Y-156840429D01*
X109162797Y-156920795D01*
X109175386Y-156992778D01*
X109180670Y-157046170D01*
X109179726Y-157064750D01*
X109178206Y-157104440D01*
X109184019Y-157154629D01*
X109194596Y-157202643D01*
X109207367Y-157235810D01*
X109215952Y-157243417D01*
X109236754Y-157239199D01*
X109283756Y-157227960D01*
X109348179Y-157211823D01*
X109373287Y-157205392D01*
X109520925Y-157167368D01*
X109697995Y-157208843D01*
X109781431Y-157227643D01*
X109840944Y-157238025D01*
X109887622Y-157240593D01*
X109932556Y-157235951D01*
X109986835Y-157224705D01*
X109987247Y-157224611D01*
X110067242Y-157210868D01*
X110151756Y-157203278D01*
X110197938Y-157202810D01*
X110269058Y-157201589D01*
X110337652Y-157194052D01*
X110364138Y-157188489D01*
X110407657Y-157180991D01*
X110457723Y-157182641D01*
X110524567Y-157194391D01*
X110587154Y-157209218D01*
X110657080Y-157225768D01*
X110712498Y-157237026D01*
X110745045Y-157241377D01*
X110749984Y-157240668D01*
X110753398Y-157221030D01*
X110757638Y-157173030D01*
X110762299Y-157104444D01*
X110766979Y-157023045D01*
X110771272Y-156936607D01*
X110774775Y-156852906D01*
X110777084Y-156779715D01*
X110777795Y-156724810D01*
X110777554Y-156710107D01*
X110781444Y-156662251D01*
X110793505Y-156592271D01*
X110811167Y-156510810D01*
X110831857Y-156428508D01*
X110853004Y-156356006D01*
X110872038Y-156303945D01*
X110878975Y-156290423D01*
X110898183Y-156250232D01*
X110903915Y-156224689D01*
X110909174Y-156205560D01*
X110926233Y-156171481D01*
X110957015Y-156119280D01*
X111003441Y-156045787D01*
X111067434Y-155947831D01*
X111117893Y-155871743D01*
X111205030Y-155764232D01*
X111308817Y-155681864D01*
X111435452Y-155620476D01*
X111540627Y-155587856D01*
X111642611Y-155563424D01*
X111723037Y-155550217D01*
X111794717Y-155548225D01*
X111870461Y-155557439D01*
X111963080Y-155577850D01*
X112001423Y-155587527D01*
X112113502Y-155621277D01*
X112200171Y-155659646D01*
X112257789Y-155696256D01*
X112328771Y-155759422D01*
X112405869Y-155846476D01*
X112481572Y-155947816D01*
X112548365Y-156053842D01*
X112572304Y-156098149D01*
X112607669Y-156182105D01*
X112642336Y-156289739D01*
X112673219Y-156408654D01*
X112697230Y-156526450D01*
X112711284Y-156630729D01*
X112713395Y-156664911D01*
X112712363Y-156739110D01*
X112705987Y-156827369D01*
X112695672Y-156917852D01*
X112682828Y-156998720D01*
X112668861Y-157058137D01*
X112665474Y-157067954D01*
X112667190Y-157089177D01*
X112695451Y-157105871D01*
X112728311Y-157115765D01*
X112795693Y-157133315D01*
X112862868Y-157150874D01*
X112869929Y-157152724D01*
X112960845Y-157192561D01*
X113054409Y-157262020D01*
X113146021Y-157355300D01*
X113231085Y-157466599D01*
X113305002Y-157590116D01*
X113363176Y-157720050D01*
X113392017Y-157811515D01*
X113416997Y-157918239D01*
X113429704Y-158004935D01*
X113430111Y-158084801D01*
X113418194Y-158171033D01*
X113393925Y-158276828D01*
X113391076Y-158287985D01*
X113344415Y-158428960D01*
X113280882Y-158544067D01*
X113194387Y-158641950D01*
X113078841Y-158731254D01*
X113078758Y-158731309D01*
X112978694Y-158802858D01*
X112866826Y-158891109D01*
X112755704Y-158986045D01*
X112725477Y-159013334D01*
X112721334Y-159037075D01*
X112728440Y-159079641D01*
X112730830Y-159088131D01*
X112746048Y-159153610D01*
X112760972Y-159242497D01*
X112774016Y-159342068D01*
X112783594Y-159439599D01*
X112788121Y-159522364D01*
X112788165Y-159548399D01*
X112791199Y-159615462D01*
X112801088Y-159697496D01*
X112812683Y-159761825D01*
X112824746Y-159825051D01*
X112831214Y-159874038D01*
X112830741Y-159898489D01*
X112830587Y-159898766D01*
X112830259Y-159922417D01*
X112838154Y-159969632D01*
X112849498Y-160018002D01*
X112863439Y-160078076D01*
X112867802Y-160125760D01*
X112862372Y-160176577D01*
X112846929Y-160246049D01*
X112846264Y-160248769D01*
X112823162Y-160410628D01*
X112824930Y-160491387D01*
X112825459Y-160597049D01*
X112811715Y-160693942D01*
X112809681Y-160702031D01*
X112797101Y-160769373D01*
X112793190Y-160834073D01*
X112795106Y-160858921D01*
X112794921Y-160914963D01*
X112782795Y-160996523D01*
X112760763Y-161095771D01*
X112730862Y-161204881D01*
X112695127Y-161316023D01*
X112655595Y-161421369D01*
X112638146Y-161462461D01*
X112607836Y-161531446D01*
X112583972Y-161586731D01*
X112569728Y-161620910D01*
X112567117Y-161628228D01*
X112582413Y-161627477D01*
X112620123Y-161618834D01*
X112629246Y-161616372D01*
X112678426Y-161613220D01*
X112752848Y-161620963D01*
X112844029Y-161637462D01*
X112943487Y-161660579D01*
X113042739Y-161688175D01*
X113133302Y-161718111D01*
X113206692Y-161748247D01*
X113249822Y-161772853D01*
X113374665Y-161875098D01*
X113469509Y-161977447D01*
X113539739Y-162087430D01*
X113590742Y-162212580D01*
X113608494Y-162274449D01*
X113639381Y-162403364D01*
X113657901Y-162509324D01*
X113664194Y-162603294D01*
X113658400Y-162696245D01*
X113640657Y-162799145D01*
X113616463Y-162901922D01*
X113582131Y-163026508D01*
X113548856Y-163121903D01*
X113514124Y-163194896D01*
X113498394Y-163220662D01*
X113437360Y-163313424D01*
X113534783Y-163380521D01*
X113599191Y-163431397D01*
X113668348Y-163495962D01*
X113718227Y-163549895D01*
X113770370Y-163610054D01*
X113836482Y-163683751D01*
X113905362Y-163758568D01*
X113932820Y-163787758D01*
X113998359Y-163859500D01*
X114072383Y-163944778D01*
X114149220Y-164036608D01*
X114223192Y-164128004D01*
X114288626Y-164211983D01*
X114339846Y-164281557D01*
X114366118Y-164321068D01*
X114509137Y-164540567D01*
X114641601Y-164723573D01*
X114688787Y-164788706D01*
X114726305Y-164845316D01*
X114749454Y-164886018D01*
X114754591Y-164901031D01*
X114764156Y-164927166D01*
X114789891Y-164975100D01*
X114827354Y-165036926D01*
X114854021Y-165078016D01*
X114896460Y-165144497D01*
X114929871Y-165201979D01*
X114949807Y-165242524D01*
X114953452Y-165255524D01*
X114969382Y-165298952D01*
X115013256Y-165350252D01*
X115079197Y-165404509D01*
X115161327Y-165456806D01*
X115242705Y-165497470D01*
X115420180Y-165581634D01*
X115580683Y-165672710D01*
X115741535Y-165780722D01*
X115778048Y-165807280D01*
X115849076Y-165856733D01*
X115916780Y-165898957D01*
X115971572Y-165928201D01*
X115994889Y-165937302D01*
X116069364Y-165970191D01*
X116151678Y-166026310D01*
X116231735Y-166097491D01*
X116299441Y-166175568D01*
X116312746Y-166194448D01*
X116360511Y-166281279D01*
X116399315Y-166388661D01*
X116418578Y-166461386D01*
X116459262Y-166631171D01*
X116416341Y-166812985D01*
X116391830Y-166907858D01*
X116367249Y-166978914D01*
X116337570Y-167038150D01*
X116297766Y-167097564D01*
X116296198Y-167099699D01*
X116190717Y-167217768D01*
X116067763Y-167312344D01*
X115934766Y-167378139D01*
X115881132Y-167395028D01*
X115811737Y-167414678D01*
X115750597Y-167434402D01*
X115712740Y-167449160D01*
X115668691Y-167465961D01*
X115607111Y-167484436D01*
X115572675Y-167493175D01*
X115519956Y-167509850D01*
X115492090Y-167527120D01*
X115492030Y-167541095D01*
X115522728Y-167547883D01*
X115531035Y-167548043D01*
X115570130Y-167560585D01*
X115625526Y-167594127D01*
X115689617Y-167642541D01*
X115754799Y-167699701D01*
X115813468Y-167759480D01*
X115851379Y-167806148D01*
X115890735Y-167867977D01*
X115921218Y-167934562D01*
X115947616Y-168017708D01*
X115964665Y-168085430D01*
X116007304Y-168266054D01*
X115966621Y-168435838D01*
X115922381Y-168579780D01*
X115861467Y-168700587D01*
X115777006Y-168809928D01*
X115702988Y-168883343D01*
X115537410Y-169014202D01*
X115362068Y-169111881D01*
X115172168Y-169179011D01*
X115157882Y-169182717D01*
X115055535Y-169207375D01*
X114976163Y-169221720D01*
X114908111Y-169225829D01*
X114839724Y-169219782D01*
X114759346Y-169203654D01*
X114687545Y-169185854D01*
X114579210Y-169153520D01*
X114495020Y-169116973D01*
X114427381Y-169074337D01*
X114371099Y-169026504D01*
X114312454Y-168966044D01*
X114257574Y-168900673D01*
X114212586Y-168838105D01*
X114183618Y-168786055D01*
X114176085Y-168757951D01*
X114162052Y-168727989D01*
X114126710Y-168692106D01*
X114108684Y-168678635D01*
X114041283Y-168632835D01*
X114018146Y-168734709D01*
X114005914Y-168801941D01*
X114006696Y-168843125D01*
X114014993Y-168860662D01*
X114029805Y-168891236D01*
X114048764Y-168947844D01*
X114069467Y-169020961D01*
X114089510Y-169101060D01*
X114106491Y-169178618D01*
X114118005Y-169244110D01*
X114121703Y-169283559D01*
X114126908Y-169339714D01*
X114139397Y-169408429D01*
X114146502Y-169437784D01*
X114157816Y-169505392D01*
X114163935Y-169595173D01*
X114164928Y-169694523D01*
X114160862Y-169790838D01*
X114151805Y-169871516D01*
X114143977Y-169907260D01*
X114138350Y-169961139D01*
X114148293Y-170037068D01*
X114159956Y-170088043D01*
X114176257Y-170165986D01*
X114187146Y-170243724D01*
X114190167Y-170298527D01*
X114201326Y-170389503D01*
X114224708Y-170452193D01*
X114250306Y-170511887D01*
X114274572Y-170585063D01*
X114284145Y-170621352D01*
X114299990Y-170680265D01*
X114316029Y-170725970D01*
X114324838Y-170742833D01*
X114336750Y-170769190D01*
X114354270Y-170821688D01*
X114374518Y-170891318D01*
X114385516Y-170932655D01*
X114405871Y-171016196D01*
X114416600Y-171076282D01*
X114418675Y-171124026D01*
X114413064Y-171170543D01*
X114408318Y-171193909D01*
X114398262Y-171256122D01*
X114399277Y-171313542D01*
X114412133Y-171383071D01*
X114418037Y-171407324D01*
X114431959Y-171469599D01*
X114439568Y-171517858D01*
X114439228Y-171541714D01*
X114439196Y-171541767D01*
X114437911Y-171567313D01*
X114446539Y-171610832D01*
X114448475Y-171617604D01*
X114466929Y-171698097D01*
X114483959Y-171807751D01*
X114498816Y-171939577D01*
X114510752Y-172086587D01*
X114519021Y-172241791D01*
X114520816Y-172293594D01*
X114519534Y-172390678D01*
X114508858Y-172492826D01*
X114487352Y-172611208D01*
X114469904Y-172689352D01*
X114450052Y-172775584D01*
X114438040Y-172836839D01*
X114433405Y-172883329D01*
X114435688Y-172925265D01*
X114444424Y-172972862D01*
X114455006Y-173018724D01*
X114468695Y-173084863D01*
X114476134Y-173137745D01*
X114475967Y-173167268D01*
X114475204Y-173169054D01*
X114474253Y-173193888D01*
X114481558Y-173243913D01*
X114495604Y-173309506D01*
X114500206Y-173328047D01*
X114517737Y-173399252D01*
X114526262Y-173449525D01*
X114525826Y-173492940D01*
X114516474Y-173543571D01*
X114501100Y-173604522D01*
X114476821Y-173713194D01*
X114467139Y-173803775D01*
X114471288Y-173890903D01*
X114482451Y-173959938D01*
X114494193Y-174020163D01*
X114509741Y-174100389D01*
X114526093Y-174185109D01*
X114529123Y-174200854D01*
X114546790Y-174289961D01*
X114566002Y-174382629D01*
X114582931Y-174460436D01*
X114584670Y-174468083D01*
X114598405Y-174537549D01*
X114601220Y-174591094D01*
X114592933Y-174647321D01*
X114582529Y-174690194D01*
X114569263Y-174749760D01*
X114563050Y-174795511D01*
X114564557Y-174815173D01*
X114566078Y-174840154D01*
X114560029Y-174889129D01*
X114548977Y-174945589D01*
X114506346Y-175148159D01*
X114469836Y-175348544D01*
X114465342Y-175375943D01*
X114452611Y-175448062D01*
X114435831Y-175534460D01*
X114421742Y-175601922D01*
X114406601Y-175688147D01*
X114404757Y-175752689D01*
X114412141Y-175795371D01*
X114418032Y-175827905D01*
X114418063Y-175866615D01*
X114411263Y-175918154D01*
X114396661Y-175989174D01*
X114373283Y-176086325D01*
X114364612Y-176120780D01*
X114332984Y-176249653D01*
X114311107Y-176350146D01*
X114298198Y-176428469D01*
X114293474Y-176490831D01*
X114296153Y-176543440D01*
X114305268Y-176591763D01*
X114311004Y-176628593D01*
X114309739Y-176672615D01*
X114300423Y-176731374D01*
X114282006Y-176812413D01*
X114265536Y-176877232D01*
X114244629Y-176962941D01*
X114229007Y-177037506D01*
X114220124Y-177093159D01*
X114219433Y-177122131D01*
X114219634Y-177122724D01*
X114220093Y-177152301D01*
X114212274Y-177206692D01*
X114198388Y-177276109D01*
X114180647Y-177350764D01*
X114161266Y-177420870D01*
X114142456Y-177476640D01*
X114136351Y-177491103D01*
X114122044Y-177529235D01*
X114118889Y-177550438D01*
X114116127Y-177573022D01*
X114105970Y-177622221D01*
X114090224Y-177689685D01*
X114078979Y-177734936D01*
X114026943Y-177889270D01*
X113956762Y-178015840D01*
X113869780Y-178112301D01*
X113857013Y-178122739D01*
X113821916Y-178156197D01*
X113781671Y-178202748D01*
X113743882Y-178252431D01*
X113716152Y-178295281D01*
X113706050Y-178320559D01*
X113694949Y-178343579D01*
X113664188Y-178389048D01*
X113617574Y-178451913D01*
X113558917Y-178527119D01*
X113492027Y-178609614D01*
X113452355Y-178657153D01*
X113391643Y-178729838D01*
X113324063Y-178811795D01*
X113270324Y-178877783D01*
X113217651Y-178935666D01*
X113153561Y-178995277D01*
X113085507Y-179050865D01*
X113020940Y-179096681D01*
X112967311Y-179126975D01*
X112935420Y-179136228D01*
X112919569Y-179139862D01*
X112894927Y-179152639D01*
X112857424Y-179177373D01*
X112802992Y-179216877D01*
X112727561Y-179273963D01*
X112651704Y-179332371D01*
X112593275Y-179373748D01*
X112535305Y-179404467D01*
X112465684Y-179429862D01*
X112373267Y-179455028D01*
X112264952Y-179483430D01*
X112186567Y-179508579D01*
X112132509Y-179533904D01*
X112097174Y-179562832D01*
X112074958Y-179598792D01*
X112060258Y-179645210D01*
X112059896Y-179646709D01*
X112026281Y-179733323D01*
X111968584Y-179827346D01*
X111894303Y-179918580D01*
X111810936Y-179996826D01*
X111791494Y-180011746D01*
X111726272Y-180053191D01*
X111651453Y-180086401D01*
X111555478Y-180116233D01*
X111522291Y-180124882D01*
X111431459Y-180151380D01*
X111339583Y-180184072D01*
X111261881Y-180217354D01*
X111238363Y-180229473D01*
X111170841Y-180260142D01*
X111075499Y-180294089D01*
X110960268Y-180329186D01*
X110833078Y-180363302D01*
X110701861Y-180394308D01*
X110574546Y-180420075D01*
X110460996Y-180438218D01*
X110384698Y-180448327D01*
X110315659Y-180457524D01*
X110267116Y-180464045D01*
X110262135Y-180464722D01*
X110212134Y-180464504D01*
X110147649Y-180455479D01*
X110117509Y-180448694D01*
X110059553Y-180434217D01*
X109979527Y-180414930D01*
X109890627Y-180393993D01*
X109846334Y-180383747D01*
X109754887Y-180361995D01*
X109683227Y-180342354D01*
X109618028Y-180320359D01*
X109545965Y-180291542D01*
X109460362Y-180254377D01*
X109406608Y-180235640D01*
X109361867Y-180228530D01*
X109348908Y-180230051D01*
X109318059Y-180230207D01*
X109261661Y-180222180D01*
X109188994Y-180207492D01*
X109140336Y-180195835D01*
X109023936Y-180161525D01*
X108932319Y-180122803D01*
X108864262Y-180082116D01*
X108798936Y-180028903D01*
X108732611Y-179961157D01*
X108672338Y-179887627D01*
X108625163Y-179817064D01*
X108598135Y-179758217D01*
X108595819Y-179748883D01*
X108590082Y-179728927D01*
X108578238Y-179713246D01*
X108554603Y-179699450D01*
X108513495Y-179685154D01*
X108449231Y-179667970D01*
X108356129Y-179645511D01*
X108341490Y-179642051D01*
X108162972Y-179593413D01*
X108013497Y-179537811D01*
X107886182Y-179472341D01*
X107798305Y-179412916D01*
X107737467Y-179371371D01*
X107671916Y-179332769D01*
X107658974Y-179326050D01*
X107611450Y-179295621D01*
X107551104Y-179247851D01*
X107489540Y-179192059D01*
X107478192Y-179180848D01*
X107414092Y-179119792D01*
X107345793Y-179059949D01*
X107286936Y-179013213D01*
X107281231Y-179009105D01*
X107233558Y-178968342D01*
X107173529Y-178906952D01*
X107109534Y-178833918D01*
X107062274Y-178774662D01*
X106992803Y-178686098D01*
X106913082Y-178588785D01*
X106835335Y-178497488D01*
X106796284Y-178453461D01*
X106736993Y-178385335D01*
X106683792Y-178319365D01*
X106643595Y-178264390D01*
X106626558Y-178236521D01*
X106592185Y-178175569D01*
X106553881Y-178116460D01*
X106549938Y-178110963D01*
X106518992Y-178053040D01*
X106487406Y-177966163D01*
X106457280Y-177857429D01*
X106430716Y-177733938D01*
X106419910Y-177671886D01*
X106391106Y-177561205D01*
X106345151Y-177475874D01*
X106307640Y-177408210D01*
X106272516Y-177318803D01*
X106242895Y-177219185D01*
X106221893Y-177120894D01*
X106212626Y-177035462D01*
X106214422Y-176991936D01*
X106215341Y-176935888D01*
X106204961Y-176855050D01*
X106182730Y-176745714D01*
X106168741Y-176686350D01*
X106148436Y-176597281D01*
X106133062Y-176518795D01*
X106123956Y-176458619D01*
X106122456Y-176424480D01*
X106122999Y-176421986D01*
X106118637Y-176383059D01*
X106089297Y-176331025D01*
X106085406Y-176325817D01*
X106044478Y-176252035D01*
X106010197Y-176151791D01*
X105983856Y-176034381D01*
X105966747Y-175909100D01*
X105960162Y-175785244D01*
X105965395Y-175672109D01*
X105982243Y-175583844D01*
X105987766Y-175508298D01*
X105966063Y-175419790D01*
X105919315Y-175326396D01*
X105908157Y-175309317D01*
X105884669Y-175264931D01*
X105858590Y-175200409D01*
X105832427Y-175124294D01*
X105808690Y-175045129D01*
X105789885Y-174971454D01*
X105778520Y-174911812D01*
X105777105Y-174874746D01*
X105778976Y-174869335D01*
X105781154Y-174842641D01*
X105773921Y-174796491D01*
X105769860Y-174780028D01*
X105759811Y-174717361D01*
X105766100Y-174650675D01*
X105774911Y-174612386D01*
X105787700Y-174533072D01*
X105793096Y-174432847D01*
X105791236Y-174326161D01*
X105782261Y-174227467D01*
X105770599Y-174166046D01*
X105762136Y-174114813D01*
X105756264Y-174043147D01*
X105754273Y-173968236D01*
X105751124Y-173799014D01*
X105741004Y-173630269D01*
X105724844Y-173472534D01*
X105703576Y-173336341D01*
X105694642Y-173293705D01*
X105676853Y-173207734D01*
X105669333Y-173145967D01*
X105671307Y-173098177D01*
X105677584Y-173068780D01*
X105685709Y-173023815D01*
X105684060Y-172973428D01*
X105671700Y-172906371D01*
X105660102Y-172858720D01*
X105641542Y-172778113D01*
X105634159Y-172720431D01*
X105637029Y-172674528D01*
X105642784Y-172649766D01*
X105667819Y-172541070D01*
X105682737Y-172432595D01*
X105686536Y-172335435D01*
X105678217Y-172260683D01*
X105677971Y-172259696D01*
X105667979Y-172195290D01*
X105673657Y-172129011D01*
X105683814Y-172084260D01*
X105697921Y-172017618D01*
X105698949Y-171963174D01*
X105686920Y-171899561D01*
X105684001Y-171887948D01*
X105672656Y-171837568D01*
X105668534Y-171794204D01*
X105672214Y-171746422D01*
X105684276Y-171682784D01*
X105697281Y-171625813D01*
X105735528Y-171461382D01*
X105765681Y-171328274D01*
X105788493Y-171222756D01*
X105804718Y-171141095D01*
X105815110Y-171079557D01*
X105820421Y-171034408D01*
X105821521Y-171010036D01*
X105827316Y-170829505D01*
X105842759Y-170665091D01*
X105867025Y-170521353D01*
X105899288Y-170402854D01*
X105938723Y-170314152D01*
X105950941Y-170295271D01*
X105975391Y-170255684D01*
X105983040Y-170220304D01*
X105976451Y-170172197D01*
X105972350Y-170153908D01*
X105962627Y-170090233D01*
X105966284Y-170026595D01*
X105980105Y-169960471D01*
X105993121Y-169902742D01*
X105997915Y-169857039D01*
X105993983Y-169809997D01*
X105980826Y-169748255D01*
X105970621Y-169707653D01*
X105933904Y-169564328D01*
X105979554Y-169383267D01*
X106001526Y-169302379D01*
X106023785Y-169230949D01*
X106043129Y-169178784D01*
X106052351Y-169160268D01*
X106065542Y-169134865D01*
X106069922Y-169106129D01*
X106065251Y-169064083D01*
X106051290Y-168998753D01*
X106048156Y-168985379D01*
X106016813Y-168852428D01*
X105955229Y-168894276D01*
X105908132Y-168937679D01*
X105865477Y-168995132D01*
X105855419Y-169013384D01*
X105811319Y-169082441D01*
X105746119Y-169160454D01*
X105669543Y-169237477D01*
X105591313Y-169303564D01*
X105534662Y-169341540D01*
X105479544Y-169366837D01*
X105402511Y-169394596D01*
X105317088Y-169420119D01*
X105284811Y-169428358D01*
X105189260Y-169448384D01*
X105100968Y-169459007D01*
X105011891Y-169459786D01*
X104913985Y-169450280D01*
X104799206Y-169430048D01*
X104659509Y-169398648D01*
X104634906Y-169392704D01*
X104532211Y-169366759D01*
X104456285Y-169344538D01*
X104398451Y-169322620D01*
X104350036Y-169297585D01*
X104302362Y-169266011D01*
X104289060Y-169256340D01*
X104187719Y-169170461D01*
X104109670Y-169076231D01*
X104049733Y-168965417D01*
X104002728Y-168829788D01*
X103989802Y-168780729D01*
X103941342Y-168585393D01*
X103985622Y-168411010D01*
X104027319Y-168277865D01*
X104081257Y-168170047D01*
X104154431Y-168077109D01*
X104253839Y-167988605D01*
X104283759Y-167965836D01*
X104387976Y-167886683D01*
X104462733Y-167825642D01*
X104509196Y-167781608D01*
X104528532Y-167753479D01*
X104522278Y-167740274D01*
X104495347Y-167732754D01*
X104440590Y-167718816D01*
X104365382Y-167700296D01*
X104277098Y-167679029D01*
X104254996Y-167673770D01*
X104147413Y-167646944D01*
X104066421Y-167623034D01*
X104003005Y-167598680D01*
X103948146Y-167570522D01*
X103904750Y-167543258D01*
X103797455Y-167458874D01*
X103715402Y-167363112D01*
X103653736Y-167248586D01*
X103607605Y-167107910D01*
X103600985Y-167080974D01*
X103557608Y-166897224D01*
X104115516Y-166897224D01*
X104117910Y-166966254D01*
X104128142Y-167019587D01*
X104150783Y-167061035D01*
X104190406Y-167094409D01*
X104251583Y-167123521D01*
X104338888Y-167152182D01*
X104456891Y-167184204D01*
X104461101Y-167185294D01*
X104582362Y-167204284D01*
X104689001Y-167196448D01*
X104777505Y-167163510D01*
X104844359Y-167107191D01*
X104886050Y-167029216D01*
X104897675Y-166971216D01*
X104915363Y-166890346D01*
X104952889Y-166837571D01*
X105014708Y-166808722D01*
X105080344Y-166800248D01*
X105149793Y-166791218D01*
X105199831Y-166768138D01*
X105222555Y-166749515D01*
X105271304Y-166714240D01*
X105322278Y-166691319D01*
X105325778Y-166690421D01*
X105373482Y-166670247D01*
X105426278Y-166635649D01*
X105439396Y-166624818D01*
X105481046Y-166592397D01*
X105514264Y-166573659D01*
X105522229Y-166571815D01*
X105552801Y-166562118D01*
X105586113Y-166542805D01*
X105629003Y-166524775D01*
X105689244Y-166512913D01*
X105716679Y-166510824D01*
X105804214Y-166492162D01*
X105871659Y-166445100D01*
X105914789Y-166373413D01*
X105926875Y-166322975D01*
X105950080Y-166250321D01*
X105997848Y-166190049D01*
X106034249Y-166150219D01*
X106056108Y-166117521D01*
X106058932Y-166107901D01*
X106070089Y-166081156D01*
X106098131Y-166041108D01*
X106111935Y-166024592D01*
X106147936Y-165976628D01*
X106172834Y-165930907D01*
X106176565Y-165920013D01*
X106199327Y-165880795D01*
X106239658Y-165843235D01*
X106245496Y-165839332D01*
X106291897Y-165799687D01*
X106326624Y-165753037D01*
X106328084Y-165750113D01*
X106360291Y-165701083D01*
X106403204Y-165655440D01*
X106404684Y-165654182D01*
X106444310Y-165607260D01*
X106474434Y-165548605D01*
X106477268Y-165540020D01*
X106495150Y-165495692D01*
X106514074Y-165470922D01*
X106519408Y-165469039D01*
X106555464Y-165453270D01*
X106593913Y-165412640D01*
X106627620Y-165357169D01*
X106649451Y-165296877D01*
X106652164Y-165282581D01*
X106666759Y-165225887D01*
X106696365Y-165170400D01*
X106747186Y-165104850D01*
X106754947Y-165095840D01*
X106802393Y-165037832D01*
X106842178Y-164983185D01*
X106866174Y-164943116D01*
X106867063Y-164941121D01*
X106890957Y-164904381D01*
X106928468Y-164891230D01*
X106948416Y-164890423D01*
X107005876Y-164882701D01*
X107053238Y-164865965D01*
X107095036Y-164843427D01*
X107152656Y-164812331D01*
X107188826Y-164792801D01*
X107248831Y-164757216D01*
X107302506Y-164720109D01*
X107324413Y-164702079D01*
X107373483Y-164668063D01*
X107423843Y-164647397D01*
X107472209Y-164630551D01*
X107505196Y-164611202D01*
X107540840Y-164592305D01*
X107591970Y-164577188D01*
X107598290Y-164575975D01*
X107648202Y-164561168D01*
X107683638Y-164540442D01*
X107686376Y-164537529D01*
X107719624Y-164514647D01*
X107737908Y-164510778D01*
X107774914Y-164502624D01*
X107815647Y-164485459D01*
X107862254Y-164466688D01*
X107925358Y-164447827D01*
X107956657Y-164440372D01*
X108021752Y-164423355D01*
X108080559Y-164403000D01*
X108100785Y-164393895D01*
X108152910Y-164373605D01*
X108216320Y-164357282D01*
X108229261Y-164354978D01*
X108276856Y-164348538D01*
X108297101Y-164352331D01*
X108298255Y-164370315D01*
X108294188Y-164386098D01*
X108283724Y-164432232D01*
X108273018Y-164491974D01*
X108270843Y-164506209D01*
X108262206Y-164549783D01*
X108246341Y-164578461D01*
X108214500Y-164601790D01*
X108158099Y-164629240D01*
X108090792Y-164660683D01*
X108026209Y-164691992D01*
X107993310Y-164708637D01*
X107866189Y-164775600D01*
X107767305Y-164829158D01*
X107692407Y-164871773D01*
X107637242Y-164905908D01*
X107597559Y-164934028D01*
X107581399Y-164947292D01*
X107542250Y-164978943D01*
X107514220Y-164997218D01*
X107508708Y-164999004D01*
X107488391Y-165011313D01*
X107450088Y-165043993D01*
X107400142Y-165090669D01*
X107344900Y-165144968D01*
X107290707Y-165200516D01*
X107243909Y-165250941D01*
X107210850Y-165289868D01*
X107197877Y-165310924D01*
X107197865Y-165311220D01*
X107185681Y-165338275D01*
X107155264Y-165375938D01*
X107143226Y-165388074D01*
X107101295Y-165441642D01*
X107069866Y-165504608D01*
X107066974Y-165513484D01*
X107043745Y-165563836D01*
X107001095Y-165631736D01*
X106945077Y-165709073D01*
X106881745Y-165787739D01*
X106817150Y-165859623D01*
X106783900Y-165892742D01*
X106749002Y-165931271D01*
X106729389Y-165963558D01*
X106727829Y-165970897D01*
X106715225Y-165996285D01*
X106682885Y-166034408D01*
X106655293Y-166061072D01*
X106603337Y-166118871D01*
X106567462Y-166180241D01*
X106562127Y-166195045D01*
X106540135Y-166248093D01*
X106512729Y-166289494D01*
X106508115Y-166294112D01*
X106482302Y-166325383D01*
X106474733Y-166345836D01*
X106462408Y-166372762D01*
X106436582Y-166401789D01*
X106409105Y-166434931D01*
X106373444Y-166489008D01*
X106337225Y-166552437D01*
X106336539Y-166553737D01*
X106299105Y-166623305D01*
X106261877Y-166690056D01*
X106234583Y-166736747D01*
X106202379Y-166790537D01*
X106163363Y-166857242D01*
X106140285Y-166897376D01*
X106101528Y-166960714D01*
X106060705Y-167020412D01*
X106038774Y-167048814D01*
X106004299Y-167097129D01*
X105980348Y-167143514D01*
X105978025Y-167150320D01*
X105956787Y-167193242D01*
X105921664Y-167241213D01*
X105914026Y-167249751D01*
X105877842Y-167303062D01*
X105845171Y-167376578D01*
X105832469Y-167416320D01*
X105812171Y-167479447D01*
X105787058Y-167527709D01*
X105748858Y-167573672D01*
X105695606Y-167624221D01*
X105591159Y-167717511D01*
X105511613Y-167786221D01*
X105456065Y-167831100D01*
X105423611Y-167852893D01*
X105416038Y-167855374D01*
X105394776Y-167866943D01*
X105359384Y-167896024D01*
X105344064Y-167910361D01*
X105303943Y-167941096D01*
X105240496Y-167980586D01*
X105163495Y-168023027D01*
X105105588Y-168051945D01*
X104972051Y-168120447D01*
X104869792Y-168184456D01*
X104794709Y-168246924D01*
X104742698Y-168310803D01*
X104740177Y-168314816D01*
X104690687Y-168368149D01*
X104645086Y-168386720D01*
X104570004Y-168417741D01*
X104518620Y-168473355D01*
X104493099Y-168549107D01*
X104495603Y-168640545D01*
X104503968Y-168677112D01*
X104540872Y-168759833D01*
X104601460Y-168821145D01*
X104690099Y-168864913D01*
X104730178Y-168877244D01*
X104819489Y-168896448D01*
X104920269Y-168910135D01*
X105022107Y-168917686D01*
X105114592Y-168918482D01*
X105187312Y-168911904D01*
X105212219Y-168905919D01*
X105263877Y-168879686D01*
X105318975Y-168838427D01*
X105337062Y-168821262D01*
X105375717Y-168775888D01*
X105394316Y-168733224D01*
X105400124Y-168675280D01*
X105400335Y-168664559D01*
X105403397Y-168607707D01*
X105414892Y-168573212D01*
X105441449Y-168547316D01*
X105464058Y-168532272D01*
X105521022Y-168502504D01*
X105578526Y-168481502D01*
X105585217Y-168479883D01*
X105641671Y-168458433D01*
X105693280Y-168425782D01*
X105740830Y-168392916D01*
X105786980Y-168370923D01*
X105787758Y-168370680D01*
X105828105Y-168350344D01*
X105878279Y-168314860D01*
X105900799Y-168295893D01*
X105945616Y-168260501D01*
X105983760Y-168238546D01*
X105997275Y-168235018D01*
X106022522Y-168223112D01*
X106065507Y-168191307D01*
X106118605Y-168145474D01*
X106141752Y-168123776D01*
X106257599Y-168012534D01*
X106373322Y-168010787D01*
X106450024Y-168005863D01*
X106500183Y-167992519D01*
X106525632Y-167975915D01*
X106552385Y-167954141D01*
X106563579Y-167959382D01*
X106568654Y-167984954D01*
X106568143Y-168032424D01*
X106558034Y-168085872D01*
X106552077Y-168170075D01*
X106560399Y-168207900D01*
X106570306Y-168284239D01*
X106560399Y-168334449D01*
X106551167Y-168419491D01*
X106558589Y-168456477D01*
X106566437Y-168517149D01*
X106552849Y-168560427D01*
X106530765Y-168634806D01*
X106541816Y-168713650D01*
X106549939Y-168735514D01*
X106562748Y-168784225D01*
X106571069Y-168849036D01*
X106572537Y-168879417D01*
X106581950Y-168958742D01*
X106607572Y-169009345D01*
X106628546Y-169042019D01*
X106630105Y-169063858D01*
X106621555Y-169088935D01*
X106608633Y-169139655D01*
X106593804Y-169206157D01*
X106590273Y-169223182D01*
X106573612Y-169293773D01*
X106555685Y-169352506D01*
X106539872Y-169388611D01*
X106537180Y-169392262D01*
X106517986Y-169425875D01*
X106497947Y-169478467D01*
X106490985Y-169502086D01*
X106478932Y-169559133D01*
X106481321Y-169600775D01*
X106498947Y-169644737D01*
X106519340Y-169696658D01*
X106528873Y-169742682D01*
X106528968Y-169746156D01*
X106535580Y-169795971D01*
X106546193Y-169832703D01*
X106553021Y-169879740D01*
X106535035Y-169933867D01*
X106533053Y-169937830D01*
X106510032Y-170005241D01*
X106502813Y-170077170D01*
X106511392Y-170140913D01*
X106533118Y-170181293D01*
X106554115Y-170207313D01*
X106548430Y-170229079D01*
X106534223Y-170245890D01*
X106513418Y-170288069D01*
X106499291Y-170356877D01*
X106496093Y-170389360D01*
X106488637Y-170456021D01*
X106474848Y-170499676D01*
X106449687Y-170533451D01*
X106435606Y-170546868D01*
X106388266Y-170611660D01*
X106369806Y-170688443D01*
X106382467Y-170765965D01*
X106389057Y-170780822D01*
X106405628Y-170820278D01*
X106402926Y-170844876D01*
X106386647Y-170864550D01*
X106370160Y-170891540D01*
X106361760Y-170935883D01*
X106360076Y-171005939D01*
X106360440Y-171024395D01*
X106364470Y-171096291D01*
X106371937Y-171159375D01*
X106381186Y-171199858D01*
X106388418Y-171232519D01*
X106377440Y-171262725D01*
X106343540Y-171303031D01*
X106341813Y-171304850D01*
X106311180Y-171340207D01*
X106294075Y-171373304D01*
X106286615Y-171416660D01*
X106284915Y-171482793D01*
X106284911Y-171488246D01*
X106282458Y-171561729D01*
X106273532Y-171609915D01*
X106255786Y-171643427D01*
X106248754Y-171651807D01*
X106221784Y-171703677D01*
X106210697Y-171772510D01*
X106215389Y-171844010D01*
X106235756Y-171903884D01*
X106250757Y-171923988D01*
X106288917Y-171962148D01*
X106244019Y-172052245D01*
X106216802Y-172115300D01*
X106207522Y-172166257D01*
X106212116Y-172217969D01*
X106225100Y-172325254D01*
X106228149Y-172430263D01*
X106221593Y-172523090D01*
X106205764Y-172593828D01*
X106199039Y-172609697D01*
X106171020Y-172692309D01*
X106175821Y-172768628D01*
X106194977Y-172816078D01*
X106216182Y-172883785D01*
X106224321Y-172973457D01*
X106218650Y-173073068D01*
X106213071Y-173109120D01*
X106209932Y-173186610D01*
X106227660Y-173244707D01*
X106241371Y-173291325D01*
X106254758Y-173367238D01*
X106267170Y-173465586D01*
X106277957Y-173579508D01*
X106286467Y-173702145D01*
X106292049Y-173826637D01*
X106294051Y-173944223D01*
X106295863Y-174028294D01*
X106300627Y-174105829D01*
X106307484Y-174164843D01*
X106311186Y-174182776D01*
X106324701Y-174253282D01*
X106333174Y-174338994D01*
X106336484Y-174429443D01*
X106334508Y-174514161D01*
X106327124Y-174582680D01*
X106316293Y-174620795D01*
X106298322Y-174694385D01*
X106302643Y-174740258D01*
X106311292Y-174794729D01*
X106315174Y-174839316D01*
X106315190Y-174842634D01*
X106326850Y-174948476D01*
X106365129Y-175032766D01*
X106382827Y-175055440D01*
X106415769Y-175102876D01*
X106445525Y-175168123D01*
X106473907Y-175256384D01*
X106502727Y-175372863D01*
X106517835Y-175443153D01*
X106531308Y-175515202D01*
X106535509Y-175563258D01*
X106530585Y-175598235D01*
X106520271Y-175623936D01*
X106505501Y-175680394D01*
X106499299Y-175771848D01*
X106499630Y-175841172D01*
X106502421Y-175921859D01*
X106507639Y-175975617D01*
X106517445Y-176011674D01*
X106533999Y-176039256D01*
X106550430Y-176058112D01*
X106583838Y-176102270D01*
X106621281Y-176164200D01*
X106646054Y-176212619D01*
X106672728Y-176274366D01*
X106683803Y-176316842D01*
X106681486Y-176352242D01*
X106675169Y-176373501D01*
X106657295Y-176450744D01*
X106665213Y-176516841D01*
X106682098Y-176556371D01*
X106708052Y-176626361D01*
X106729316Y-176723985D01*
X106744530Y-176840875D01*
X106752331Y-176968663D01*
X106752826Y-176991121D01*
X106754663Y-177068140D01*
X106758957Y-177118427D01*
X106768424Y-177151401D01*
X106785777Y-177176486D01*
X106813729Y-177203104D01*
X106813933Y-177203286D01*
X106850432Y-177244225D01*
X106870874Y-177283316D01*
X106872455Y-177293470D01*
X106878191Y-177328275D01*
X106893352Y-177385619D01*
X106914871Y-177454111D01*
X106918885Y-177465884D01*
X106942695Y-177546754D01*
X106960699Y-177630097D01*
X106969042Y-177698033D01*
X106969069Y-177698721D01*
X106975793Y-177765784D01*
X106993190Y-177812275D01*
X107020781Y-177847452D01*
X107056544Y-177894978D01*
X107079970Y-177943841D01*
X107081246Y-177948454D01*
X107101564Y-177987260D01*
X107141557Y-178036110D01*
X107181957Y-178075002D01*
X107227469Y-178116513D01*
X107259325Y-178149994D01*
X107270169Y-178167018D01*
X107281222Y-178188433D01*
X107309749Y-178226941D01*
X107337972Y-178260739D01*
X107424549Y-178362983D01*
X107487335Y-178444359D01*
X107524617Y-178500692D01*
X107556479Y-178538962D01*
X107605405Y-178582171D01*
X107633087Y-178602320D01*
X107686486Y-178643070D01*
X107750362Y-178698893D01*
X107811113Y-178757885D01*
X107812527Y-178759352D01*
X107873332Y-178816568D01*
X107928514Y-178857562D01*
X107966192Y-178875184D01*
X108010587Y-178894790D01*
X108063954Y-178931089D01*
X108092740Y-178955747D01*
X108142208Y-178997036D01*
X108189231Y-179027748D01*
X108210249Y-179036995D01*
X108259456Y-179059032D01*
X108288492Y-179079170D01*
X108327093Y-179097962D01*
X108386409Y-179110899D01*
X108415040Y-179113652D01*
X108472175Y-179121709D01*
X108551233Y-179139077D01*
X108640094Y-179162884D01*
X108698363Y-179180774D01*
X108783300Y-179207391D01*
X108862497Y-179230457D01*
X108925455Y-179247008D01*
X108954689Y-179253201D01*
X109010748Y-179269076D01*
X109057199Y-179293176D01*
X109059825Y-179295213D01*
X109085336Y-179322082D01*
X109087254Y-179351950D01*
X109077994Y-179380320D01*
X109065947Y-179459092D01*
X109084380Y-179538070D01*
X109128729Y-179608549D01*
X109194433Y-179661828D01*
X109234927Y-179679651D01*
X109290610Y-179691540D01*
X109351684Y-179688385D01*
X109395065Y-179680003D01*
X109451237Y-179669051D01*
X109490262Y-179669583D01*
X109528348Y-179684585D01*
X109575809Y-179713298D01*
X109650904Y-179755056D01*
X109740312Y-179795945D01*
X109833820Y-179832172D01*
X109921215Y-179859941D01*
X109992282Y-179875457D01*
X110017556Y-179877438D01*
X110078987Y-179885088D01*
X110134952Y-179903662D01*
X110138040Y-179905261D01*
X110201846Y-179924376D01*
X110253096Y-179924830D01*
X110300999Y-179918603D01*
X110371393Y-179909476D01*
X110450910Y-179899183D01*
X110470036Y-179896709D01*
X110656335Y-179866428D01*
X110814341Y-179826370D01*
X110951173Y-179774050D01*
X111073952Y-179706981D01*
X111136684Y-179663926D01*
X111179144Y-179638036D01*
X111226076Y-179623831D01*
X111290845Y-179617918D01*
X111320814Y-179617169D01*
X111389852Y-179614392D01*
X111435041Y-179606181D01*
X111468646Y-179588845D01*
X111497409Y-179564041D01*
X111545246Y-179497925D01*
X111577651Y-179413478D01*
X111589089Y-179327147D01*
X111586908Y-179298079D01*
X111586245Y-179255001D01*
X111604747Y-179232443D01*
X111616391Y-179227143D01*
X111657407Y-179202561D01*
X111688603Y-179174459D01*
X111718220Y-179146610D01*
X111737349Y-179136228D01*
X111759085Y-179127684D01*
X111802480Y-179105258D01*
X111858244Y-179073758D01*
X111859618Y-179072954D01*
X111916802Y-179041146D01*
X111963206Y-179018426D01*
X111988842Y-179009680D01*
X111988922Y-179009680D01*
X112019038Y-179002732D01*
X112063455Y-178985838D01*
X112067232Y-178984167D01*
X112121328Y-178966517D01*
X112188465Y-178952931D01*
X112211197Y-178950104D01*
X112298076Y-178926909D01*
X112365805Y-178879043D01*
X112404917Y-178817881D01*
X112435797Y-178784148D01*
X112479177Y-178767844D01*
X112536100Y-178746416D01*
X112584542Y-178714098D01*
X112632895Y-178681426D01*
X112692990Y-178654798D01*
X112703787Y-178651450D01*
X112787462Y-178611149D01*
X112846539Y-178546444D01*
X112867628Y-178500054D01*
X112892850Y-178458721D01*
X112935398Y-178417460D01*
X112946762Y-178409302D01*
X112995101Y-178368125D01*
X113032971Y-178320743D01*
X113037599Y-178312419D01*
X113067299Y-178268342D01*
X113112391Y-178216818D01*
X113139697Y-178190320D01*
X113184221Y-178143270D01*
X113216783Y-178096383D01*
X113226413Y-178073698D01*
X113247787Y-178025035D01*
X113280932Y-177979217D01*
X113313236Y-177931685D01*
X113339419Y-177871474D01*
X113343246Y-177858553D01*
X113361457Y-177807495D01*
X113386571Y-177781434D01*
X113414586Y-177771803D01*
X113461016Y-177751190D01*
X113509202Y-177714962D01*
X113516807Y-177707438D01*
X113541817Y-177678409D01*
X113557330Y-177648665D01*
X113565955Y-177608314D01*
X113570303Y-177547462D01*
X113571900Y-177498642D01*
X113574952Y-177421326D01*
X113580755Y-177370260D01*
X113591934Y-177335541D01*
X113611111Y-177307263D01*
X113627287Y-177289539D01*
X113659027Y-177249300D01*
X113675848Y-177204167D01*
X113683129Y-177139163D01*
X113683437Y-177133129D01*
X113689135Y-177020174D01*
X113694159Y-176937617D01*
X113699344Y-176879731D01*
X113705524Y-176840789D01*
X113713535Y-176815062D01*
X113724209Y-176796825D01*
X113734162Y-176784951D01*
X113760772Y-176732725D01*
X113765502Y-176671645D01*
X113760730Y-176522798D01*
X113759519Y-176406638D01*
X113762023Y-176319855D01*
X113768396Y-176259142D01*
X113778791Y-176221188D01*
X113787048Y-176207936D01*
X113808803Y-176168999D01*
X113824573Y-176114968D01*
X113826075Y-176105837D01*
X113839304Y-176041655D01*
X113859212Y-175972433D01*
X113863617Y-175959748D01*
X113881839Y-175874977D01*
X113876558Y-175815122D01*
X113866754Y-175685033D01*
X113889728Y-175545302D01*
X113898751Y-175514974D01*
X113915202Y-175439941D01*
X113916297Y-175374053D01*
X113915235Y-175367393D01*
X113914860Y-175306318D01*
X113939338Y-175238827D01*
X113942932Y-175231799D01*
X113968757Y-175168458D01*
X113974659Y-175105649D01*
X113971589Y-175068901D01*
X113968360Y-175006305D01*
X113977983Y-174969784D01*
X113986799Y-174959698D01*
X114012301Y-174919281D01*
X114024957Y-174860377D01*
X114022183Y-174799172D01*
X114015971Y-174777134D01*
X114007816Y-174734947D01*
X114025641Y-174702600D01*
X114028331Y-174699844D01*
X114049859Y-174657578D01*
X114058841Y-174596361D01*
X114055294Y-174531148D01*
X114039232Y-174476891D01*
X114028076Y-174460200D01*
X114007610Y-174422085D01*
X114005817Y-174366851D01*
X114007521Y-174352350D01*
X114004192Y-174261715D01*
X113989408Y-174216930D01*
X113978035Y-174188531D01*
X113968644Y-174154738D01*
X113960487Y-174110026D01*
X113952817Y-174048867D01*
X113944886Y-173965733D01*
X113935947Y-173855098D01*
X113930284Y-173779914D01*
X113925398Y-173701278D01*
X113925510Y-173649758D01*
X113931614Y-173616535D01*
X113944704Y-173592790D01*
X113952385Y-173583674D01*
X113982034Y-173526328D01*
X113987179Y-173456134D01*
X113968664Y-173386028D01*
X113936301Y-173337556D01*
X113905103Y-173302327D01*
X113896403Y-173276514D01*
X113907212Y-173243886D01*
X113915813Y-173226324D01*
X113934588Y-173159026D01*
X113932433Y-173086505D01*
X113910391Y-173024898D01*
X113902071Y-173013304D01*
X113889309Y-172977439D01*
X113883840Y-172908575D01*
X113884602Y-172829615D01*
X113888688Y-172749124D01*
X113895869Y-172695570D01*
X113908203Y-172659751D01*
X113927748Y-172632463D01*
X113928992Y-172631114D01*
X113956404Y-172587668D01*
X113968738Y-172526843D01*
X113970290Y-172495526D01*
X113974291Y-172425244D01*
X113981911Y-172357452D01*
X113985673Y-172335273D01*
X113987298Y-172259344D01*
X113970862Y-172212177D01*
X113952842Y-172156236D01*
X113959999Y-172110567D01*
X113976258Y-172024478D01*
X113961910Y-171941895D01*
X113953156Y-171922495D01*
X113938880Y-171872869D01*
X113936628Y-171814496D01*
X113937016Y-171810794D01*
X113935971Y-171747950D01*
X113923177Y-171682222D01*
X113921068Y-171675702D01*
X113905287Y-171611145D01*
X113896314Y-171539294D01*
X113895733Y-171525267D01*
X113886493Y-171458929D01*
X113865088Y-171385438D01*
X113853047Y-171356316D01*
X113830018Y-171304787D01*
X113822058Y-171274108D01*
X113828402Y-171252623D01*
X113844918Y-171232389D01*
X113870733Y-171180861D01*
X113879136Y-171112785D01*
X113870459Y-171043114D01*
X113845038Y-170986801D01*
X113839280Y-170979855D01*
X113806632Y-170919234D01*
X113792161Y-170842222D01*
X113776350Y-170761267D01*
X113747190Y-170706792D01*
X113747046Y-170706634D01*
X113720037Y-170658630D01*
X113702842Y-170591493D01*
X113701347Y-170579551D01*
X113682466Y-170499991D01*
X113652052Y-170449861D01*
X113626837Y-170417945D01*
X113621608Y-170387675D01*
X113633516Y-170341810D01*
X113633977Y-170340409D01*
X113646956Y-170269405D01*
X113644489Y-170194336D01*
X113627989Y-170129667D01*
X113610528Y-170100198D01*
X113586092Y-170053712D01*
X113574198Y-169993916D01*
X113575934Y-169935550D01*
X113592390Y-169893349D01*
X113595035Y-169890436D01*
X113609739Y-169857198D01*
X113620004Y-169797743D01*
X113625775Y-169721742D01*
X113626998Y-169638868D01*
X113623619Y-169558793D01*
X113615584Y-169491189D01*
X113602837Y-169445728D01*
X113597580Y-169437225D01*
X113580353Y-169397310D01*
X113571740Y-169327595D01*
X113570463Y-169272969D01*
X113569155Y-169202432D01*
X113563092Y-169156540D01*
X113549065Y-169123814D01*
X113523864Y-169092775D01*
X113518502Y-169087116D01*
X113498148Y-169063550D01*
X113483495Y-169037991D01*
X113473958Y-169004810D01*
X113468951Y-168958378D01*
X113467887Y-168893069D01*
X113470182Y-168803253D01*
X113475248Y-168683303D01*
X113475618Y-168675217D01*
X113474013Y-168607898D01*
X113459791Y-168563359D01*
X113446166Y-168544837D01*
X113427915Y-168518737D01*
X113419950Y-168485902D01*
X113420762Y-168435306D01*
X113424987Y-168390387D01*
X113430075Y-168315151D01*
X113424950Y-168260318D01*
X113408052Y-168211189D01*
X113405356Y-168205391D01*
X113383045Y-168129906D01*
X113374190Y-168036039D01*
X113378721Y-167938942D01*
X113396567Y-167853763D01*
X113407120Y-167827047D01*
X113429289Y-167753782D01*
X113425969Y-167694806D01*
X113416304Y-167633049D01*
X113408626Y-167562785D01*
X113407487Y-167548043D01*
X113402046Y-167479986D01*
X113394726Y-167401115D01*
X113391256Y-167367260D01*
X113386127Y-167313824D01*
X113386348Y-167292853D01*
X113392657Y-167300949D01*
X113401079Y-167322064D01*
X113422872Y-167369605D01*
X113444262Y-167403417D01*
X113464000Y-167439899D01*
X113479566Y-167489606D01*
X113479591Y-167489721D01*
X113500783Y-167546587D01*
X113533078Y-167598191D01*
X113563589Y-167650133D01*
X113583962Y-167711783D01*
X113585220Y-167718815D01*
X113611914Y-167797902D01*
X113663903Y-167851955D01*
X113742519Y-167882126D01*
X113780288Y-167887630D01*
X113892466Y-167916010D01*
X114000164Y-167979461D01*
X114086104Y-168058352D01*
X114157755Y-168116540D01*
X114239359Y-168147745D01*
X114302773Y-168169360D01*
X114358762Y-168198616D01*
X114376644Y-168212100D01*
X114428718Y-168245355D01*
X114485209Y-168264462D01*
X114542516Y-168283814D01*
X114596078Y-168316808D01*
X114597727Y-168318205D01*
X114628718Y-168350732D01*
X114644923Y-168388510D01*
X114651653Y-168445449D01*
X114652367Y-168461337D01*
X114658066Y-168525181D01*
X114673255Y-168568934D01*
X114704146Y-168608510D01*
X114713547Y-168618119D01*
X114753579Y-168652548D01*
X114795447Y-168671647D01*
X114853944Y-168681262D01*
X114878354Y-168683274D01*
X114987809Y-168680780D01*
X115083679Y-168658422D01*
X115156724Y-168618447D01*
X115161352Y-168614513D01*
X115203618Y-168585370D01*
X115234344Y-168571545D01*
X115265211Y-168553451D01*
X115310702Y-168516708D01*
X115360892Y-168469346D01*
X115407690Y-168420452D01*
X115434499Y-168384302D01*
X115446886Y-168348069D01*
X115450418Y-168298923D01*
X115450605Y-168262632D01*
X115448736Y-168196136D01*
X115440394Y-168152572D01*
X115421481Y-168118797D01*
X115397137Y-168091192D01*
X115331296Y-168042821D01*
X115276263Y-168024605D01*
X115219274Y-168005574D01*
X115171372Y-167973779D01*
X115168394Y-167970757D01*
X115134829Y-167940520D01*
X115109220Y-167926548D01*
X115108486Y-167926475D01*
X115085303Y-167915811D01*
X115042140Y-167888797D01*
X114987790Y-167850984D01*
X114980569Y-167845717D01*
X114905270Y-167793084D01*
X114820922Y-167738264D01*
X114735463Y-167685984D01*
X114656830Y-167640970D01*
X114592960Y-167607951D01*
X114555730Y-167592702D01*
X114512644Y-167573107D01*
X114461118Y-167540763D01*
X114447260Y-167530516D01*
X114389790Y-167489986D01*
X114324266Y-167448971D01*
X114306581Y-167438888D01*
X114245429Y-167394425D01*
X114219456Y-167350051D01*
X114200388Y-167280231D01*
X114170095Y-167191136D01*
X114133591Y-167095795D01*
X114095889Y-167007238D01*
X114062004Y-166938495D01*
X114059116Y-166933381D01*
X114034913Y-166890292D01*
X114003359Y-166832970D01*
X113988528Y-166805697D01*
X113957163Y-166753207D01*
X113927401Y-166712125D01*
X113915360Y-166699534D01*
X113891678Y-166670930D01*
X113886706Y-166655473D01*
X113877017Y-166632202D01*
X113851237Y-166587413D01*
X113814114Y-166529137D01*
X113796315Y-166502618D01*
X113755945Y-166441605D01*
X113724896Y-166391318D01*
X113707880Y-166359537D01*
X113706050Y-166353524D01*
X113694809Y-166331653D01*
X113666032Y-166293776D01*
X113642776Y-166266865D01*
X113606799Y-166223510D01*
X113583877Y-166189102D01*
X113579502Y-166177050D01*
X113568459Y-166152219D01*
X113540744Y-166113476D01*
X113527706Y-166097889D01*
X113491567Y-166049609D01*
X113465998Y-166003276D01*
X113462354Y-165993310D01*
X113439942Y-165946332D01*
X113406124Y-165902363D01*
X113370830Y-165872823D01*
X113352332Y-165866762D01*
X113332078Y-165851358D01*
X113318763Y-165820692D01*
X113300160Y-165780893D01*
X113262790Y-165724871D01*
X113211957Y-165658611D01*
X113152963Y-165588101D01*
X113091113Y-165519328D01*
X113031708Y-165458278D01*
X112980053Y-165410939D01*
X112941449Y-165383296D01*
X112927198Y-165378648D01*
X112912689Y-165363551D01*
X112896344Y-165327593D01*
X112873851Y-165291471D01*
X112828958Y-165239490D01*
X112768123Y-165177570D01*
X112697804Y-165111634D01*
X112624460Y-165047603D01*
X112554550Y-164991399D01*
X112494532Y-164948944D01*
X112464912Y-164932021D01*
X112412411Y-164904966D01*
X112371706Y-164881313D01*
X112359885Y-164873010D01*
X112321089Y-164846401D01*
X112258739Y-164809739D01*
X112182084Y-164768174D01*
X112100376Y-164726858D01*
X112079004Y-164716583D01*
X111952123Y-164656936D01*
X111849330Y-164609907D01*
X111773787Y-164576928D01*
X111743434Y-164564698D01*
X111710915Y-164547212D01*
X111702095Y-164520520D01*
X111706326Y-164487977D01*
X111717317Y-164427642D01*
X111728494Y-164363733D01*
X111728636Y-164362901D01*
X111739966Y-164296265D01*
X111805267Y-164331264D01*
X111865162Y-164354822D01*
X111926471Y-164366735D01*
X111934109Y-164367051D01*
X111996063Y-164371661D01*
X112063031Y-164381877D01*
X112069964Y-164383306D01*
X112132403Y-164396487D01*
X112206407Y-164411876D01*
X112237128Y-164418196D01*
X112311466Y-164437600D01*
X112387099Y-164463618D01*
X112412399Y-164474254D01*
X112461928Y-164495646D01*
X112497433Y-164508844D01*
X112506382Y-164510890D01*
X112527254Y-164522276D01*
X112560918Y-164550250D01*
X112566970Y-164555945D01*
X112605124Y-164583584D01*
X112659396Y-164606367D01*
X112735201Y-164625781D01*
X112837955Y-164643313D01*
X112928683Y-164655245D01*
X112994062Y-164663206D01*
X113043474Y-164669321D01*
X113067782Y-164672458D01*
X113068790Y-164672620D01*
X113073065Y-164688029D01*
X113073310Y-164695027D01*
X113086278Y-164725495D01*
X113116700Y-164761829D01*
X113151852Y-164790911D01*
X113175255Y-164800142D01*
X113200561Y-164814541D01*
X113219866Y-164840819D01*
X113244228Y-164877468D01*
X113282998Y-164926246D01*
X113308077Y-164954868D01*
X113354900Y-165016948D01*
X113395524Y-165088636D01*
X113407880Y-165117573D01*
X113437224Y-165182039D01*
X113473299Y-165241476D01*
X113488672Y-165261139D01*
X113526196Y-165310260D01*
X113554970Y-165359105D01*
X113557430Y-165364589D01*
X113579622Y-165404026D01*
X113617003Y-165458453D01*
X113657504Y-165511080D01*
X113719547Y-165602059D01*
X113748457Y-165681664D01*
X113748591Y-165682492D01*
X113763323Y-165734988D01*
X113793801Y-165779905D01*
X113841718Y-165824562D01*
X113885520Y-165864148D01*
X113915045Y-165896521D01*
X113923036Y-165911266D01*
X113931831Y-165935495D01*
X113954744Y-165980242D01*
X113983870Y-166030841D01*
X114019949Y-166095228D01*
X114050616Y-166157879D01*
X114065594Y-166195083D01*
X114093235Y-166250231D01*
X114134106Y-166303724D01*
X114141530Y-166311214D01*
X114179417Y-166342395D01*
X114218557Y-166358483D01*
X114273569Y-166364397D01*
X114301399Y-166364997D01*
X114369243Y-166369055D01*
X114418270Y-166383154D01*
X114465530Y-166412769D01*
X114476479Y-166421199D01*
X114535835Y-166460199D01*
X114599846Y-166491437D01*
X114619004Y-166498206D01*
X114707574Y-166528704D01*
X114772715Y-166561149D01*
X114826889Y-166601828D01*
X114830049Y-166604655D01*
X114894899Y-166642101D01*
X114961117Y-166657584D01*
X115011777Y-166665214D01*
X115035995Y-166677779D01*
X115043415Y-166702483D01*
X115043843Y-166719373D01*
X115060373Y-166806702D01*
X115106267Y-166891820D01*
X115149241Y-166940473D01*
X115223390Y-166986619D01*
X115312354Y-167004450D01*
X115407415Y-166993101D01*
X115464167Y-166971724D01*
X115515733Y-166949056D01*
X115556179Y-166935296D01*
X115567713Y-166933381D01*
X115630572Y-166922882D01*
X115706313Y-166895758D01*
X115780074Y-166858570D01*
X115836991Y-166817880D01*
X115843309Y-166811724D01*
X115876052Y-166774641D01*
X115893855Y-166740521D01*
X115901197Y-166695971D01*
X115902562Y-166634496D01*
X115900577Y-166567278D01*
X115892253Y-166523778D01*
X115874039Y-166491664D01*
X115855605Y-166471445D01*
X115793086Y-166430650D01*
X115735902Y-166414731D01*
X115688353Y-166402201D01*
X115636725Y-166374325D01*
X115572894Y-166326270D01*
X115538912Y-166297541D01*
X115470080Y-166241313D01*
X115398300Y-166187975D01*
X115336656Y-166147133D01*
X115324166Y-166139892D01*
X115262526Y-166105716D01*
X115204658Y-166073676D01*
X115179431Y-166059731D01*
X115119277Y-166028909D01*
X115040387Y-165991677D01*
X114954296Y-165953145D01*
X114872539Y-165918422D01*
X114806652Y-165892617D01*
X114786228Y-165885585D01*
X114743236Y-165868484D01*
X114719854Y-165852597D01*
X114718434Y-165849127D01*
X114707546Y-165829765D01*
X114678213Y-165789527D01*
X114635434Y-165735067D01*
X114602872Y-165695300D01*
X114551894Y-165629882D01*
X114509925Y-165568383D01*
X114482843Y-165519805D01*
X114476357Y-165501537D01*
X114457333Y-165453287D01*
X114423235Y-165399762D01*
X114411136Y-165384962D01*
X114378246Y-165342625D01*
X114358969Y-165308377D01*
X114356868Y-165299468D01*
X114344509Y-165270126D01*
X114322502Y-165244681D01*
X114294749Y-165204835D01*
X114276976Y-165154091D01*
X114253292Y-165098196D01*
X114208227Y-165042338D01*
X114202872Y-165037326D01*
X114165480Y-164999407D01*
X114142930Y-164969027D01*
X114139929Y-164960276D01*
X114128836Y-164935695D01*
X114100862Y-164896801D01*
X114085694Y-164878733D01*
X114052832Y-164836548D01*
X114033564Y-164802618D01*
X114031459Y-164793857D01*
X114019313Y-164767585D01*
X113989066Y-164730629D01*
X113978103Y-164719632D01*
X113940546Y-164674188D01*
X113916217Y-164627542D01*
X113914026Y-164619704D01*
X113895111Y-164579403D01*
X113858460Y-164529728D01*
X113831795Y-164501067D01*
X113792159Y-164458842D01*
X113766191Y-164424425D01*
X113760285Y-164410379D01*
X113748543Y-164390136D01*
X113716371Y-164349258D01*
X113668345Y-164293223D01*
X113609045Y-164227509D01*
X113593060Y-164210281D01*
X113520135Y-164131403D01*
X113445852Y-164049842D01*
X113378998Y-163975314D01*
X113329136Y-163918440D01*
X113281951Y-163866239D01*
X113241830Y-163826820D01*
X113215672Y-163806806D01*
X113211628Y-163805576D01*
X113187842Y-163797769D01*
X113139351Y-163776812D01*
X113073618Y-163746061D01*
X113010672Y-163715184D01*
X112935947Y-163678794D01*
X112871887Y-163649441D01*
X112826071Y-163630485D01*
X112807291Y-163625054D01*
X112791709Y-163623655D01*
X112786548Y-163614675D01*
X112793144Y-163590935D01*
X112812839Y-163545254D01*
X112828639Y-163510580D01*
X112856016Y-163440640D01*
X112877075Y-163368810D01*
X112883901Y-163333780D01*
X112905947Y-163211391D01*
X112937388Y-163113920D01*
X112982082Y-163030554D01*
X113002576Y-163001352D01*
X113069800Y-162885152D01*
X113113061Y-162754567D01*
X113127544Y-162629934D01*
X113117368Y-162488632D01*
X113085762Y-162375180D01*
X113031116Y-162287185D01*
X112951815Y-162222252D01*
X112846247Y-162177990D01*
X112817901Y-162170437D01*
X112708286Y-162151709D01*
X112626516Y-162155534D01*
X112572793Y-162181897D01*
X112566153Y-162188991D01*
X112530029Y-162206852D01*
X112459543Y-162214587D01*
X112434825Y-162214947D01*
X112369047Y-162212628D01*
X112325723Y-162202893D01*
X112291296Y-162181572D01*
X112273147Y-162165231D01*
X112233236Y-162133865D01*
X112189446Y-162119143D01*
X112127532Y-162115576D01*
X112053782Y-162122581D01*
X111987265Y-162140509D01*
X111972276Y-162147213D01*
X111934183Y-162162141D01*
X111884415Y-162171767D01*
X111815182Y-162177004D01*
X111718699Y-162178768D01*
X111703404Y-162178790D01*
X111496065Y-162178790D01*
X111671055Y-161996475D01*
X111736049Y-161927122D01*
X111792376Y-161863945D01*
X111834911Y-161812919D01*
X111858531Y-161780016D01*
X111861000Y-161775016D01*
X111876632Y-161743066D01*
X111906372Y-161689315D01*
X111945215Y-161622654D01*
X111969559Y-161582207D01*
X112076198Y-161396622D01*
X112158472Y-161230303D01*
X112215876Y-161084558D01*
X112247904Y-160960695D01*
X112254049Y-160860022D01*
X112253045Y-160849750D01*
X112252163Y-160752336D01*
X112267921Y-160692284D01*
X112281411Y-160645263D01*
X112286949Y-160582878D01*
X112285134Y-160496315D01*
X112283318Y-160465430D01*
X112279294Y-160377729D01*
X112281246Y-160315895D01*
X112290005Y-160270005D01*
X112302380Y-160238304D01*
X112329433Y-160146569D01*
X112320852Y-160059691D01*
X112304180Y-160019557D01*
X112285853Y-159957798D01*
X112287469Y-159916429D01*
X112288936Y-159872005D01*
X112281377Y-159808768D01*
X112270437Y-159757049D01*
X112254055Y-159666160D01*
X112251654Y-159584164D01*
X112253251Y-159568664D01*
X112254976Y-159498149D01*
X112244413Y-159430586D01*
X112242247Y-159423484D01*
X112229319Y-159366983D01*
X112220080Y-159294644D01*
X112217502Y-159251361D01*
X112209298Y-159171179D01*
X112190661Y-159118834D01*
X112185502Y-159111881D01*
X112164006Y-159074609D01*
X112142862Y-159018573D01*
X112134876Y-158989911D01*
X112123337Y-158935908D01*
X112124055Y-158902420D01*
X112139606Y-158875123D01*
X112159446Y-158853334D01*
X112189855Y-158817374D01*
X112205243Y-158790924D01*
X112205699Y-158788121D01*
X112219413Y-158763935D01*
X112258251Y-158720223D01*
X112319107Y-158660049D01*
X112398875Y-158586479D01*
X112494449Y-158502578D01*
X112499324Y-158498392D01*
X112558027Y-158446066D01*
X112604635Y-158400769D01*
X112633254Y-158368453D01*
X112639431Y-158356912D01*
X112655243Y-158339795D01*
X112695105Y-158321562D01*
X112716487Y-158315004D01*
X112776669Y-158290452D01*
X112829208Y-158255437D01*
X112838515Y-158246524D01*
X112861178Y-158218684D01*
X112874671Y-158188107D01*
X112881306Y-158144732D01*
X112883399Y-158078497D01*
X112883488Y-158050964D01*
X112882390Y-157975294D01*
X112876805Y-157922812D01*
X112863293Y-157880566D01*
X112838413Y-157835603D01*
X112817860Y-157803844D01*
X112765860Y-157728402D01*
X112723205Y-157678947D01*
X112681247Y-157650105D01*
X112631339Y-157636499D01*
X112564834Y-157632754D01*
X112542622Y-157632738D01*
X112392221Y-157649918D01*
X112255324Y-157698880D01*
X112136004Y-157778061D01*
X112115661Y-157796388D01*
X112070257Y-157841555D01*
X112045576Y-157876898D01*
X112035119Y-157916384D01*
X112032381Y-157973979D01*
X112032362Y-157975313D01*
X112022721Y-158058022D01*
X111994110Y-158113560D01*
X111942807Y-158147544D01*
X111911779Y-158157190D01*
X111875986Y-158161855D01*
X111863154Y-158147471D01*
X111862064Y-158131769D01*
X111870227Y-158093010D01*
X111890719Y-158040457D01*
X111900417Y-158020627D01*
X111925913Y-157957691D01*
X111929876Y-157898075D01*
X111926430Y-157870925D01*
X111926392Y-157798672D01*
X111944062Y-157702331D01*
X111977888Y-157588415D01*
X112019706Y-157479005D01*
X112039297Y-157421545D01*
X112058893Y-157340925D01*
X112079646Y-157232040D01*
X112091358Y-157162064D01*
X112105577Y-157105379D01*
X112125718Y-157050862D01*
X112144066Y-156990584D01*
X112151317Y-156930011D01*
X112156534Y-156871194D01*
X112169079Y-156819407D01*
X112169099Y-156819356D01*
X112177118Y-156771330D01*
X112177113Y-156695118D01*
X112171540Y-156621239D01*
X112138886Y-156458003D01*
X112076898Y-156306508D01*
X111988931Y-156174806D01*
X111982196Y-156166893D01*
X111947890Y-156129686D01*
X111917609Y-156108151D01*
X111879180Y-156097298D01*
X111820433Y-156092135D01*
X111796981Y-156090947D01*
X111721512Y-156089289D01*
X111664386Y-156095753D01*
X111618580Y-156114972D01*
X111577071Y-156151581D01*
X111532839Y-156210212D01*
X111478861Y-156295500D01*
X111473381Y-156304485D01*
X111421937Y-156390348D01*
X111383503Y-156460668D01*
X111355949Y-156523459D01*
X111337149Y-156586735D01*
X111324973Y-156658512D01*
X111317294Y-156746803D01*
X111311984Y-156859622D01*
X111309800Y-156920529D01*
X111301112Y-157095997D01*
X111288378Y-157235800D01*
X111271573Y-157340209D01*
X111266703Y-157360925D01*
X111245729Y-157445192D01*
X111224235Y-157534699D01*
X111210082Y-157595943D01*
X111192989Y-157662525D01*
X111174333Y-157720963D01*
X111162442Y-157749609D01*
X111144380Y-157796836D01*
X111138246Y-157830961D01*
X111132023Y-157879653D01*
X111117857Y-157940351D01*
X111099617Y-157999791D01*
X111081173Y-158044710D01*
X111071707Y-158059083D01*
X111052010Y-158063829D01*
X111018706Y-158047197D01*
X110966791Y-158006570D01*
X110959776Y-158000563D01*
X110857573Y-157926114D01*
X110763394Y-157885448D01*
X110711653Y-157877532D01*
X110678057Y-157864316D01*
X110632991Y-157831820D01*
X110602347Y-157803305D01*
X110524934Y-157742153D01*
X110446458Y-157716836D01*
X110367470Y-157727493D01*
X110343995Y-157737607D01*
X110288114Y-157755833D01*
X110241813Y-157748755D01*
X110151465Y-157732565D01*
X110063173Y-157751464D01*
X110046292Y-157759463D01*
X109998790Y-157773317D01*
X109930023Y-157780540D01*
X109851180Y-157781468D01*
X109773448Y-157776438D01*
X109708014Y-157765787D01*
X109666065Y-157749854D01*
X109663530Y-157747931D01*
X109624494Y-157731919D01*
X109560529Y-157723366D01*
X109529084Y-157722491D01*
X109445077Y-157730573D01*
X109385213Y-157758243D01*
X109340493Y-157810638D01*
X109325229Y-157838852D01*
X109302065Y-157871049D01*
X109267125Y-157881464D01*
X109239986Y-157880790D01*
X109137716Y-157883923D01*
X109054325Y-157911656D01*
X108988779Y-157958609D01*
X108919786Y-158020940D01*
X108854396Y-157941140D01*
X108815868Y-157889475D01*
X108798887Y-157850858D01*
X108798686Y-157813539D01*
X108799911Y-157806813D01*
X108797613Y-157738311D01*
X108781707Y-157693935D01*
X108761715Y-157643544D01*
X108752547Y-157600102D01*
X108752486Y-157597685D01*
X108744116Y-157554529D01*
X108725369Y-157508005D01*
X108705384Y-157451176D01*
X108698252Y-157399535D01*
X108689249Y-157341845D01*
X108669309Y-157288612D01*
X108649828Y-157226630D01*
X108641496Y-157139392D01*
X108641321Y-157116868D01*
X108637943Y-157047545D01*
X108628264Y-156966217D01*
X108614248Y-156883781D01*
X108597862Y-156811128D01*
X108581069Y-156759154D01*
X108574466Y-156746263D01*
X108568023Y-156719290D01*
X108563777Y-156668903D01*
X108562776Y-156626153D01*
X108556001Y-156543642D01*
X108535458Y-156493184D01*
X108533280Y-156490566D01*
X108514330Y-156452026D01*
X108500098Y-156391256D01*
X108495744Y-156354365D01*
X108475482Y-156259849D01*
X108433616Y-156179226D01*
X108375344Y-156120897D01*
X108339540Y-156101878D01*
X108298902Y-156093842D01*
X108234702Y-156089257D01*
X108159440Y-156088920D01*
X108143901Y-156089442D01*
X108066759Y-156093992D01*
X108015566Y-156101809D01*
X107980119Y-156115550D01*
X107950217Y-156137868D01*
X107947175Y-156140641D01*
X107892189Y-156209161D01*
X107851187Y-156294141D01*
X107831667Y-156379200D01*
X107831002Y-156394434D01*
X107822126Y-156453002D01*
X107800708Y-156516256D01*
X107795107Y-156528033D01*
X107775006Y-156590182D01*
X107762640Y-156674587D01*
X107758595Y-156768058D01*
X107763461Y-156857407D01*
X107777272Y-156927728D01*
X107788095Y-156976726D01*
X107797263Y-157043959D01*
X107801178Y-157090433D01*
X107808536Y-157173053D01*
X107820065Y-157257775D01*
X107834049Y-157335144D01*
X107848770Y-157395705D01*
X107862512Y-157430003D01*
X107862957Y-157430616D01*
X107877437Y-157460171D01*
X107894681Y-157508804D01*
X107899836Y-157526005D01*
X107919624Y-157578380D01*
X107942801Y-157617353D01*
X107949241Y-157623996D01*
X107989799Y-157678646D01*
X108018462Y-157762855D01*
X108033726Y-157871552D01*
X108035646Y-157915402D01*
X108038923Y-157990830D01*
X108046535Y-158040389D01*
X108060923Y-158074316D01*
X108078995Y-158097126D01*
X108107289Y-158142546D01*
X108130866Y-158207392D01*
X108138006Y-158238093D01*
X108166297Y-158328381D01*
X108210530Y-158391678D01*
X108248908Y-158437129D01*
X108263776Y-158466433D01*
X108256474Y-158475572D01*
X108228342Y-158460525D01*
X108196690Y-158433179D01*
X108148296Y-158392592D01*
X108101945Y-158362897D01*
X108083701Y-158355202D01*
X108040935Y-158334257D01*
X107993091Y-158299160D01*
X107984270Y-158291214D01*
X107936588Y-158254816D01*
X107888506Y-158230403D01*
X107880632Y-158228052D01*
X107836135Y-158203397D01*
X107796256Y-158159227D01*
X107794475Y-158156414D01*
X107771091Y-158109948D01*
X107769230Y-158071919D01*
X107777285Y-158045494D01*
X107788811Y-157966096D01*
X107765400Y-157883480D01*
X107707796Y-157800268D01*
X107707555Y-157800001D01*
X107621161Y-157726036D01*
X107527027Y-157684857D01*
X107429138Y-157677594D01*
X107348188Y-157698015D01*
X107293867Y-157712263D01*
X107249722Y-157714956D01*
X107179445Y-157724035D01*
X107099894Y-157757582D01*
X107022343Y-157810314D01*
X106996304Y-157833736D01*
X106932634Y-157920223D01*
X106898209Y-158024239D01*
X106895129Y-158139430D01*
X106895162Y-158139722D01*
X106900905Y-158175971D01*
X106912016Y-158207240D01*
X106933124Y-158239801D01*
X106968860Y-158279921D01*
X107023854Y-158333871D01*
X107072044Y-158379255D01*
X107138094Y-158439868D01*
X107196717Y-158491491D01*
X107241846Y-158528928D01*
X107267413Y-158546982D01*
X107268446Y-158547439D01*
X107301899Y-158569117D01*
X107331734Y-158597155D01*
X107363064Y-158625180D01*
X107385285Y-158635445D01*
X107408013Y-158647081D01*
X107446347Y-158677053D01*
X107477394Y-158705138D01*
X107536294Y-158752326D01*
X107602576Y-158792662D01*
X107631744Y-158805921D01*
X107696514Y-158838385D01*
X107757867Y-158881045D01*
X107771921Y-158893508D01*
X107811831Y-158942809D01*
X107819186Y-158988201D01*
X107794038Y-159037858D01*
X107773002Y-159062824D01*
X107748703Y-159105694D01*
X107729641Y-159169035D01*
X107724422Y-159198869D01*
X107714039Y-159258708D01*
X107701827Y-159306004D01*
X107694845Y-159322700D01*
X107687493Y-159349342D01*
X107678205Y-159404970D01*
X107667963Y-159482535D01*
X107657750Y-159574983D01*
X107653335Y-159620534D01*
X107643405Y-159727411D01*
X107633609Y-159832332D01*
X107624916Y-159924945D01*
X107618297Y-159994895D01*
X107616910Y-160009395D01*
X107609474Y-160128350D01*
X107607424Y-160264186D01*
X107610387Y-160405750D01*
X107617988Y-160541885D01*
X107629855Y-160661436D01*
X107641134Y-160732527D01*
X107658382Y-160830433D01*
X107674574Y-160940626D01*
X107686260Y-161039583D01*
X107686434Y-161041386D01*
X107701433Y-161132644D01*
X107729310Y-161245272D01*
X107766488Y-161368445D01*
X107809389Y-161491339D01*
X107854436Y-161603129D01*
X107898050Y-161692989D01*
X107906876Y-161708369D01*
X107951737Y-161774486D01*
X108001001Y-161832894D01*
X108046288Y-161874287D01*
X108067595Y-161886896D01*
X108097795Y-161905846D01*
X108141652Y-161941544D01*
X108193083Y-161987976D01*
X108246006Y-162039127D01*
X108294340Y-162088984D01*
X108332004Y-162131532D01*
X108352916Y-162160758D01*
X108354103Y-162170229D01*
X108328513Y-162174854D01*
X108273641Y-162177980D01*
X108196332Y-162179551D01*
X108103430Y-162179511D01*
X108001781Y-162177804D01*
X107898230Y-162174375D01*
X107889886Y-162174017D01*
X107836897Y-162176258D01*
X107795908Y-162193318D01*
X107750084Y-162232219D01*
X107749864Y-162232432D01*
X107686149Y-162294188D01*
X107630642Y-162241008D01*
X107586719Y-162206242D01*
X107540310Y-162190804D01*
X107487828Y-162187829D01*
X107415891Y-162195331D01*
X107368178Y-162216232D01*
X107366987Y-162217248D01*
X107330016Y-162235821D01*
X107272963Y-162250525D01*
X107237951Y-162255327D01*
X107165010Y-162270931D01*
X107104372Y-162300355D01*
X107064500Y-162338261D01*
X107053238Y-162371764D01*
X107039102Y-162393670D01*
X107029503Y-162395730D01*
X107003037Y-162407899D01*
X106965593Y-162438330D01*
X106952752Y-162451066D01*
X106927297Y-162480136D01*
X106911224Y-162509023D01*
X106901982Y-162547300D01*
X106897021Y-162604542D01*
X106894435Y-162670011D01*
X106895939Y-162791733D01*
X106911042Y-162899811D01*
X106942751Y-163006361D01*
X106994068Y-163123501D01*
X107019086Y-163172835D01*
X107055390Y-163251014D01*
X107085949Y-163332199D01*
X107104856Y-163400445D01*
X107106246Y-163408114D01*
X107126432Y-163505969D01*
X107153386Y-163581441D01*
X107192685Y-163648283D01*
X107216485Y-163679973D01*
X107247963Y-163721537D01*
X107267283Y-163750555D01*
X107270178Y-163757286D01*
X107254694Y-163767420D01*
X107217628Y-163778349D01*
X107174470Y-163793770D01*
X107115039Y-163822276D01*
X107061773Y-163852098D01*
X107007022Y-163883765D01*
X106964159Y-163906169D01*
X106943043Y-163914306D01*
X106919937Y-163926171D01*
X106878187Y-163957723D01*
X106824528Y-164002898D01*
X106765696Y-164055631D01*
X106708425Y-164109858D01*
X106659453Y-164159514D01*
X106625515Y-164198536D01*
X106621879Y-164203459D01*
X106577538Y-164255845D01*
X106521167Y-164309982D01*
X106497359Y-164329529D01*
X106449790Y-164372490D01*
X106392381Y-164433625D01*
X106335840Y-164501359D01*
X106323448Y-164517499D01*
X106274728Y-164579590D01*
X106209428Y-164659147D01*
X106135302Y-164746896D01*
X106060105Y-164833561D01*
X106043206Y-164852668D01*
X105979592Y-164925622D01*
X105925578Y-164990107D01*
X105885358Y-165040912D01*
X105863129Y-165072825D01*
X105860071Y-165080140D01*
X105846982Y-165102833D01*
X105813537Y-165137412D01*
X105787758Y-165159535D01*
X105746349Y-165196963D01*
X105720184Y-165228594D01*
X105715445Y-165240530D01*
X105703304Y-165266653D01*
X105673069Y-165303522D01*
X105662088Y-165314532D01*
X105624267Y-165360817D01*
X105599601Y-165409211D01*
X105597423Y-165417138D01*
X105583902Y-165457819D01*
X105569243Y-165479052D01*
X105553951Y-165496808D01*
X105523499Y-165537914D01*
X105482600Y-165595516D01*
X105435967Y-165662759D01*
X105388314Y-165732789D01*
X105344354Y-165798750D01*
X105308800Y-165853789D01*
X105288098Y-165887939D01*
X105258386Y-165923524D01*
X105215832Y-165957967D01*
X105215785Y-165957997D01*
X105169047Y-165989981D01*
X105112643Y-166030667D01*
X105091744Y-166046263D01*
X105032941Y-166089718D01*
X104973045Y-166132539D01*
X104956157Y-166144255D01*
X104900516Y-166188237D01*
X104848197Y-166238402D01*
X104843028Y-166244127D01*
X104808426Y-166279386D01*
X104782273Y-166299121D01*
X104777275Y-166300641D01*
X104760130Y-166313701D01*
X104725048Y-166349300D01*
X104677074Y-166402060D01*
X104621252Y-166466609D01*
X104618986Y-166469290D01*
X104562435Y-166533549D01*
X104512547Y-166585219D01*
X104474589Y-166619182D01*
X104453827Y-166630319D01*
X104453411Y-166630212D01*
X104414583Y-166629662D01*
X104355427Y-166641895D01*
X104287677Y-166662985D01*
X104223068Y-166689003D01*
X104173335Y-166716024D01*
X104157038Y-166729391D01*
X104133980Y-166759879D01*
X104121292Y-166796817D01*
X104116151Y-166851612D01*
X104115516Y-166897224D01*
X103557608Y-166897224D01*
X103557313Y-166895975D01*
X103598539Y-166720336D01*
X103652136Y-166554453D01*
X103728539Y-166416584D01*
X103827877Y-166306584D01*
X103950277Y-166224307D01*
X104077572Y-166174604D01*
X104155635Y-166147770D01*
X104209216Y-166116801D01*
X104245769Y-166080422D01*
X104325247Y-165992582D01*
X104429336Y-165893186D01*
X104551148Y-165788429D01*
X104683795Y-165684506D01*
X104696381Y-165675145D01*
X104779362Y-165612032D01*
X104841496Y-165559121D01*
X104892110Y-165506701D01*
X104940533Y-165445056D01*
X104996093Y-165364473D01*
X104999193Y-165359822D01*
X105045799Y-165288499D01*
X105083923Y-165227638D01*
X105109598Y-165183748D01*
X105118861Y-165163424D01*
X105130610Y-165135102D01*
X105164242Y-165083082D01*
X105217333Y-165010430D01*
X105287462Y-164920218D01*
X105372205Y-164815513D01*
X105469140Y-164699385D01*
X105575843Y-164574903D01*
X105653414Y-164486291D01*
X105724266Y-164404725D01*
X105799286Y-164316206D01*
X105867909Y-164233299D01*
X105905951Y-164186002D01*
X105963060Y-164117976D01*
X106039225Y-164033342D01*
X106127913Y-163938792D01*
X106222590Y-163841017D01*
X106316722Y-163746709D01*
X106403776Y-163662561D01*
X106477218Y-163595263D01*
X106509650Y-163567686D01*
X106589764Y-163502468D01*
X106524609Y-163378458D01*
X106483208Y-163285346D01*
X106443053Y-163169743D01*
X106406973Y-163042687D01*
X106377798Y-162915216D01*
X106358357Y-162798368D01*
X106351478Y-162703181D01*
X106351479Y-162703061D01*
X106356417Y-162629780D01*
X106369077Y-162538329D01*
X106387030Y-162445238D01*
X106393166Y-162419132D01*
X106423610Y-162315277D01*
X106461966Y-162227463D01*
X106514112Y-162146175D01*
X106585925Y-162061901D01*
X106659771Y-161987591D01*
X106726568Y-161924442D01*
X106783583Y-161875396D01*
X106837760Y-161837002D01*
X106896041Y-161805807D01*
X106965370Y-161778356D01*
X107052689Y-161751198D01*
X107164942Y-161720879D01*
X107229502Y-161704244D01*
X107279704Y-161689828D01*
X107301141Y-161673345D01*
X107298896Y-161644064D01*
X107280393Y-161596848D01*
X107256031Y-161527663D01*
X107228957Y-161433334D01*
X107201673Y-161324493D01*
X107176678Y-161211777D01*
X107156471Y-161105818D01*
X107143554Y-161017250D01*
X107143067Y-161012740D01*
X107131601Y-160920419D01*
X107115888Y-160814899D01*
X107099238Y-160718337D01*
X107098499Y-160714449D01*
X107075801Y-160550670D01*
X107066337Y-160364172D01*
X107070130Y-160151996D01*
X107087206Y-159911181D01*
X107106460Y-159729182D01*
X107115484Y-159645888D01*
X107122233Y-159570581D01*
X107125799Y-159514125D01*
X107126063Y-159494661D01*
X107129362Y-159450203D01*
X107139644Y-159384740D01*
X107154703Y-159312239D01*
X107155139Y-159310384D01*
X107169167Y-159248807D01*
X107174769Y-159203602D01*
X107168214Y-159167775D01*
X107145770Y-159134331D01*
X107103707Y-159096276D01*
X107038293Y-159046615D01*
X106999004Y-159017704D01*
X106913448Y-158951121D01*
X106820092Y-158872413D01*
X106725602Y-158787803D01*
X106636649Y-158703515D01*
X106559900Y-158625773D01*
X106502024Y-158560801D01*
X106483009Y-158536123D01*
X106444723Y-158467328D01*
X106410354Y-158372275D01*
X106384609Y-158275013D01*
X106341208Y-158091162D01*
X106391837Y-157883575D01*
X106417180Y-157785617D01*
X106440378Y-157713020D01*
X106465639Y-157655549D01*
X106497171Y-157602970D01*
X106521045Y-157569248D01*
X106603667Y-157472821D01*
X106702266Y-157382244D01*
X106804418Y-157308310D01*
X106853125Y-157280864D01*
X106900074Y-157261965D01*
X106970028Y-157239203D01*
X107050675Y-157216466D01*
X107082924Y-157208310D01*
X107160557Y-157188625D01*
X107209919Y-157173035D01*
X107238060Y-157157906D01*
X107252031Y-157139606D01*
X107258204Y-157117985D01*
X107259701Y-157072932D01*
X107253037Y-157009379D01*
X107244018Y-156961341D01*
X107227358Y-156870760D01*
X107220653Y-156782727D01*
X107224503Y-156689422D01*
X107239508Y-156583026D01*
X107266267Y-156455720D01*
X107290370Y-156357580D01*
X107321510Y-156236559D01*
X107346378Y-156144301D01*
X107367420Y-156074481D01*
X107387082Y-156020771D01*
X107407810Y-155976846D01*
X107432050Y-155936379D01*
X107462248Y-155893044D01*
X107478662Y-155870611D01*
X107572017Y-155762348D01*
X107675661Y-155681286D01*
X107798331Y-155621664D01*
X107908185Y-155587527D01*
X108041471Y-155558659D01*
X108157897Y-155547356D01*
X108272206Y-155553616D01*
X108272206Y-155553616D01*
G37*
X108272206Y-155553616D02*
X108399142Y-155577440D01*
X108440000Y-155587527D01*
X108577392Y-155632332D01*
X108689237Y-155692314D01*
X108785084Y-155773945D01*
X108872250Y-155880565D01*
X108904136Y-155927465D01*
X108930036Y-155972581D01*
X108952734Y-156023076D01*
X108975013Y-156086109D01*
X108999655Y-156168841D01*
X109029446Y-156278432D01*
X109034908Y-156299060D01*
X109060745Y-156400190D01*
X109082209Y-156490674D01*
X109097913Y-156564119D01*
X109106471Y-156614131D01*
X109107278Y-156632821D01*
X109108337Y-156662930D01*
X109117314Y-156718739D01*
X109132565Y-156791078D01*
X109144506Y-156840429D01*
X109162797Y-156920795D01*
X109175386Y-156992778D01*
X109180670Y-157046170D01*
X109179726Y-157064750D01*
X109178206Y-157104440D01*
X109184019Y-157154629D01*
X109194596Y-157202643D01*
X109207367Y-157235810D01*
X109215952Y-157243417D01*
X109236754Y-157239199D01*
X109283756Y-157227960D01*
X109348179Y-157211823D01*
X109373287Y-157205392D01*
X109520925Y-157167368D01*
X109697995Y-157208843D01*
X109781431Y-157227643D01*
X109840944Y-157238025D01*
X109887622Y-157240593D01*
X109932556Y-157235951D01*
X109986835Y-157224705D01*
X109987247Y-157224611D01*
X110067242Y-157210868D01*
X110151756Y-157203278D01*
X110197938Y-157202810D01*
X110269058Y-157201589D01*
X110337652Y-157194052D01*
X110364138Y-157188489D01*
X110407657Y-157180991D01*
X110457723Y-157182641D01*
X110524567Y-157194391D01*
X110587154Y-157209218D01*
X110657080Y-157225768D01*
X110712498Y-157237026D01*
X110745045Y-157241377D01*
X110749984Y-157240668D01*
X110753398Y-157221030D01*
X110757638Y-157173030D01*
X110762299Y-157104444D01*
X110766979Y-157023045D01*
X110771272Y-156936607D01*
X110774775Y-156852906D01*
X110777084Y-156779715D01*
X110777795Y-156724810D01*
X110777554Y-156710107D01*
X110781444Y-156662251D01*
X110793505Y-156592271D01*
X110811167Y-156510810D01*
X110831857Y-156428508D01*
X110853004Y-156356006D01*
X110872038Y-156303945D01*
X110878975Y-156290423D01*
X110898183Y-156250232D01*
X110903915Y-156224689D01*
X110909174Y-156205560D01*
X110926233Y-156171481D01*
X110957015Y-156119280D01*
X111003441Y-156045787D01*
X111067434Y-155947831D01*
X111117893Y-155871743D01*
X111205030Y-155764232D01*
X111308817Y-155681864D01*
X111435452Y-155620476D01*
X111540627Y-155587856D01*
X111642611Y-155563424D01*
X111723037Y-155550217D01*
X111794717Y-155548225D01*
X111870461Y-155557439D01*
X111963080Y-155577850D01*
X112001423Y-155587527D01*
X112113502Y-155621277D01*
X112200171Y-155659646D01*
X112257789Y-155696256D01*
X112328771Y-155759422D01*
X112405869Y-155846476D01*
X112481572Y-155947816D01*
X112548365Y-156053842D01*
X112572304Y-156098149D01*
X112607669Y-156182105D01*
X112642336Y-156289739D01*
X112673219Y-156408654D01*
X112697230Y-156526450D01*
X112711284Y-156630729D01*
X112713395Y-156664911D01*
X112712363Y-156739110D01*
X112705987Y-156827369D01*
X112695672Y-156917852D01*
X112682828Y-156998720D01*
X112668861Y-157058137D01*
X112665474Y-157067954D01*
X112667190Y-157089177D01*
X112695451Y-157105871D01*
X112728311Y-157115765D01*
X112795693Y-157133315D01*
X112862868Y-157150874D01*
X112869929Y-157152724D01*
X112960845Y-157192561D01*
X113054409Y-157262020D01*
X113146021Y-157355300D01*
X113231085Y-157466599D01*
X113305002Y-157590116D01*
X113363176Y-157720050D01*
X113392017Y-157811515D01*
X113416997Y-157918239D01*
X113429704Y-158004935D01*
X113430111Y-158084801D01*
X113418194Y-158171033D01*
X113393925Y-158276828D01*
X113391076Y-158287985D01*
X113344415Y-158428960D01*
X113280882Y-158544067D01*
X113194387Y-158641950D01*
X113078841Y-158731254D01*
X113078758Y-158731309D01*
X112978694Y-158802858D01*
X112866826Y-158891109D01*
X112755704Y-158986045D01*
X112725477Y-159013334D01*
X112721334Y-159037075D01*
X112728440Y-159079641D01*
X112730830Y-159088131D01*
X112746048Y-159153610D01*
X112760972Y-159242497D01*
X112774016Y-159342068D01*
X112783594Y-159439599D01*
X112788121Y-159522364D01*
X112788165Y-159548399D01*
X112791199Y-159615462D01*
X112801088Y-159697496D01*
X112812683Y-159761825D01*
X112824746Y-159825051D01*
X112831214Y-159874038D01*
X112830741Y-159898489D01*
X112830587Y-159898766D01*
X112830259Y-159922417D01*
X112838154Y-159969632D01*
X112849498Y-160018002D01*
X112863439Y-160078076D01*
X112867802Y-160125760D01*
X112862372Y-160176577D01*
X112846929Y-160246049D01*
X112846264Y-160248769D01*
X112823162Y-160410628D01*
X112824930Y-160491387D01*
X112825459Y-160597049D01*
X112811715Y-160693942D01*
X112809681Y-160702031D01*
X112797101Y-160769373D01*
X112793190Y-160834073D01*
X112795106Y-160858921D01*
X112794921Y-160914963D01*
X112782795Y-160996523D01*
X112760763Y-161095771D01*
X112730862Y-161204881D01*
X112695127Y-161316023D01*
X112655595Y-161421369D01*
X112638146Y-161462461D01*
X112607836Y-161531446D01*
X112583972Y-161586731D01*
X112569728Y-161620910D01*
X112567117Y-161628228D01*
X112582413Y-161627477D01*
X112620123Y-161618834D01*
X112629246Y-161616372D01*
X112678426Y-161613220D01*
X112752848Y-161620963D01*
X112844029Y-161637462D01*
X112943487Y-161660579D01*
X113042739Y-161688175D01*
X113133302Y-161718111D01*
X113206692Y-161748247D01*
X113249822Y-161772853D01*
X113374665Y-161875098D01*
X113469509Y-161977447D01*
X113539739Y-162087430D01*
X113590742Y-162212580D01*
X113608494Y-162274449D01*
X113639381Y-162403364D01*
X113657901Y-162509324D01*
X113664194Y-162603294D01*
X113658400Y-162696245D01*
X113640657Y-162799145D01*
X113616463Y-162901922D01*
X113582131Y-163026508D01*
X113548856Y-163121903D01*
X113514124Y-163194896D01*
X113498394Y-163220662D01*
X113437360Y-163313424D01*
X113534783Y-163380521D01*
X113599191Y-163431397D01*
X113668348Y-163495962D01*
X113718227Y-163549895D01*
X113770370Y-163610054D01*
X113836482Y-163683751D01*
X113905362Y-163758568D01*
X113932820Y-163787758D01*
X113998359Y-163859500D01*
X114072383Y-163944778D01*
X114149220Y-164036608D01*
X114223192Y-164128004D01*
X114288626Y-164211983D01*
X114339846Y-164281557D01*
X114366118Y-164321068D01*
X114509137Y-164540567D01*
X114641601Y-164723573D01*
X114688787Y-164788706D01*
X114726305Y-164845316D01*
X114749454Y-164886018D01*
X114754591Y-164901031D01*
X114764156Y-164927166D01*
X114789891Y-164975100D01*
X114827354Y-165036926D01*
X114854021Y-165078016D01*
X114896460Y-165144497D01*
X114929871Y-165201979D01*
X114949807Y-165242524D01*
X114953452Y-165255524D01*
X114969382Y-165298952D01*
X115013256Y-165350252D01*
X115079197Y-165404509D01*
X115161327Y-165456806D01*
X115242705Y-165497470D01*
X115420180Y-165581634D01*
X115580683Y-165672710D01*
X115741535Y-165780722D01*
X115778048Y-165807280D01*
X115849076Y-165856733D01*
X115916780Y-165898957D01*
X115971572Y-165928201D01*
X115994889Y-165937302D01*
X116069364Y-165970191D01*
X116151678Y-166026310D01*
X116231735Y-166097491D01*
X116299441Y-166175568D01*
X116312746Y-166194448D01*
X116360511Y-166281279D01*
X116399315Y-166388661D01*
X116418578Y-166461386D01*
X116459262Y-166631171D01*
X116416341Y-166812985D01*
X116391830Y-166907858D01*
X116367249Y-166978914D01*
X116337570Y-167038150D01*
X116297766Y-167097564D01*
X116296198Y-167099699D01*
X116190717Y-167217768D01*
X116067763Y-167312344D01*
X115934766Y-167378139D01*
X115881132Y-167395028D01*
X115811737Y-167414678D01*
X115750597Y-167434402D01*
X115712740Y-167449160D01*
X115668691Y-167465961D01*
X115607111Y-167484436D01*
X115572675Y-167493175D01*
X115519956Y-167509850D01*
X115492090Y-167527120D01*
X115492030Y-167541095D01*
X115522728Y-167547883D01*
X115531035Y-167548043D01*
X115570130Y-167560585D01*
X115625526Y-167594127D01*
X115689617Y-167642541D01*
X115754799Y-167699701D01*
X115813468Y-167759480D01*
X115851379Y-167806148D01*
X115890735Y-167867977D01*
X115921218Y-167934562D01*
X115947616Y-168017708D01*
X115964665Y-168085430D01*
X116007304Y-168266054D01*
X115966621Y-168435838D01*
X115922381Y-168579780D01*
X115861467Y-168700587D01*
X115777006Y-168809928D01*
X115702988Y-168883343D01*
X115537410Y-169014202D01*
X115362068Y-169111881D01*
X115172168Y-169179011D01*
X115157882Y-169182717D01*
X115055535Y-169207375D01*
X114976163Y-169221720D01*
X114908111Y-169225829D01*
X114839724Y-169219782D01*
X114759346Y-169203654D01*
X114687545Y-169185854D01*
X114579210Y-169153520D01*
X114495020Y-169116973D01*
X114427381Y-169074337D01*
X114371099Y-169026504D01*
X114312454Y-168966044D01*
X114257574Y-168900673D01*
X114212586Y-168838105D01*
X114183618Y-168786055D01*
X114176085Y-168757951D01*
X114162052Y-168727989D01*
X114126710Y-168692106D01*
X114108684Y-168678635D01*
X114041283Y-168632835D01*
X114018146Y-168734709D01*
X114005914Y-168801941D01*
X114006696Y-168843125D01*
X114014993Y-168860662D01*
X114029805Y-168891236D01*
X114048764Y-168947844D01*
X114069467Y-169020961D01*
X114089510Y-169101060D01*
X114106491Y-169178618D01*
X114118005Y-169244110D01*
X114121703Y-169283559D01*
X114126908Y-169339714D01*
X114139397Y-169408429D01*
X114146502Y-169437784D01*
X114157816Y-169505392D01*
X114163935Y-169595173D01*
X114164928Y-169694523D01*
X114160862Y-169790838D01*
X114151805Y-169871516D01*
X114143977Y-169907260D01*
X114138350Y-169961139D01*
X114148293Y-170037068D01*
X114159956Y-170088043D01*
X114176257Y-170165986D01*
X114187146Y-170243724D01*
X114190167Y-170298527D01*
X114201326Y-170389503D01*
X114224708Y-170452193D01*
X114250306Y-170511887D01*
X114274572Y-170585063D01*
X114284145Y-170621352D01*
X114299990Y-170680265D01*
X114316029Y-170725970D01*
X114324838Y-170742833D01*
X114336750Y-170769190D01*
X114354270Y-170821688D01*
X114374518Y-170891318D01*
X114385516Y-170932655D01*
X114405871Y-171016196D01*
X114416600Y-171076282D01*
X114418675Y-171124026D01*
X114413064Y-171170543D01*
X114408318Y-171193909D01*
X114398262Y-171256122D01*
X114399277Y-171313542D01*
X114412133Y-171383071D01*
X114418037Y-171407324D01*
X114431959Y-171469599D01*
X114439568Y-171517858D01*
X114439228Y-171541714D01*
X114439196Y-171541767D01*
X114437911Y-171567313D01*
X114446539Y-171610832D01*
X114448475Y-171617604D01*
X114466929Y-171698097D01*
X114483959Y-171807751D01*
X114498816Y-171939577D01*
X114510752Y-172086587D01*
X114519021Y-172241791D01*
X114520816Y-172293594D01*
X114519534Y-172390678D01*
X114508858Y-172492826D01*
X114487352Y-172611208D01*
X114469904Y-172689352D01*
X114450052Y-172775584D01*
X114438040Y-172836839D01*
X114433405Y-172883329D01*
X114435688Y-172925265D01*
X114444424Y-172972862D01*
X114455006Y-173018724D01*
X114468695Y-173084863D01*
X114476134Y-173137745D01*
X114475967Y-173167268D01*
X114475204Y-173169054D01*
X114474253Y-173193888D01*
X114481558Y-173243913D01*
X114495604Y-173309506D01*
X114500206Y-173328047D01*
X114517737Y-173399252D01*
X114526262Y-173449525D01*
X114525826Y-173492940D01*
X114516474Y-173543571D01*
X114501100Y-173604522D01*
X114476821Y-173713194D01*
X114467139Y-173803775D01*
X114471288Y-173890903D01*
X114482451Y-173959938D01*
X114494193Y-174020163D01*
X114509741Y-174100389D01*
X114526093Y-174185109D01*
X114529123Y-174200854D01*
X114546790Y-174289961D01*
X114566002Y-174382629D01*
X114582931Y-174460436D01*
X114584670Y-174468083D01*
X114598405Y-174537549D01*
X114601220Y-174591094D01*
X114592933Y-174647321D01*
X114582529Y-174690194D01*
X114569263Y-174749760D01*
X114563050Y-174795511D01*
X114564557Y-174815173D01*
X114566078Y-174840154D01*
X114560029Y-174889129D01*
X114548977Y-174945589D01*
X114506346Y-175148159D01*
X114469836Y-175348544D01*
X114465342Y-175375943D01*
X114452611Y-175448062D01*
X114435831Y-175534460D01*
X114421742Y-175601922D01*
X114406601Y-175688147D01*
X114404757Y-175752689D01*
X114412141Y-175795371D01*
X114418032Y-175827905D01*
X114418063Y-175866615D01*
X114411263Y-175918154D01*
X114396661Y-175989174D01*
X114373283Y-176086325D01*
X114364612Y-176120780D01*
X114332984Y-176249653D01*
X114311107Y-176350146D01*
X114298198Y-176428469D01*
X114293474Y-176490831D01*
X114296153Y-176543440D01*
X114305268Y-176591763D01*
X114311004Y-176628593D01*
X114309739Y-176672615D01*
X114300423Y-176731374D01*
X114282006Y-176812413D01*
X114265536Y-176877232D01*
X114244629Y-176962941D01*
X114229007Y-177037506D01*
X114220124Y-177093159D01*
X114219433Y-177122131D01*
X114219634Y-177122724D01*
X114220093Y-177152301D01*
X114212274Y-177206692D01*
X114198388Y-177276109D01*
X114180647Y-177350764D01*
X114161266Y-177420870D01*
X114142456Y-177476640D01*
X114136351Y-177491103D01*
X114122044Y-177529235D01*
X114118889Y-177550438D01*
X114116127Y-177573022D01*
X114105970Y-177622221D01*
X114090224Y-177689685D01*
X114078979Y-177734936D01*
X114026943Y-177889270D01*
X113956762Y-178015840D01*
X113869780Y-178112301D01*
X113857013Y-178122739D01*
X113821916Y-178156197D01*
X113781671Y-178202748D01*
X113743882Y-178252431D01*
X113716152Y-178295281D01*
X113706050Y-178320559D01*
X113694949Y-178343579D01*
X113664188Y-178389048D01*
X113617574Y-178451913D01*
X113558917Y-178527119D01*
X113492027Y-178609614D01*
X113452355Y-178657153D01*
X113391643Y-178729838D01*
X113324063Y-178811795D01*
X113270324Y-178877783D01*
X113217651Y-178935666D01*
X113153561Y-178995277D01*
X113085507Y-179050865D01*
X113020940Y-179096681D01*
X112967311Y-179126975D01*
X112935420Y-179136228D01*
X112919569Y-179139862D01*
X112894927Y-179152639D01*
X112857424Y-179177373D01*
X112802992Y-179216877D01*
X112727561Y-179273963D01*
X112651704Y-179332371D01*
X112593275Y-179373748D01*
X112535305Y-179404467D01*
X112465684Y-179429862D01*
X112373267Y-179455028D01*
X112264952Y-179483430D01*
X112186567Y-179508579D01*
X112132509Y-179533904D01*
X112097174Y-179562832D01*
X112074958Y-179598792D01*
X112060258Y-179645210D01*
X112059896Y-179646709D01*
X112026281Y-179733323D01*
X111968584Y-179827346D01*
X111894303Y-179918580D01*
X111810936Y-179996826D01*
X111791494Y-180011746D01*
X111726272Y-180053191D01*
X111651453Y-180086401D01*
X111555478Y-180116233D01*
X111522291Y-180124882D01*
X111431459Y-180151380D01*
X111339583Y-180184072D01*
X111261881Y-180217354D01*
X111238363Y-180229473D01*
X111170841Y-180260142D01*
X111075499Y-180294089D01*
X110960268Y-180329186D01*
X110833078Y-180363302D01*
X110701861Y-180394308D01*
X110574546Y-180420075D01*
X110460996Y-180438218D01*
X110384698Y-180448327D01*
X110315659Y-180457524D01*
X110267116Y-180464045D01*
X110262135Y-180464722D01*
X110212134Y-180464504D01*
X110147649Y-180455479D01*
X110117509Y-180448694D01*
X110059553Y-180434217D01*
X109979527Y-180414930D01*
X109890627Y-180393993D01*
X109846334Y-180383747D01*
X109754887Y-180361995D01*
X109683227Y-180342354D01*
X109618028Y-180320359D01*
X109545965Y-180291542D01*
X109460362Y-180254377D01*
X109406608Y-180235640D01*
X109361867Y-180228530D01*
X109348908Y-180230051D01*
X109318059Y-180230207D01*
X109261661Y-180222180D01*
X109188994Y-180207492D01*
X109140336Y-180195835D01*
X109023936Y-180161525D01*
X108932319Y-180122803D01*
X108864262Y-180082116D01*
X108798936Y-180028903D01*
X108732611Y-179961157D01*
X108672338Y-179887627D01*
X108625163Y-179817064D01*
X108598135Y-179758217D01*
X108595819Y-179748883D01*
X108590082Y-179728927D01*
X108578238Y-179713246D01*
X108554603Y-179699450D01*
X108513495Y-179685154D01*
X108449231Y-179667970D01*
X108356129Y-179645511D01*
X108341490Y-179642051D01*
X108162972Y-179593413D01*
X108013497Y-179537811D01*
X107886182Y-179472341D01*
X107798305Y-179412916D01*
X107737467Y-179371371D01*
X107671916Y-179332769D01*
X107658974Y-179326050D01*
X107611450Y-179295621D01*
X107551104Y-179247851D01*
X107489540Y-179192059D01*
X107478192Y-179180848D01*
X107414092Y-179119792D01*
X107345793Y-179059949D01*
X107286936Y-179013213D01*
X107281231Y-179009105D01*
X107233558Y-178968342D01*
X107173529Y-178906952D01*
X107109534Y-178833918D01*
X107062274Y-178774662D01*
X106992803Y-178686098D01*
X106913082Y-178588785D01*
X106835335Y-178497488D01*
X106796284Y-178453461D01*
X106736993Y-178385335D01*
X106683792Y-178319365D01*
X106643595Y-178264390D01*
X106626558Y-178236521D01*
X106592185Y-178175569D01*
X106553881Y-178116460D01*
X106549938Y-178110963D01*
X106518992Y-178053040D01*
X106487406Y-177966163D01*
X106457280Y-177857429D01*
X106430716Y-177733938D01*
X106419910Y-177671886D01*
X106391106Y-177561205D01*
X106345151Y-177475874D01*
X106307640Y-177408210D01*
X106272516Y-177318803D01*
X106242895Y-177219185D01*
X106221893Y-177120894D01*
X106212626Y-177035462D01*
X106214422Y-176991936D01*
X106215341Y-176935888D01*
X106204961Y-176855050D01*
X106182730Y-176745714D01*
X106168741Y-176686350D01*
X106148436Y-176597281D01*
X106133062Y-176518795D01*
X106123956Y-176458619D01*
X106122456Y-176424480D01*
X106122999Y-176421986D01*
X106118637Y-176383059D01*
X106089297Y-176331025D01*
X106085406Y-176325817D01*
X106044478Y-176252035D01*
X106010197Y-176151791D01*
X105983856Y-176034381D01*
X105966747Y-175909100D01*
X105960162Y-175785244D01*
X105965395Y-175672109D01*
X105982243Y-175583844D01*
X105987766Y-175508298D01*
X105966063Y-175419790D01*
X105919315Y-175326396D01*
X105908157Y-175309317D01*
X105884669Y-175264931D01*
X105858590Y-175200409D01*
X105832427Y-175124294D01*
X105808690Y-175045129D01*
X105789885Y-174971454D01*
X105778520Y-174911812D01*
X105777105Y-174874746D01*
X105778976Y-174869335D01*
X105781154Y-174842641D01*
X105773921Y-174796491D01*
X105769860Y-174780028D01*
X105759811Y-174717361D01*
X105766100Y-174650675D01*
X105774911Y-174612386D01*
X105787700Y-174533072D01*
X105793096Y-174432847D01*
X105791236Y-174326161D01*
X105782261Y-174227467D01*
X105770599Y-174166046D01*
X105762136Y-174114813D01*
X105756264Y-174043147D01*
X105754273Y-173968236D01*
X105751124Y-173799014D01*
X105741004Y-173630269D01*
X105724844Y-173472534D01*
X105703576Y-173336341D01*
X105694642Y-173293705D01*
X105676853Y-173207734D01*
X105669333Y-173145967D01*
X105671307Y-173098177D01*
X105677584Y-173068780D01*
X105685709Y-173023815D01*
X105684060Y-172973428D01*
X105671700Y-172906371D01*
X105660102Y-172858720D01*
X105641542Y-172778113D01*
X105634159Y-172720431D01*
X105637029Y-172674528D01*
X105642784Y-172649766D01*
X105667819Y-172541070D01*
X105682737Y-172432595D01*
X105686536Y-172335435D01*
X105678217Y-172260683D01*
X105677971Y-172259696D01*
X105667979Y-172195290D01*
X105673657Y-172129011D01*
X105683814Y-172084260D01*
X105697921Y-172017618D01*
X105698949Y-171963174D01*
X105686920Y-171899561D01*
X105684001Y-171887948D01*
X105672656Y-171837568D01*
X105668534Y-171794204D01*
X105672214Y-171746422D01*
X105684276Y-171682784D01*
X105697281Y-171625813D01*
X105735528Y-171461382D01*
X105765681Y-171328274D01*
X105788493Y-171222756D01*
X105804718Y-171141095D01*
X105815110Y-171079557D01*
X105820421Y-171034408D01*
X105821521Y-171010036D01*
X105827316Y-170829505D01*
X105842759Y-170665091D01*
X105867025Y-170521353D01*
X105899288Y-170402854D01*
X105938723Y-170314152D01*
X105950941Y-170295271D01*
X105975391Y-170255684D01*
X105983040Y-170220304D01*
X105976451Y-170172197D01*
X105972350Y-170153908D01*
X105962627Y-170090233D01*
X105966284Y-170026595D01*
X105980105Y-169960471D01*
X105993121Y-169902742D01*
X105997915Y-169857039D01*
X105993983Y-169809997D01*
X105980826Y-169748255D01*
X105970621Y-169707653D01*
X105933904Y-169564328D01*
X105979554Y-169383267D01*
X106001526Y-169302379D01*
X106023785Y-169230949D01*
X106043129Y-169178784D01*
X106052351Y-169160268D01*
X106065542Y-169134865D01*
X106069922Y-169106129D01*
X106065251Y-169064083D01*
X106051290Y-168998753D01*
X106048156Y-168985379D01*
X106016813Y-168852428D01*
X105955229Y-168894276D01*
X105908132Y-168937679D01*
X105865477Y-168995132D01*
X105855419Y-169013384D01*
X105811319Y-169082441D01*
X105746119Y-169160454D01*
X105669543Y-169237477D01*
X105591313Y-169303564D01*
X105534662Y-169341540D01*
X105479544Y-169366837D01*
X105402511Y-169394596D01*
X105317088Y-169420119D01*
X105284811Y-169428358D01*
X105189260Y-169448384D01*
X105100968Y-169459007D01*
X105011891Y-169459786D01*
X104913985Y-169450280D01*
X104799206Y-169430048D01*
X104659509Y-169398648D01*
X104634906Y-169392704D01*
X104532211Y-169366759D01*
X104456285Y-169344538D01*
X104398451Y-169322620D01*
X104350036Y-169297585D01*
X104302362Y-169266011D01*
X104289060Y-169256340D01*
X104187719Y-169170461D01*
X104109670Y-169076231D01*
X104049733Y-168965417D01*
X104002728Y-168829788D01*
X103989802Y-168780729D01*
X103941342Y-168585393D01*
X103985622Y-168411010D01*
X104027319Y-168277865D01*
X104081257Y-168170047D01*
X104154431Y-168077109D01*
X104253839Y-167988605D01*
X104283759Y-167965836D01*
X104387976Y-167886683D01*
X104462733Y-167825642D01*
X104509196Y-167781608D01*
X104528532Y-167753479D01*
X104522278Y-167740274D01*
X104495347Y-167732754D01*
X104440590Y-167718816D01*
X104365382Y-167700296D01*
X104277098Y-167679029D01*
X104254996Y-167673770D01*
X104147413Y-167646944D01*
X104066421Y-167623034D01*
X104003005Y-167598680D01*
X103948146Y-167570522D01*
X103904750Y-167543258D01*
X103797455Y-167458874D01*
X103715402Y-167363112D01*
X103653736Y-167248586D01*
X103607605Y-167107910D01*
X103600985Y-167080974D01*
X103557608Y-166897224D01*
X104115516Y-166897224D01*
X104117910Y-166966254D01*
X104128142Y-167019587D01*
X104150783Y-167061035D01*
X104190406Y-167094409D01*
X104251583Y-167123521D01*
X104338888Y-167152182D01*
X104456891Y-167184204D01*
X104461101Y-167185294D01*
X104582362Y-167204284D01*
X104689001Y-167196448D01*
X104777505Y-167163510D01*
X104844359Y-167107191D01*
X104886050Y-167029216D01*
X104897675Y-166971216D01*
X104915363Y-166890346D01*
X104952889Y-166837571D01*
X105014708Y-166808722D01*
X105080344Y-166800248D01*
X105149793Y-166791218D01*
X105199831Y-166768138D01*
X105222555Y-166749515D01*
X105271304Y-166714240D01*
X105322278Y-166691319D01*
X105325778Y-166690421D01*
X105373482Y-166670247D01*
X105426278Y-166635649D01*
X105439396Y-166624818D01*
X105481046Y-166592397D01*
X105514264Y-166573659D01*
X105522229Y-166571815D01*
X105552801Y-166562118D01*
X105586113Y-166542805D01*
X105629003Y-166524775D01*
X105689244Y-166512913D01*
X105716679Y-166510824D01*
X105804214Y-166492162D01*
X105871659Y-166445100D01*
X105914789Y-166373413D01*
X105926875Y-166322975D01*
X105950080Y-166250321D01*
X105997848Y-166190049D01*
X106034249Y-166150219D01*
X106056108Y-166117521D01*
X106058932Y-166107901D01*
X106070089Y-166081156D01*
X106098131Y-166041108D01*
X106111935Y-166024592D01*
X106147936Y-165976628D01*
X106172834Y-165930907D01*
X106176565Y-165920013D01*
X106199327Y-165880795D01*
X106239658Y-165843235D01*
X106245496Y-165839332D01*
X106291897Y-165799687D01*
X106326624Y-165753037D01*
X106328084Y-165750113D01*
X106360291Y-165701083D01*
X106403204Y-165655440D01*
X106404684Y-165654182D01*
X106444310Y-165607260D01*
X106474434Y-165548605D01*
X106477268Y-165540020D01*
X106495150Y-165495692D01*
X106514074Y-165470922D01*
X106519408Y-165469039D01*
X106555464Y-165453270D01*
X106593913Y-165412640D01*
X106627620Y-165357169D01*
X106649451Y-165296877D01*
X106652164Y-165282581D01*
X106666759Y-165225887D01*
X106696365Y-165170400D01*
X106747186Y-165104850D01*
X106754947Y-165095840D01*
X106802393Y-165037832D01*
X106842178Y-164983185D01*
X106866174Y-164943116D01*
X106867063Y-164941121D01*
X106890957Y-164904381D01*
X106928468Y-164891230D01*
X106948416Y-164890423D01*
X107005876Y-164882701D01*
X107053238Y-164865965D01*
X107095036Y-164843427D01*
X107152656Y-164812331D01*
X107188826Y-164792801D01*
X107248831Y-164757216D01*
X107302506Y-164720109D01*
X107324413Y-164702079D01*
X107373483Y-164668063D01*
X107423843Y-164647397D01*
X107472209Y-164630551D01*
X107505196Y-164611202D01*
X107540840Y-164592305D01*
X107591970Y-164577188D01*
X107598290Y-164575975D01*
X107648202Y-164561168D01*
X107683638Y-164540442D01*
X107686376Y-164537529D01*
X107719624Y-164514647D01*
X107737908Y-164510778D01*
X107774914Y-164502624D01*
X107815647Y-164485459D01*
X107862254Y-164466688D01*
X107925358Y-164447827D01*
X107956657Y-164440372D01*
X108021752Y-164423355D01*
X108080559Y-164403000D01*
X108100785Y-164393895D01*
X108152910Y-164373605D01*
X108216320Y-164357282D01*
X108229261Y-164354978D01*
X108276856Y-164348538D01*
X108297101Y-164352331D01*
X108298255Y-164370315D01*
X108294188Y-164386098D01*
X108283724Y-164432232D01*
X108273018Y-164491974D01*
X108270843Y-164506209D01*
X108262206Y-164549783D01*
X108246341Y-164578461D01*
X108214500Y-164601790D01*
X108158099Y-164629240D01*
X108090792Y-164660683D01*
X108026209Y-164691992D01*
X107993310Y-164708637D01*
X107866189Y-164775600D01*
X107767305Y-164829158D01*
X107692407Y-164871773D01*
X107637242Y-164905908D01*
X107597559Y-164934028D01*
X107581399Y-164947292D01*
X107542250Y-164978943D01*
X107514220Y-164997218D01*
X107508708Y-164999004D01*
X107488391Y-165011313D01*
X107450088Y-165043993D01*
X107400142Y-165090669D01*
X107344900Y-165144968D01*
X107290707Y-165200516D01*
X107243909Y-165250941D01*
X107210850Y-165289868D01*
X107197877Y-165310924D01*
X107197865Y-165311220D01*
X107185681Y-165338275D01*
X107155264Y-165375938D01*
X107143226Y-165388074D01*
X107101295Y-165441642D01*
X107069866Y-165504608D01*
X107066974Y-165513484D01*
X107043745Y-165563836D01*
X107001095Y-165631736D01*
X106945077Y-165709073D01*
X106881745Y-165787739D01*
X106817150Y-165859623D01*
X106783900Y-165892742D01*
X106749002Y-165931271D01*
X106729389Y-165963558D01*
X106727829Y-165970897D01*
X106715225Y-165996285D01*
X106682885Y-166034408D01*
X106655293Y-166061072D01*
X106603337Y-166118871D01*
X106567462Y-166180241D01*
X106562127Y-166195045D01*
X106540135Y-166248093D01*
X106512729Y-166289494D01*
X106508115Y-166294112D01*
X106482302Y-166325383D01*
X106474733Y-166345836D01*
X106462408Y-166372762D01*
X106436582Y-166401789D01*
X106409105Y-166434931D01*
X106373444Y-166489008D01*
X106337225Y-166552437D01*
X106336539Y-166553737D01*
X106299105Y-166623305D01*
X106261877Y-166690056D01*
X106234583Y-166736747D01*
X106202379Y-166790537D01*
X106163363Y-166857242D01*
X106140285Y-166897376D01*
X106101528Y-166960714D01*
X106060705Y-167020412D01*
X106038774Y-167048814D01*
X106004299Y-167097129D01*
X105980348Y-167143514D01*
X105978025Y-167150320D01*
X105956787Y-167193242D01*
X105921664Y-167241213D01*
X105914026Y-167249751D01*
X105877842Y-167303062D01*
X105845171Y-167376578D01*
X105832469Y-167416320D01*
X105812171Y-167479447D01*
X105787058Y-167527709D01*
X105748858Y-167573672D01*
X105695606Y-167624221D01*
X105591159Y-167717511D01*
X105511613Y-167786221D01*
X105456065Y-167831100D01*
X105423611Y-167852893D01*
X105416038Y-167855374D01*
X105394776Y-167866943D01*
X105359384Y-167896024D01*
X105344064Y-167910361D01*
X105303943Y-167941096D01*
X105240496Y-167980586D01*
X105163495Y-168023027D01*
X105105588Y-168051945D01*
X104972051Y-168120447D01*
X104869792Y-168184456D01*
X104794709Y-168246924D01*
X104742698Y-168310803D01*
X104740177Y-168314816D01*
X104690687Y-168368149D01*
X104645086Y-168386720D01*
X104570004Y-168417741D01*
X104518620Y-168473355D01*
X104493099Y-168549107D01*
X104495603Y-168640545D01*
X104503968Y-168677112D01*
X104540872Y-168759833D01*
X104601460Y-168821145D01*
X104690099Y-168864913D01*
X104730178Y-168877244D01*
X104819489Y-168896448D01*
X104920269Y-168910135D01*
X105022107Y-168917686D01*
X105114592Y-168918482D01*
X105187312Y-168911904D01*
X105212219Y-168905919D01*
X105263877Y-168879686D01*
X105318975Y-168838427D01*
X105337062Y-168821262D01*
X105375717Y-168775888D01*
X105394316Y-168733224D01*
X105400124Y-168675280D01*
X105400335Y-168664559D01*
X105403397Y-168607707D01*
X105414892Y-168573212D01*
X105441449Y-168547316D01*
X105464058Y-168532272D01*
X105521022Y-168502504D01*
X105578526Y-168481502D01*
X105585217Y-168479883D01*
X105641671Y-168458433D01*
X105693280Y-168425782D01*
X105740830Y-168392916D01*
X105786980Y-168370923D01*
X105787758Y-168370680D01*
X105828105Y-168350344D01*
X105878279Y-168314860D01*
X105900799Y-168295893D01*
X105945616Y-168260501D01*
X105983760Y-168238546D01*
X105997275Y-168235018D01*
X106022522Y-168223112D01*
X106065507Y-168191307D01*
X106118605Y-168145474D01*
X106141752Y-168123776D01*
X106257599Y-168012534D01*
X106373322Y-168010787D01*
X106450024Y-168005863D01*
X106500183Y-167992519D01*
X106525632Y-167975915D01*
X106552385Y-167954141D01*
X106563579Y-167959382D01*
X106568654Y-167984954D01*
X106568143Y-168032424D01*
X106558034Y-168085872D01*
X106552077Y-168170075D01*
X106560399Y-168207900D01*
X106570306Y-168284239D01*
X106560399Y-168334449D01*
X106551167Y-168419491D01*
X106558589Y-168456477D01*
X106566437Y-168517149D01*
X106552849Y-168560427D01*
X106530765Y-168634806D01*
X106541816Y-168713650D01*
X106549939Y-168735514D01*
X106562748Y-168784225D01*
X106571069Y-168849036D01*
X106572537Y-168879417D01*
X106581950Y-168958742D01*
X106607572Y-169009345D01*
X106628546Y-169042019D01*
X106630105Y-169063858D01*
X106621555Y-169088935D01*
X106608633Y-169139655D01*
X106593804Y-169206157D01*
X106590273Y-169223182D01*
X106573612Y-169293773D01*
X106555685Y-169352506D01*
X106539872Y-169388611D01*
X106537180Y-169392262D01*
X106517986Y-169425875D01*
X106497947Y-169478467D01*
X106490985Y-169502086D01*
X106478932Y-169559133D01*
X106481321Y-169600775D01*
X106498947Y-169644737D01*
X106519340Y-169696658D01*
X106528873Y-169742682D01*
X106528968Y-169746156D01*
X106535580Y-169795971D01*
X106546193Y-169832703D01*
X106553021Y-169879740D01*
X106535035Y-169933867D01*
X106533053Y-169937830D01*
X106510032Y-170005241D01*
X106502813Y-170077170D01*
X106511392Y-170140913D01*
X106533118Y-170181293D01*
X106554115Y-170207313D01*
X106548430Y-170229079D01*
X106534223Y-170245890D01*
X106513418Y-170288069D01*
X106499291Y-170356877D01*
X106496093Y-170389360D01*
X106488637Y-170456021D01*
X106474848Y-170499676D01*
X106449687Y-170533451D01*
X106435606Y-170546868D01*
X106388266Y-170611660D01*
X106369806Y-170688443D01*
X106382467Y-170765965D01*
X106389057Y-170780822D01*
X106405628Y-170820278D01*
X106402926Y-170844876D01*
X106386647Y-170864550D01*
X106370160Y-170891540D01*
X106361760Y-170935883D01*
X106360076Y-171005939D01*
X106360440Y-171024395D01*
X106364470Y-171096291D01*
X106371937Y-171159375D01*
X106381186Y-171199858D01*
X106388418Y-171232519D01*
X106377440Y-171262725D01*
X106343540Y-171303031D01*
X106341813Y-171304850D01*
X106311180Y-171340207D01*
X106294075Y-171373304D01*
X106286615Y-171416660D01*
X106284915Y-171482793D01*
X106284911Y-171488246D01*
X106282458Y-171561729D01*
X106273532Y-171609915D01*
X106255786Y-171643427D01*
X106248754Y-171651807D01*
X106221784Y-171703677D01*
X106210697Y-171772510D01*
X106215389Y-171844010D01*
X106235756Y-171903884D01*
X106250757Y-171923988D01*
X106288917Y-171962148D01*
X106244019Y-172052245D01*
X106216802Y-172115300D01*
X106207522Y-172166257D01*
X106212116Y-172217969D01*
X106225100Y-172325254D01*
X106228149Y-172430263D01*
X106221593Y-172523090D01*
X106205764Y-172593828D01*
X106199039Y-172609697D01*
X106171020Y-172692309D01*
X106175821Y-172768628D01*
X106194977Y-172816078D01*
X106216182Y-172883785D01*
X106224321Y-172973457D01*
X106218650Y-173073068D01*
X106213071Y-173109120D01*
X106209932Y-173186610D01*
X106227660Y-173244707D01*
X106241371Y-173291325D01*
X106254758Y-173367238D01*
X106267170Y-173465586D01*
X106277957Y-173579508D01*
X106286467Y-173702145D01*
X106292049Y-173826637D01*
X106294051Y-173944223D01*
X106295863Y-174028294D01*
X106300627Y-174105829D01*
X106307484Y-174164843D01*
X106311186Y-174182776D01*
X106324701Y-174253282D01*
X106333174Y-174338994D01*
X106336484Y-174429443D01*
X106334508Y-174514161D01*
X106327124Y-174582680D01*
X106316293Y-174620795D01*
X106298322Y-174694385D01*
X106302643Y-174740258D01*
X106311292Y-174794729D01*
X106315174Y-174839316D01*
X106315190Y-174842634D01*
X106326850Y-174948476D01*
X106365129Y-175032766D01*
X106382827Y-175055440D01*
X106415769Y-175102876D01*
X106445525Y-175168123D01*
X106473907Y-175256384D01*
X106502727Y-175372863D01*
X106517835Y-175443153D01*
X106531308Y-175515202D01*
X106535509Y-175563258D01*
X106530585Y-175598235D01*
X106520271Y-175623936D01*
X106505501Y-175680394D01*
X106499299Y-175771848D01*
X106499630Y-175841172D01*
X106502421Y-175921859D01*
X106507639Y-175975617D01*
X106517445Y-176011674D01*
X106533999Y-176039256D01*
X106550430Y-176058112D01*
X106583838Y-176102270D01*
X106621281Y-176164200D01*
X106646054Y-176212619D01*
X106672728Y-176274366D01*
X106683803Y-176316842D01*
X106681486Y-176352242D01*
X106675169Y-176373501D01*
X106657295Y-176450744D01*
X106665213Y-176516841D01*
X106682098Y-176556371D01*
X106708052Y-176626361D01*
X106729316Y-176723985D01*
X106744530Y-176840875D01*
X106752331Y-176968663D01*
X106752826Y-176991121D01*
X106754663Y-177068140D01*
X106758957Y-177118427D01*
X106768424Y-177151401D01*
X106785777Y-177176486D01*
X106813729Y-177203104D01*
X106813933Y-177203286D01*
X106850432Y-177244225D01*
X106870874Y-177283316D01*
X106872455Y-177293470D01*
X106878191Y-177328275D01*
X106893352Y-177385619D01*
X106914871Y-177454111D01*
X106918885Y-177465884D01*
X106942695Y-177546754D01*
X106960699Y-177630097D01*
X106969042Y-177698033D01*
X106969069Y-177698721D01*
X106975793Y-177765784D01*
X106993190Y-177812275D01*
X107020781Y-177847452D01*
X107056544Y-177894978D01*
X107079970Y-177943841D01*
X107081246Y-177948454D01*
X107101564Y-177987260D01*
X107141557Y-178036110D01*
X107181957Y-178075002D01*
X107227469Y-178116513D01*
X107259325Y-178149994D01*
X107270169Y-178167018D01*
X107281222Y-178188433D01*
X107309749Y-178226941D01*
X107337972Y-178260739D01*
X107424549Y-178362983D01*
X107487335Y-178444359D01*
X107524617Y-178500692D01*
X107556479Y-178538962D01*
X107605405Y-178582171D01*
X107633087Y-178602320D01*
X107686486Y-178643070D01*
X107750362Y-178698893D01*
X107811113Y-178757885D01*
X107812527Y-178759352D01*
X107873332Y-178816568D01*
X107928514Y-178857562D01*
X107966192Y-178875184D01*
X108010587Y-178894790D01*
X108063954Y-178931089D01*
X108092740Y-178955747D01*
X108142208Y-178997036D01*
X108189231Y-179027748D01*
X108210249Y-179036995D01*
X108259456Y-179059032D01*
X108288492Y-179079170D01*
X108327093Y-179097962D01*
X108386409Y-179110899D01*
X108415040Y-179113652D01*
X108472175Y-179121709D01*
X108551233Y-179139077D01*
X108640094Y-179162884D01*
X108698363Y-179180774D01*
X108783300Y-179207391D01*
X108862497Y-179230457D01*
X108925455Y-179247008D01*
X108954689Y-179253201D01*
X109010748Y-179269076D01*
X109057199Y-179293176D01*
X109059825Y-179295213D01*
X109085336Y-179322082D01*
X109087254Y-179351950D01*
X109077994Y-179380320D01*
X109065947Y-179459092D01*
X109084380Y-179538070D01*
X109128729Y-179608549D01*
X109194433Y-179661828D01*
X109234927Y-179679651D01*
X109290610Y-179691540D01*
X109351684Y-179688385D01*
X109395065Y-179680003D01*
X109451237Y-179669051D01*
X109490262Y-179669583D01*
X109528348Y-179684585D01*
X109575809Y-179713298D01*
X109650904Y-179755056D01*
X109740312Y-179795945D01*
X109833820Y-179832172D01*
X109921215Y-179859941D01*
X109992282Y-179875457D01*
X110017556Y-179877438D01*
X110078987Y-179885088D01*
X110134952Y-179903662D01*
X110138040Y-179905261D01*
X110201846Y-179924376D01*
X110253096Y-179924830D01*
X110300999Y-179918603D01*
X110371393Y-179909476D01*
X110450910Y-179899183D01*
X110470036Y-179896709D01*
X110656335Y-179866428D01*
X110814341Y-179826370D01*
X110951173Y-179774050D01*
X111073952Y-179706981D01*
X111136684Y-179663926D01*
X111179144Y-179638036D01*
X111226076Y-179623831D01*
X111290845Y-179617918D01*
X111320814Y-179617169D01*
X111389852Y-179614392D01*
X111435041Y-179606181D01*
X111468646Y-179588845D01*
X111497409Y-179564041D01*
X111545246Y-179497925D01*
X111577651Y-179413478D01*
X111589089Y-179327147D01*
X111586908Y-179298079D01*
X111586245Y-179255001D01*
X111604747Y-179232443D01*
X111616391Y-179227143D01*
X111657407Y-179202561D01*
X111688603Y-179174459D01*
X111718220Y-179146610D01*
X111737349Y-179136228D01*
X111759085Y-179127684D01*
X111802480Y-179105258D01*
X111858244Y-179073758D01*
X111859618Y-179072954D01*
X111916802Y-179041146D01*
X111963206Y-179018426D01*
X111988842Y-179009680D01*
X111988922Y-179009680D01*
X112019038Y-179002732D01*
X112063455Y-178985838D01*
X112067232Y-178984167D01*
X112121328Y-178966517D01*
X112188465Y-178952931D01*
X112211197Y-178950104D01*
X112298076Y-178926909D01*
X112365805Y-178879043D01*
X112404917Y-178817881D01*
X112435797Y-178784148D01*
X112479177Y-178767844D01*
X112536100Y-178746416D01*
X112584542Y-178714098D01*
X112632895Y-178681426D01*
X112692990Y-178654798D01*
X112703787Y-178651450D01*
X112787462Y-178611149D01*
X112846539Y-178546444D01*
X112867628Y-178500054D01*
X112892850Y-178458721D01*
X112935398Y-178417460D01*
X112946762Y-178409302D01*
X112995101Y-178368125D01*
X113032971Y-178320743D01*
X113037599Y-178312419D01*
X113067299Y-178268342D01*
X113112391Y-178216818D01*
X113139697Y-178190320D01*
X113184221Y-178143270D01*
X113216783Y-178096383D01*
X113226413Y-178073698D01*
X113247787Y-178025035D01*
X113280932Y-177979217D01*
X113313236Y-177931685D01*
X113339419Y-177871474D01*
X113343246Y-177858553D01*
X113361457Y-177807495D01*
X113386571Y-177781434D01*
X113414586Y-177771803D01*
X113461016Y-177751190D01*
X113509202Y-177714962D01*
X113516807Y-177707438D01*
X113541817Y-177678409D01*
X113557330Y-177648665D01*
X113565955Y-177608314D01*
X113570303Y-177547462D01*
X113571900Y-177498642D01*
X113574952Y-177421326D01*
X113580755Y-177370260D01*
X113591934Y-177335541D01*
X113611111Y-177307263D01*
X113627287Y-177289539D01*
X113659027Y-177249300D01*
X113675848Y-177204167D01*
X113683129Y-177139163D01*
X113683437Y-177133129D01*
X113689135Y-177020174D01*
X113694159Y-176937617D01*
X113699344Y-176879731D01*
X113705524Y-176840789D01*
X113713535Y-176815062D01*
X113724209Y-176796825D01*
X113734162Y-176784951D01*
X113760772Y-176732725D01*
X113765502Y-176671645D01*
X113760730Y-176522798D01*
X113759519Y-176406638D01*
X113762023Y-176319855D01*
X113768396Y-176259142D01*
X113778791Y-176221188D01*
X113787048Y-176207936D01*
X113808803Y-176168999D01*
X113824573Y-176114968D01*
X113826075Y-176105837D01*
X113839304Y-176041655D01*
X113859212Y-175972433D01*
X113863617Y-175959748D01*
X113881839Y-175874977D01*
X113876558Y-175815122D01*
X113866754Y-175685033D01*
X113889728Y-175545302D01*
X113898751Y-175514974D01*
X113915202Y-175439941D01*
X113916297Y-175374053D01*
X113915235Y-175367393D01*
X113914860Y-175306318D01*
X113939338Y-175238827D01*
X113942932Y-175231799D01*
X113968757Y-175168458D01*
X113974659Y-175105649D01*
X113971589Y-175068901D01*
X113968360Y-175006305D01*
X113977983Y-174969784D01*
X113986799Y-174959698D01*
X114012301Y-174919281D01*
X114024957Y-174860377D01*
X114022183Y-174799172D01*
X114015971Y-174777134D01*
X114007816Y-174734947D01*
X114025641Y-174702600D01*
X114028331Y-174699844D01*
X114049859Y-174657578D01*
X114058841Y-174596361D01*
X114055294Y-174531148D01*
X114039232Y-174476891D01*
X114028076Y-174460200D01*
X114007610Y-174422085D01*
X114005817Y-174366851D01*
X114007521Y-174352350D01*
X114004192Y-174261715D01*
X113989408Y-174216930D01*
X113978035Y-174188531D01*
X113968644Y-174154738D01*
X113960487Y-174110026D01*
X113952817Y-174048867D01*
X113944886Y-173965733D01*
X113935947Y-173855098D01*
X113930284Y-173779914D01*
X113925398Y-173701278D01*
X113925510Y-173649758D01*
X113931614Y-173616535D01*
X113944704Y-173592790D01*
X113952385Y-173583674D01*
X113982034Y-173526328D01*
X113987179Y-173456134D01*
X113968664Y-173386028D01*
X113936301Y-173337556D01*
X113905103Y-173302327D01*
X113896403Y-173276514D01*
X113907212Y-173243886D01*
X113915813Y-173226324D01*
X113934588Y-173159026D01*
X113932433Y-173086505D01*
X113910391Y-173024898D01*
X113902071Y-173013304D01*
X113889309Y-172977439D01*
X113883840Y-172908575D01*
X113884602Y-172829615D01*
X113888688Y-172749124D01*
X113895869Y-172695570D01*
X113908203Y-172659751D01*
X113927748Y-172632463D01*
X113928992Y-172631114D01*
X113956404Y-172587668D01*
X113968738Y-172526843D01*
X113970290Y-172495526D01*
X113974291Y-172425244D01*
X113981911Y-172357452D01*
X113985673Y-172335273D01*
X113987298Y-172259344D01*
X113970862Y-172212177D01*
X113952842Y-172156236D01*
X113959999Y-172110567D01*
X113976258Y-172024478D01*
X113961910Y-171941895D01*
X113953156Y-171922495D01*
X113938880Y-171872869D01*
X113936628Y-171814496D01*
X113937016Y-171810794D01*
X113935971Y-171747950D01*
X113923177Y-171682222D01*
X113921068Y-171675702D01*
X113905287Y-171611145D01*
X113896314Y-171539294D01*
X113895733Y-171525267D01*
X113886493Y-171458929D01*
X113865088Y-171385438D01*
X113853047Y-171356316D01*
X113830018Y-171304787D01*
X113822058Y-171274108D01*
X113828402Y-171252623D01*
X113844918Y-171232389D01*
X113870733Y-171180861D01*
X113879136Y-171112785D01*
X113870459Y-171043114D01*
X113845038Y-170986801D01*
X113839280Y-170979855D01*
X113806632Y-170919234D01*
X113792161Y-170842222D01*
X113776350Y-170761267D01*
X113747190Y-170706792D01*
X113747046Y-170706634D01*
X113720037Y-170658630D01*
X113702842Y-170591493D01*
X113701347Y-170579551D01*
X113682466Y-170499991D01*
X113652052Y-170449861D01*
X113626837Y-170417945D01*
X113621608Y-170387675D01*
X113633516Y-170341810D01*
X113633977Y-170340409D01*
X113646956Y-170269405D01*
X113644489Y-170194336D01*
X113627989Y-170129667D01*
X113610528Y-170100198D01*
X113586092Y-170053712D01*
X113574198Y-169993916D01*
X113575934Y-169935550D01*
X113592390Y-169893349D01*
X113595035Y-169890436D01*
X113609739Y-169857198D01*
X113620004Y-169797743D01*
X113625775Y-169721742D01*
X113626998Y-169638868D01*
X113623619Y-169558793D01*
X113615584Y-169491189D01*
X113602837Y-169445728D01*
X113597580Y-169437225D01*
X113580353Y-169397310D01*
X113571740Y-169327595D01*
X113570463Y-169272969D01*
X113569155Y-169202432D01*
X113563092Y-169156540D01*
X113549065Y-169123814D01*
X113523864Y-169092775D01*
X113518502Y-169087116D01*
X113498148Y-169063550D01*
X113483495Y-169037991D01*
X113473958Y-169004810D01*
X113468951Y-168958378D01*
X113467887Y-168893069D01*
X113470182Y-168803253D01*
X113475248Y-168683303D01*
X113475618Y-168675217D01*
X113474013Y-168607898D01*
X113459791Y-168563359D01*
X113446166Y-168544837D01*
X113427915Y-168518737D01*
X113419950Y-168485902D01*
X113420762Y-168435306D01*
X113424987Y-168390387D01*
X113430075Y-168315151D01*
X113424950Y-168260318D01*
X113408052Y-168211189D01*
X113405356Y-168205391D01*
X113383045Y-168129906D01*
X113374190Y-168036039D01*
X113378721Y-167938942D01*
X113396567Y-167853763D01*
X113407120Y-167827047D01*
X113429289Y-167753782D01*
X113425969Y-167694806D01*
X113416304Y-167633049D01*
X113408626Y-167562785D01*
X113407487Y-167548043D01*
X113402046Y-167479986D01*
X113394726Y-167401115D01*
X113391256Y-167367260D01*
X113386127Y-167313824D01*
X113386348Y-167292853D01*
X113392657Y-167300949D01*
X113401079Y-167322064D01*
X113422872Y-167369605D01*
X113444262Y-167403417D01*
X113464000Y-167439899D01*
X113479566Y-167489606D01*
X113479591Y-167489721D01*
X113500783Y-167546587D01*
X113533078Y-167598191D01*
X113563589Y-167650133D01*
X113583962Y-167711783D01*
X113585220Y-167718815D01*
X113611914Y-167797902D01*
X113663903Y-167851955D01*
X113742519Y-167882126D01*
X113780288Y-167887630D01*
X113892466Y-167916010D01*
X114000164Y-167979461D01*
X114086104Y-168058352D01*
X114157755Y-168116540D01*
X114239359Y-168147745D01*
X114302773Y-168169360D01*
X114358762Y-168198616D01*
X114376644Y-168212100D01*
X114428718Y-168245355D01*
X114485209Y-168264462D01*
X114542516Y-168283814D01*
X114596078Y-168316808D01*
X114597727Y-168318205D01*
X114628718Y-168350732D01*
X114644923Y-168388510D01*
X114651653Y-168445449D01*
X114652367Y-168461337D01*
X114658066Y-168525181D01*
X114673255Y-168568934D01*
X114704146Y-168608510D01*
X114713547Y-168618119D01*
X114753579Y-168652548D01*
X114795447Y-168671647D01*
X114853944Y-168681262D01*
X114878354Y-168683274D01*
X114987809Y-168680780D01*
X115083679Y-168658422D01*
X115156724Y-168618447D01*
X115161352Y-168614513D01*
X115203618Y-168585370D01*
X115234344Y-168571545D01*
X115265211Y-168553451D01*
X115310702Y-168516708D01*
X115360892Y-168469346D01*
X115407690Y-168420452D01*
X115434499Y-168384302D01*
X115446886Y-168348069D01*
X115450418Y-168298923D01*
X115450605Y-168262632D01*
X115448736Y-168196136D01*
X115440394Y-168152572D01*
X115421481Y-168118797D01*
X115397137Y-168091192D01*
X115331296Y-168042821D01*
X115276263Y-168024605D01*
X115219274Y-168005574D01*
X115171372Y-167973779D01*
X115168394Y-167970757D01*
X115134829Y-167940520D01*
X115109220Y-167926548D01*
X115108486Y-167926475D01*
X115085303Y-167915811D01*
X115042140Y-167888797D01*
X114987790Y-167850984D01*
X114980569Y-167845717D01*
X114905270Y-167793084D01*
X114820922Y-167738264D01*
X114735463Y-167685984D01*
X114656830Y-167640970D01*
X114592960Y-167607951D01*
X114555730Y-167592702D01*
X114512644Y-167573107D01*
X114461118Y-167540763D01*
X114447260Y-167530516D01*
X114389790Y-167489986D01*
X114324266Y-167448971D01*
X114306581Y-167438888D01*
X114245429Y-167394425D01*
X114219456Y-167350051D01*
X114200388Y-167280231D01*
X114170095Y-167191136D01*
X114133591Y-167095795D01*
X114095889Y-167007238D01*
X114062004Y-166938495D01*
X114059116Y-166933381D01*
X114034913Y-166890292D01*
X114003359Y-166832970D01*
X113988528Y-166805697D01*
X113957163Y-166753207D01*
X113927401Y-166712125D01*
X113915360Y-166699534D01*
X113891678Y-166670930D01*
X113886706Y-166655473D01*
X113877017Y-166632202D01*
X113851237Y-166587413D01*
X113814114Y-166529137D01*
X113796315Y-166502618D01*
X113755945Y-166441605D01*
X113724896Y-166391318D01*
X113707880Y-166359537D01*
X113706050Y-166353524D01*
X113694809Y-166331653D01*
X113666032Y-166293776D01*
X113642776Y-166266865D01*
X113606799Y-166223510D01*
X113583877Y-166189102D01*
X113579502Y-166177050D01*
X113568459Y-166152219D01*
X113540744Y-166113476D01*
X113527706Y-166097889D01*
X113491567Y-166049609D01*
X113465998Y-166003276D01*
X113462354Y-165993310D01*
X113439942Y-165946332D01*
X113406124Y-165902363D01*
X113370830Y-165872823D01*
X113352332Y-165866762D01*
X113332078Y-165851358D01*
X113318763Y-165820692D01*
X113300160Y-165780893D01*
X113262790Y-165724871D01*
X113211957Y-165658611D01*
X113152963Y-165588101D01*
X113091113Y-165519328D01*
X113031708Y-165458278D01*
X112980053Y-165410939D01*
X112941449Y-165383296D01*
X112927198Y-165378648D01*
X112912689Y-165363551D01*
X112896344Y-165327593D01*
X112873851Y-165291471D01*
X112828958Y-165239490D01*
X112768123Y-165177570D01*
X112697804Y-165111634D01*
X112624460Y-165047603D01*
X112554550Y-164991399D01*
X112494532Y-164948944D01*
X112464912Y-164932021D01*
X112412411Y-164904966D01*
X112371706Y-164881313D01*
X112359885Y-164873010D01*
X112321089Y-164846401D01*
X112258739Y-164809739D01*
X112182084Y-164768174D01*
X112100376Y-164726858D01*
X112079004Y-164716583D01*
X111952123Y-164656936D01*
X111849330Y-164609907D01*
X111773787Y-164576928D01*
X111743434Y-164564698D01*
X111710915Y-164547212D01*
X111702095Y-164520520D01*
X111706326Y-164487977D01*
X111717317Y-164427642D01*
X111728494Y-164363733D01*
X111728636Y-164362901D01*
X111739966Y-164296265D01*
X111805267Y-164331264D01*
X111865162Y-164354822D01*
X111926471Y-164366735D01*
X111934109Y-164367051D01*
X111996063Y-164371661D01*
X112063031Y-164381877D01*
X112069964Y-164383306D01*
X112132403Y-164396487D01*
X112206407Y-164411876D01*
X112237128Y-164418196D01*
X112311466Y-164437600D01*
X112387099Y-164463618D01*
X112412399Y-164474254D01*
X112461928Y-164495646D01*
X112497433Y-164508844D01*
X112506382Y-164510890D01*
X112527254Y-164522276D01*
X112560918Y-164550250D01*
X112566970Y-164555945D01*
X112605124Y-164583584D01*
X112659396Y-164606367D01*
X112735201Y-164625781D01*
X112837955Y-164643313D01*
X112928683Y-164655245D01*
X112994062Y-164663206D01*
X113043474Y-164669321D01*
X113067782Y-164672458D01*
X113068790Y-164672620D01*
X113073065Y-164688029D01*
X113073310Y-164695027D01*
X113086278Y-164725495D01*
X113116700Y-164761829D01*
X113151852Y-164790911D01*
X113175255Y-164800142D01*
X113200561Y-164814541D01*
X113219866Y-164840819D01*
X113244228Y-164877468D01*
X113282998Y-164926246D01*
X113308077Y-164954868D01*
X113354900Y-165016948D01*
X113395524Y-165088636D01*
X113407880Y-165117573D01*
X113437224Y-165182039D01*
X113473299Y-165241476D01*
X113488672Y-165261139D01*
X113526196Y-165310260D01*
X113554970Y-165359105D01*
X113557430Y-165364589D01*
X113579622Y-165404026D01*
X113617003Y-165458453D01*
X113657504Y-165511080D01*
X113719547Y-165602059D01*
X113748457Y-165681664D01*
X113748591Y-165682492D01*
X113763323Y-165734988D01*
X113793801Y-165779905D01*
X113841718Y-165824562D01*
X113885520Y-165864148D01*
X113915045Y-165896521D01*
X113923036Y-165911266D01*
X113931831Y-165935495D01*
X113954744Y-165980242D01*
X113983870Y-166030841D01*
X114019949Y-166095228D01*
X114050616Y-166157879D01*
X114065594Y-166195083D01*
X114093235Y-166250231D01*
X114134106Y-166303724D01*
X114141530Y-166311214D01*
X114179417Y-166342395D01*
X114218557Y-166358483D01*
X114273569Y-166364397D01*
X114301399Y-166364997D01*
X114369243Y-166369055D01*
X114418270Y-166383154D01*
X114465530Y-166412769D01*
X114476479Y-166421199D01*
X114535835Y-166460199D01*
X114599846Y-166491437D01*
X114619004Y-166498206D01*
X114707574Y-166528704D01*
X114772715Y-166561149D01*
X114826889Y-166601828D01*
X114830049Y-166604655D01*
X114894899Y-166642101D01*
X114961117Y-166657584D01*
X115011777Y-166665214D01*
X115035995Y-166677779D01*
X115043415Y-166702483D01*
X115043843Y-166719373D01*
X115060373Y-166806702D01*
X115106267Y-166891820D01*
X115149241Y-166940473D01*
X115223390Y-166986619D01*
X115312354Y-167004450D01*
X115407415Y-166993101D01*
X115464167Y-166971724D01*
X115515733Y-166949056D01*
X115556179Y-166935296D01*
X115567713Y-166933381D01*
X115630572Y-166922882D01*
X115706313Y-166895758D01*
X115780074Y-166858570D01*
X115836991Y-166817880D01*
X115843309Y-166811724D01*
X115876052Y-166774641D01*
X115893855Y-166740521D01*
X115901197Y-166695971D01*
X115902562Y-166634496D01*
X115900577Y-166567278D01*
X115892253Y-166523778D01*
X115874039Y-166491664D01*
X115855605Y-166471445D01*
X115793086Y-166430650D01*
X115735902Y-166414731D01*
X115688353Y-166402201D01*
X115636725Y-166374325D01*
X115572894Y-166326270D01*
X115538912Y-166297541D01*
X115470080Y-166241313D01*
X115398300Y-166187975D01*
X115336656Y-166147133D01*
X115324166Y-166139892D01*
X115262526Y-166105716D01*
X115204658Y-166073676D01*
X115179431Y-166059731D01*
X115119277Y-166028909D01*
X115040387Y-165991677D01*
X114954296Y-165953145D01*
X114872539Y-165918422D01*
X114806652Y-165892617D01*
X114786228Y-165885585D01*
X114743236Y-165868484D01*
X114719854Y-165852597D01*
X114718434Y-165849127D01*
X114707546Y-165829765D01*
X114678213Y-165789527D01*
X114635434Y-165735067D01*
X114602872Y-165695300D01*
X114551894Y-165629882D01*
X114509925Y-165568383D01*
X114482843Y-165519805D01*
X114476357Y-165501537D01*
X114457333Y-165453287D01*
X114423235Y-165399762D01*
X114411136Y-165384962D01*
X114378246Y-165342625D01*
X114358969Y-165308377D01*
X114356868Y-165299468D01*
X114344509Y-165270126D01*
X114322502Y-165244681D01*
X114294749Y-165204835D01*
X114276976Y-165154091D01*
X114253292Y-165098196D01*
X114208227Y-165042338D01*
X114202872Y-165037326D01*
X114165480Y-164999407D01*
X114142930Y-164969027D01*
X114139929Y-164960276D01*
X114128836Y-164935695D01*
X114100862Y-164896801D01*
X114085694Y-164878733D01*
X114052832Y-164836548D01*
X114033564Y-164802618D01*
X114031459Y-164793857D01*
X114019313Y-164767585D01*
X113989066Y-164730629D01*
X113978103Y-164719632D01*
X113940546Y-164674188D01*
X113916217Y-164627542D01*
X113914026Y-164619704D01*
X113895111Y-164579403D01*
X113858460Y-164529728D01*
X113831795Y-164501067D01*
X113792159Y-164458842D01*
X113766191Y-164424425D01*
X113760285Y-164410379D01*
X113748543Y-164390136D01*
X113716371Y-164349258D01*
X113668345Y-164293223D01*
X113609045Y-164227509D01*
X113593060Y-164210281D01*
X113520135Y-164131403D01*
X113445852Y-164049842D01*
X113378998Y-163975314D01*
X113329136Y-163918440D01*
X113281951Y-163866239D01*
X113241830Y-163826820D01*
X113215672Y-163806806D01*
X113211628Y-163805576D01*
X113187842Y-163797769D01*
X113139351Y-163776812D01*
X113073618Y-163746061D01*
X113010672Y-163715184D01*
X112935947Y-163678794D01*
X112871887Y-163649441D01*
X112826071Y-163630485D01*
X112807291Y-163625054D01*
X112791709Y-163623655D01*
X112786548Y-163614675D01*
X112793144Y-163590935D01*
X112812839Y-163545254D01*
X112828639Y-163510580D01*
X112856016Y-163440640D01*
X112877075Y-163368810D01*
X112883901Y-163333780D01*
X112905947Y-163211391D01*
X112937388Y-163113920D01*
X112982082Y-163030554D01*
X113002576Y-163001352D01*
X113069800Y-162885152D01*
X113113061Y-162754567D01*
X113127544Y-162629934D01*
X113117368Y-162488632D01*
X113085762Y-162375180D01*
X113031116Y-162287185D01*
X112951815Y-162222252D01*
X112846247Y-162177990D01*
X112817901Y-162170437D01*
X112708286Y-162151709D01*
X112626516Y-162155534D01*
X112572793Y-162181897D01*
X112566153Y-162188991D01*
X112530029Y-162206852D01*
X112459543Y-162214587D01*
X112434825Y-162214947D01*
X112369047Y-162212628D01*
X112325723Y-162202893D01*
X112291296Y-162181572D01*
X112273147Y-162165231D01*
X112233236Y-162133865D01*
X112189446Y-162119143D01*
X112127532Y-162115576D01*
X112053782Y-162122581D01*
X111987265Y-162140509D01*
X111972276Y-162147213D01*
X111934183Y-162162141D01*
X111884415Y-162171767D01*
X111815182Y-162177004D01*
X111718699Y-162178768D01*
X111703404Y-162178790D01*
X111496065Y-162178790D01*
X111671055Y-161996475D01*
X111736049Y-161927122D01*
X111792376Y-161863945D01*
X111834911Y-161812919D01*
X111858531Y-161780016D01*
X111861000Y-161775016D01*
X111876632Y-161743066D01*
X111906372Y-161689315D01*
X111945215Y-161622654D01*
X111969559Y-161582207D01*
X112076198Y-161396622D01*
X112158472Y-161230303D01*
X112215876Y-161084558D01*
X112247904Y-160960695D01*
X112254049Y-160860022D01*
X112253045Y-160849750D01*
X112252163Y-160752336D01*
X112267921Y-160692284D01*
X112281411Y-160645263D01*
X112286949Y-160582878D01*
X112285134Y-160496315D01*
X112283318Y-160465430D01*
X112279294Y-160377729D01*
X112281246Y-160315895D01*
X112290005Y-160270005D01*
X112302380Y-160238304D01*
X112329433Y-160146569D01*
X112320852Y-160059691D01*
X112304180Y-160019557D01*
X112285853Y-159957798D01*
X112287469Y-159916429D01*
X112288936Y-159872005D01*
X112281377Y-159808768D01*
X112270437Y-159757049D01*
X112254055Y-159666160D01*
X112251654Y-159584164D01*
X112253251Y-159568664D01*
X112254976Y-159498149D01*
X112244413Y-159430586D01*
X112242247Y-159423484D01*
X112229319Y-159366983D01*
X112220080Y-159294644D01*
X112217502Y-159251361D01*
X112209298Y-159171179D01*
X112190661Y-159118834D01*
X112185502Y-159111881D01*
X112164006Y-159074609D01*
X112142862Y-159018573D01*
X112134876Y-158989911D01*
X112123337Y-158935908D01*
X112124055Y-158902420D01*
X112139606Y-158875123D01*
X112159446Y-158853334D01*
X112189855Y-158817374D01*
X112205243Y-158790924D01*
X112205699Y-158788121D01*
X112219413Y-158763935D01*
X112258251Y-158720223D01*
X112319107Y-158660049D01*
X112398875Y-158586479D01*
X112494449Y-158502578D01*
X112499324Y-158498392D01*
X112558027Y-158446066D01*
X112604635Y-158400769D01*
X112633254Y-158368453D01*
X112639431Y-158356912D01*
X112655243Y-158339795D01*
X112695105Y-158321562D01*
X112716487Y-158315004D01*
X112776669Y-158290452D01*
X112829208Y-158255437D01*
X112838515Y-158246524D01*
X112861178Y-158218684D01*
X112874671Y-158188107D01*
X112881306Y-158144732D01*
X112883399Y-158078497D01*
X112883488Y-158050964D01*
X112882390Y-157975294D01*
X112876805Y-157922812D01*
X112863293Y-157880566D01*
X112838413Y-157835603D01*
X112817860Y-157803844D01*
X112765860Y-157728402D01*
X112723205Y-157678947D01*
X112681247Y-157650105D01*
X112631339Y-157636499D01*
X112564834Y-157632754D01*
X112542622Y-157632738D01*
X112392221Y-157649918D01*
X112255324Y-157698880D01*
X112136004Y-157778061D01*
X112115661Y-157796388D01*
X112070257Y-157841555D01*
X112045576Y-157876898D01*
X112035119Y-157916384D01*
X112032381Y-157973979D01*
X112032362Y-157975313D01*
X112022721Y-158058022D01*
X111994110Y-158113560D01*
X111942807Y-158147544D01*
X111911779Y-158157190D01*
X111875986Y-158161855D01*
X111863154Y-158147471D01*
X111862064Y-158131769D01*
X111870227Y-158093010D01*
X111890719Y-158040457D01*
X111900417Y-158020627D01*
X111925913Y-157957691D01*
X111929876Y-157898075D01*
X111926430Y-157870925D01*
X111926392Y-157798672D01*
X111944062Y-157702331D01*
X111977888Y-157588415D01*
X112019706Y-157479005D01*
X112039297Y-157421545D01*
X112058893Y-157340925D01*
X112079646Y-157232040D01*
X112091358Y-157162064D01*
X112105577Y-157105379D01*
X112125718Y-157050862D01*
X112144066Y-156990584D01*
X112151317Y-156930011D01*
X112156534Y-156871194D01*
X112169079Y-156819407D01*
X112169099Y-156819356D01*
X112177118Y-156771330D01*
X112177113Y-156695118D01*
X112171540Y-156621239D01*
X112138886Y-156458003D01*
X112076898Y-156306508D01*
X111988931Y-156174806D01*
X111982196Y-156166893D01*
X111947890Y-156129686D01*
X111917609Y-156108151D01*
X111879180Y-156097298D01*
X111820433Y-156092135D01*
X111796981Y-156090947D01*
X111721512Y-156089289D01*
X111664386Y-156095753D01*
X111618580Y-156114972D01*
X111577071Y-156151581D01*
X111532839Y-156210212D01*
X111478861Y-156295500D01*
X111473381Y-156304485D01*
X111421937Y-156390348D01*
X111383503Y-156460668D01*
X111355949Y-156523459D01*
X111337149Y-156586735D01*
X111324973Y-156658512D01*
X111317294Y-156746803D01*
X111311984Y-156859622D01*
X111309800Y-156920529D01*
X111301112Y-157095997D01*
X111288378Y-157235800D01*
X111271573Y-157340209D01*
X111266703Y-157360925D01*
X111245729Y-157445192D01*
X111224235Y-157534699D01*
X111210082Y-157595943D01*
X111192989Y-157662525D01*
X111174333Y-157720963D01*
X111162442Y-157749609D01*
X111144380Y-157796836D01*
X111138246Y-157830961D01*
X111132023Y-157879653D01*
X111117857Y-157940351D01*
X111099617Y-157999791D01*
X111081173Y-158044710D01*
X111071707Y-158059083D01*
X111052010Y-158063829D01*
X111018706Y-158047197D01*
X110966791Y-158006570D01*
X110959776Y-158000563D01*
X110857573Y-157926114D01*
X110763394Y-157885448D01*
X110711653Y-157877532D01*
X110678057Y-157864316D01*
X110632991Y-157831820D01*
X110602347Y-157803305D01*
X110524934Y-157742153D01*
X110446458Y-157716836D01*
X110367470Y-157727493D01*
X110343995Y-157737607D01*
X110288114Y-157755833D01*
X110241813Y-157748755D01*
X110151465Y-157732565D01*
X110063173Y-157751464D01*
X110046292Y-157759463D01*
X109998790Y-157773317D01*
X109930023Y-157780540D01*
X109851180Y-157781468D01*
X109773448Y-157776438D01*
X109708014Y-157765787D01*
X109666065Y-157749854D01*
X109663530Y-157747931D01*
X109624494Y-157731919D01*
X109560529Y-157723366D01*
X109529084Y-157722491D01*
X109445077Y-157730573D01*
X109385213Y-157758243D01*
X109340493Y-157810638D01*
X109325229Y-157838852D01*
X109302065Y-157871049D01*
X109267125Y-157881464D01*
X109239986Y-157880790D01*
X109137716Y-157883923D01*
X109054325Y-157911656D01*
X108988779Y-157958609D01*
X108919786Y-158020940D01*
X108854396Y-157941140D01*
X108815868Y-157889475D01*
X108798887Y-157850858D01*
X108798686Y-157813539D01*
X108799911Y-157806813D01*
X108797613Y-157738311D01*
X108781707Y-157693935D01*
X108761715Y-157643544D01*
X108752547Y-157600102D01*
X108752486Y-157597685D01*
X108744116Y-157554529D01*
X108725369Y-157508005D01*
X108705384Y-157451176D01*
X108698252Y-157399535D01*
X108689249Y-157341845D01*
X108669309Y-157288612D01*
X108649828Y-157226630D01*
X108641496Y-157139392D01*
X108641321Y-157116868D01*
X108637943Y-157047545D01*
X108628264Y-156966217D01*
X108614248Y-156883781D01*
X108597862Y-156811128D01*
X108581069Y-156759154D01*
X108574466Y-156746263D01*
X108568023Y-156719290D01*
X108563777Y-156668903D01*
X108562776Y-156626153D01*
X108556001Y-156543642D01*
X108535458Y-156493184D01*
X108533280Y-156490566D01*
X108514330Y-156452026D01*
X108500098Y-156391256D01*
X108495744Y-156354365D01*
X108475482Y-156259849D01*
X108433616Y-156179226D01*
X108375344Y-156120897D01*
X108339540Y-156101878D01*
X108298902Y-156093842D01*
X108234702Y-156089257D01*
X108159440Y-156088920D01*
X108143901Y-156089442D01*
X108066759Y-156093992D01*
X108015566Y-156101809D01*
X107980119Y-156115550D01*
X107950217Y-156137868D01*
X107947175Y-156140641D01*
X107892189Y-156209161D01*
X107851187Y-156294141D01*
X107831667Y-156379200D01*
X107831002Y-156394434D01*
X107822126Y-156453002D01*
X107800708Y-156516256D01*
X107795107Y-156528033D01*
X107775006Y-156590182D01*
X107762640Y-156674587D01*
X107758595Y-156768058D01*
X107763461Y-156857407D01*
X107777272Y-156927728D01*
X107788095Y-156976726D01*
X107797263Y-157043959D01*
X107801178Y-157090433D01*
X107808536Y-157173053D01*
X107820065Y-157257775D01*
X107834049Y-157335144D01*
X107848770Y-157395705D01*
X107862512Y-157430003D01*
X107862957Y-157430616D01*
X107877437Y-157460171D01*
X107894681Y-157508804D01*
X107899836Y-157526005D01*
X107919624Y-157578380D01*
X107942801Y-157617353D01*
X107949241Y-157623996D01*
X107989799Y-157678646D01*
X108018462Y-157762855D01*
X108033726Y-157871552D01*
X108035646Y-157915402D01*
X108038923Y-157990830D01*
X108046535Y-158040389D01*
X108060923Y-158074316D01*
X108078995Y-158097126D01*
X108107289Y-158142546D01*
X108130866Y-158207392D01*
X108138006Y-158238093D01*
X108166297Y-158328381D01*
X108210530Y-158391678D01*
X108248908Y-158437129D01*
X108263776Y-158466433D01*
X108256474Y-158475572D01*
X108228342Y-158460525D01*
X108196690Y-158433179D01*
X108148296Y-158392592D01*
X108101945Y-158362897D01*
X108083701Y-158355202D01*
X108040935Y-158334257D01*
X107993091Y-158299160D01*
X107984270Y-158291214D01*
X107936588Y-158254816D01*
X107888506Y-158230403D01*
X107880632Y-158228052D01*
X107836135Y-158203397D01*
X107796256Y-158159227D01*
X107794475Y-158156414D01*
X107771091Y-158109948D01*
X107769230Y-158071919D01*
X107777285Y-158045494D01*
X107788811Y-157966096D01*
X107765400Y-157883480D01*
X107707796Y-157800268D01*
X107707555Y-157800001D01*
X107621161Y-157726036D01*
X107527027Y-157684857D01*
X107429138Y-157677594D01*
X107348188Y-157698015D01*
X107293867Y-157712263D01*
X107249722Y-157714956D01*
X107179445Y-157724035D01*
X107099894Y-157757582D01*
X107022343Y-157810314D01*
X106996304Y-157833736D01*
X106932634Y-157920223D01*
X106898209Y-158024239D01*
X106895129Y-158139430D01*
X106895162Y-158139722D01*
X106900905Y-158175971D01*
X106912016Y-158207240D01*
X106933124Y-158239801D01*
X106968860Y-158279921D01*
X107023854Y-158333871D01*
X107072044Y-158379255D01*
X107138094Y-158439868D01*
X107196717Y-158491491D01*
X107241846Y-158528928D01*
X107267413Y-158546982D01*
X107268446Y-158547439D01*
X107301899Y-158569117D01*
X107331734Y-158597155D01*
X107363064Y-158625180D01*
X107385285Y-158635445D01*
X107408013Y-158647081D01*
X107446347Y-158677053D01*
X107477394Y-158705138D01*
X107536294Y-158752326D01*
X107602576Y-158792662D01*
X107631744Y-158805921D01*
X107696514Y-158838385D01*
X107757867Y-158881045D01*
X107771921Y-158893508D01*
X107811831Y-158942809D01*
X107819186Y-158988201D01*
X107794038Y-159037858D01*
X107773002Y-159062824D01*
X107748703Y-159105694D01*
X107729641Y-159169035D01*
X107724422Y-159198869D01*
X107714039Y-159258708D01*
X107701827Y-159306004D01*
X107694845Y-159322700D01*
X107687493Y-159349342D01*
X107678205Y-159404970D01*
X107667963Y-159482535D01*
X107657750Y-159574983D01*
X107653335Y-159620534D01*
X107643405Y-159727411D01*
X107633609Y-159832332D01*
X107624916Y-159924945D01*
X107618297Y-159994895D01*
X107616910Y-160009395D01*
X107609474Y-160128350D01*
X107607424Y-160264186D01*
X107610387Y-160405750D01*
X107617988Y-160541885D01*
X107629855Y-160661436D01*
X107641134Y-160732527D01*
X107658382Y-160830433D01*
X107674574Y-160940626D01*
X107686260Y-161039583D01*
X107686434Y-161041386D01*
X107701433Y-161132644D01*
X107729310Y-161245272D01*
X107766488Y-161368445D01*
X107809389Y-161491339D01*
X107854436Y-161603129D01*
X107898050Y-161692989D01*
X107906876Y-161708369D01*
X107951737Y-161774486D01*
X108001001Y-161832894D01*
X108046288Y-161874287D01*
X108067595Y-161886896D01*
X108097795Y-161905846D01*
X108141652Y-161941544D01*
X108193083Y-161987976D01*
X108246006Y-162039127D01*
X108294340Y-162088984D01*
X108332004Y-162131532D01*
X108352916Y-162160758D01*
X108354103Y-162170229D01*
X108328513Y-162174854D01*
X108273641Y-162177980D01*
X108196332Y-162179551D01*
X108103430Y-162179511D01*
X108001781Y-162177804D01*
X107898230Y-162174375D01*
X107889886Y-162174017D01*
X107836897Y-162176258D01*
X107795908Y-162193318D01*
X107750084Y-162232219D01*
X107749864Y-162232432D01*
X107686149Y-162294188D01*
X107630642Y-162241008D01*
X107586719Y-162206242D01*
X107540310Y-162190804D01*
X107487828Y-162187829D01*
X107415891Y-162195331D01*
X107368178Y-162216232D01*
X107366987Y-162217248D01*
X107330016Y-162235821D01*
X107272963Y-162250525D01*
X107237951Y-162255327D01*
X107165010Y-162270931D01*
X107104372Y-162300355D01*
X107064500Y-162338261D01*
X107053238Y-162371764D01*
X107039102Y-162393670D01*
X107029503Y-162395730D01*
X107003037Y-162407899D01*
X106965593Y-162438330D01*
X106952752Y-162451066D01*
X106927297Y-162480136D01*
X106911224Y-162509023D01*
X106901982Y-162547300D01*
X106897021Y-162604542D01*
X106894435Y-162670011D01*
X106895939Y-162791733D01*
X106911042Y-162899811D01*
X106942751Y-163006361D01*
X106994068Y-163123501D01*
X107019086Y-163172835D01*
X107055390Y-163251014D01*
X107085949Y-163332199D01*
X107104856Y-163400445D01*
X107106246Y-163408114D01*
X107126432Y-163505969D01*
X107153386Y-163581441D01*
X107192685Y-163648283D01*
X107216485Y-163679973D01*
X107247963Y-163721537D01*
X107267283Y-163750555D01*
X107270178Y-163757286D01*
X107254694Y-163767420D01*
X107217628Y-163778349D01*
X107174470Y-163793770D01*
X107115039Y-163822276D01*
X107061773Y-163852098D01*
X107007022Y-163883765D01*
X106964159Y-163906169D01*
X106943043Y-163914306D01*
X106919937Y-163926171D01*
X106878187Y-163957723D01*
X106824528Y-164002898D01*
X106765696Y-164055631D01*
X106708425Y-164109858D01*
X106659453Y-164159514D01*
X106625515Y-164198536D01*
X106621879Y-164203459D01*
X106577538Y-164255845D01*
X106521167Y-164309982D01*
X106497359Y-164329529D01*
X106449790Y-164372490D01*
X106392381Y-164433625D01*
X106335840Y-164501359D01*
X106323448Y-164517499D01*
X106274728Y-164579590D01*
X106209428Y-164659147D01*
X106135302Y-164746896D01*
X106060105Y-164833561D01*
X106043206Y-164852668D01*
X105979592Y-164925622D01*
X105925578Y-164990107D01*
X105885358Y-165040912D01*
X105863129Y-165072825D01*
X105860071Y-165080140D01*
X105846982Y-165102833D01*
X105813537Y-165137412D01*
X105787758Y-165159535D01*
X105746349Y-165196963D01*
X105720184Y-165228594D01*
X105715445Y-165240530D01*
X105703304Y-165266653D01*
X105673069Y-165303522D01*
X105662088Y-165314532D01*
X105624267Y-165360817D01*
X105599601Y-165409211D01*
X105597423Y-165417138D01*
X105583902Y-165457819D01*
X105569243Y-165479052D01*
X105553951Y-165496808D01*
X105523499Y-165537914D01*
X105482600Y-165595516D01*
X105435967Y-165662759D01*
X105388314Y-165732789D01*
X105344354Y-165798750D01*
X105308800Y-165853789D01*
X105288098Y-165887939D01*
X105258386Y-165923524D01*
X105215832Y-165957967D01*
X105215785Y-165957997D01*
X105169047Y-165989981D01*
X105112643Y-166030667D01*
X105091744Y-166046263D01*
X105032941Y-166089718D01*
X104973045Y-166132539D01*
X104956157Y-166144255D01*
X104900516Y-166188237D01*
X104848197Y-166238402D01*
X104843028Y-166244127D01*
X104808426Y-166279386D01*
X104782273Y-166299121D01*
X104777275Y-166300641D01*
X104760130Y-166313701D01*
X104725048Y-166349300D01*
X104677074Y-166402060D01*
X104621252Y-166466609D01*
X104618986Y-166469290D01*
X104562435Y-166533549D01*
X104512547Y-166585219D01*
X104474589Y-166619182D01*
X104453827Y-166630319D01*
X104453411Y-166630212D01*
X104414583Y-166629662D01*
X104355427Y-166641895D01*
X104287677Y-166662985D01*
X104223068Y-166689003D01*
X104173335Y-166716024D01*
X104157038Y-166729391D01*
X104133980Y-166759879D01*
X104121292Y-166796817D01*
X104116151Y-166851612D01*
X104115516Y-166897224D01*
X103557608Y-166897224D01*
X103557313Y-166895975D01*
X103598539Y-166720336D01*
X103652136Y-166554453D01*
X103728539Y-166416584D01*
X103827877Y-166306584D01*
X103950277Y-166224307D01*
X104077572Y-166174604D01*
X104155635Y-166147770D01*
X104209216Y-166116801D01*
X104245769Y-166080422D01*
X104325247Y-165992582D01*
X104429336Y-165893186D01*
X104551148Y-165788429D01*
X104683795Y-165684506D01*
X104696381Y-165675145D01*
X104779362Y-165612032D01*
X104841496Y-165559121D01*
X104892110Y-165506701D01*
X104940533Y-165445056D01*
X104996093Y-165364473D01*
X104999193Y-165359822D01*
X105045799Y-165288499D01*
X105083923Y-165227638D01*
X105109598Y-165183748D01*
X105118861Y-165163424D01*
X105130610Y-165135102D01*
X105164242Y-165083082D01*
X105217333Y-165010430D01*
X105287462Y-164920218D01*
X105372205Y-164815513D01*
X105469140Y-164699385D01*
X105575843Y-164574903D01*
X105653414Y-164486291D01*
X105724266Y-164404725D01*
X105799286Y-164316206D01*
X105867909Y-164233299D01*
X105905951Y-164186002D01*
X105963060Y-164117976D01*
X106039225Y-164033342D01*
X106127913Y-163938792D01*
X106222590Y-163841017D01*
X106316722Y-163746709D01*
X106403776Y-163662561D01*
X106477218Y-163595263D01*
X106509650Y-163567686D01*
X106589764Y-163502468D01*
X106524609Y-163378458D01*
X106483208Y-163285346D01*
X106443053Y-163169743D01*
X106406973Y-163042687D01*
X106377798Y-162915216D01*
X106358357Y-162798368D01*
X106351478Y-162703181D01*
X106351479Y-162703061D01*
X106356417Y-162629780D01*
X106369077Y-162538329D01*
X106387030Y-162445238D01*
X106393166Y-162419132D01*
X106423610Y-162315277D01*
X106461966Y-162227463D01*
X106514112Y-162146175D01*
X106585925Y-162061901D01*
X106659771Y-161987591D01*
X106726568Y-161924442D01*
X106783583Y-161875396D01*
X106837760Y-161837002D01*
X106896041Y-161805807D01*
X106965370Y-161778356D01*
X107052689Y-161751198D01*
X107164942Y-161720879D01*
X107229502Y-161704244D01*
X107279704Y-161689828D01*
X107301141Y-161673345D01*
X107298896Y-161644064D01*
X107280393Y-161596848D01*
X107256031Y-161527663D01*
X107228957Y-161433334D01*
X107201673Y-161324493D01*
X107176678Y-161211777D01*
X107156471Y-161105818D01*
X107143554Y-161017250D01*
X107143067Y-161012740D01*
X107131601Y-160920419D01*
X107115888Y-160814899D01*
X107099238Y-160718337D01*
X107098499Y-160714449D01*
X107075801Y-160550670D01*
X107066337Y-160364172D01*
X107070130Y-160151996D01*
X107087206Y-159911181D01*
X107106460Y-159729182D01*
X107115484Y-159645888D01*
X107122233Y-159570581D01*
X107125799Y-159514125D01*
X107126063Y-159494661D01*
X107129362Y-159450203D01*
X107139644Y-159384740D01*
X107154703Y-159312239D01*
X107155139Y-159310384D01*
X107169167Y-159248807D01*
X107174769Y-159203602D01*
X107168214Y-159167775D01*
X107145770Y-159134331D01*
X107103707Y-159096276D01*
X107038293Y-159046615D01*
X106999004Y-159017704D01*
X106913448Y-158951121D01*
X106820092Y-158872413D01*
X106725602Y-158787803D01*
X106636649Y-158703515D01*
X106559900Y-158625773D01*
X106502024Y-158560801D01*
X106483009Y-158536123D01*
X106444723Y-158467328D01*
X106410354Y-158372275D01*
X106384609Y-158275013D01*
X106341208Y-158091162D01*
X106391837Y-157883575D01*
X106417180Y-157785617D01*
X106440378Y-157713020D01*
X106465639Y-157655549D01*
X106497171Y-157602970D01*
X106521045Y-157569248D01*
X106603667Y-157472821D01*
X106702266Y-157382244D01*
X106804418Y-157308310D01*
X106853125Y-157280864D01*
X106900074Y-157261965D01*
X106970028Y-157239203D01*
X107050675Y-157216466D01*
X107082924Y-157208310D01*
X107160557Y-157188625D01*
X107209919Y-157173035D01*
X107238060Y-157157906D01*
X107252031Y-157139606D01*
X107258204Y-157117985D01*
X107259701Y-157072932D01*
X107253037Y-157009379D01*
X107244018Y-156961341D01*
X107227358Y-156870760D01*
X107220653Y-156782727D01*
X107224503Y-156689422D01*
X107239508Y-156583026D01*
X107266267Y-156455720D01*
X107290370Y-156357580D01*
X107321510Y-156236559D01*
X107346378Y-156144301D01*
X107367420Y-156074481D01*
X107387082Y-156020771D01*
X107407810Y-155976846D01*
X107432050Y-155936379D01*
X107462248Y-155893044D01*
X107478662Y-155870611D01*
X107572017Y-155762348D01*
X107675661Y-155681286D01*
X107798331Y-155621664D01*
X107908185Y-155587527D01*
X108041471Y-155558659D01*
X108157897Y-155547356D01*
X108272206Y-155553616D01*
M02*
