G04 #@! TF.GenerationSoftware,KiCad,Pcbnew,(5.1.2-1)-1*
G04 #@! TF.CreationDate,2022-02-06T13:22:23-05:00*
G04 #@! TF.ProjectId,Wasp_Hive,57617370-5f48-4697-9665-2e6b69636164,rev?*
G04 #@! TF.SameCoordinates,Original*
G04 #@! TF.FileFunction,Paste,Bot*
G04 #@! TF.FilePolarity,Positive*
%FSLAX46Y46*%
G04 Gerber Fmt 4.6, Leading zero omitted, Abs format (unit mm)*
G04 Created by KiCad (PCBNEW (5.1.2-1)-1) date 2022-02-06 13:22:23*
%MOMM*%
%LPD*%
G04 APERTURE LIST*
%ADD10C,0.100000*%
%ADD11C,1.425000*%
G04 APERTURE END LIST*
D10*
G36*
X50649504Y-192801204D02*
G01*
X50673773Y-192804804D01*
X50697571Y-192810765D01*
X50720671Y-192819030D01*
X50742849Y-192829520D01*
X50763893Y-192842133D01*
X50783598Y-192856747D01*
X50801777Y-192873223D01*
X50818253Y-192891402D01*
X50832867Y-192911107D01*
X50845480Y-192932151D01*
X50855970Y-192954329D01*
X50864235Y-192977429D01*
X50870196Y-193001227D01*
X50873796Y-193025496D01*
X50875000Y-193050000D01*
X50875000Y-193975000D01*
X50873796Y-193999504D01*
X50870196Y-194023773D01*
X50864235Y-194047571D01*
X50855970Y-194070671D01*
X50845480Y-194092849D01*
X50832867Y-194113893D01*
X50818253Y-194133598D01*
X50801777Y-194151777D01*
X50783598Y-194168253D01*
X50763893Y-194182867D01*
X50742849Y-194195480D01*
X50720671Y-194205970D01*
X50697571Y-194214235D01*
X50673773Y-194220196D01*
X50649504Y-194223796D01*
X50625000Y-194225000D01*
X49375000Y-194225000D01*
X49350496Y-194223796D01*
X49326227Y-194220196D01*
X49302429Y-194214235D01*
X49279329Y-194205970D01*
X49257151Y-194195480D01*
X49236107Y-194182867D01*
X49216402Y-194168253D01*
X49198223Y-194151777D01*
X49181747Y-194133598D01*
X49167133Y-194113893D01*
X49154520Y-194092849D01*
X49144030Y-194070671D01*
X49135765Y-194047571D01*
X49129804Y-194023773D01*
X49126204Y-193999504D01*
X49125000Y-193975000D01*
X49125000Y-193050000D01*
X49126204Y-193025496D01*
X49129804Y-193001227D01*
X49135765Y-192977429D01*
X49144030Y-192954329D01*
X49154520Y-192932151D01*
X49167133Y-192911107D01*
X49181747Y-192891402D01*
X49198223Y-192873223D01*
X49216402Y-192856747D01*
X49236107Y-192842133D01*
X49257151Y-192829520D01*
X49279329Y-192819030D01*
X49302429Y-192810765D01*
X49326227Y-192804804D01*
X49350496Y-192801204D01*
X49375000Y-192800000D01*
X50625000Y-192800000D01*
X50649504Y-192801204D01*
X50649504Y-192801204D01*
G37*
D11*
X50000000Y-193512500D03*
D10*
G36*
X50649504Y-195776204D02*
G01*
X50673773Y-195779804D01*
X50697571Y-195785765D01*
X50720671Y-195794030D01*
X50742849Y-195804520D01*
X50763893Y-195817133D01*
X50783598Y-195831747D01*
X50801777Y-195848223D01*
X50818253Y-195866402D01*
X50832867Y-195886107D01*
X50845480Y-195907151D01*
X50855970Y-195929329D01*
X50864235Y-195952429D01*
X50870196Y-195976227D01*
X50873796Y-196000496D01*
X50875000Y-196025000D01*
X50875000Y-196950000D01*
X50873796Y-196974504D01*
X50870196Y-196998773D01*
X50864235Y-197022571D01*
X50855970Y-197045671D01*
X50845480Y-197067849D01*
X50832867Y-197088893D01*
X50818253Y-197108598D01*
X50801777Y-197126777D01*
X50783598Y-197143253D01*
X50763893Y-197157867D01*
X50742849Y-197170480D01*
X50720671Y-197180970D01*
X50697571Y-197189235D01*
X50673773Y-197195196D01*
X50649504Y-197198796D01*
X50625000Y-197200000D01*
X49375000Y-197200000D01*
X49350496Y-197198796D01*
X49326227Y-197195196D01*
X49302429Y-197189235D01*
X49279329Y-197180970D01*
X49257151Y-197170480D01*
X49236107Y-197157867D01*
X49216402Y-197143253D01*
X49198223Y-197126777D01*
X49181747Y-197108598D01*
X49167133Y-197088893D01*
X49154520Y-197067849D01*
X49144030Y-197045671D01*
X49135765Y-197022571D01*
X49129804Y-196998773D01*
X49126204Y-196974504D01*
X49125000Y-196950000D01*
X49125000Y-196025000D01*
X49126204Y-196000496D01*
X49129804Y-195976227D01*
X49135765Y-195952429D01*
X49144030Y-195929329D01*
X49154520Y-195907151D01*
X49167133Y-195886107D01*
X49181747Y-195866402D01*
X49198223Y-195848223D01*
X49216402Y-195831747D01*
X49236107Y-195817133D01*
X49257151Y-195804520D01*
X49279329Y-195794030D01*
X49302429Y-195785765D01*
X49326227Y-195779804D01*
X49350496Y-195776204D01*
X49375000Y-195775000D01*
X50625000Y-195775000D01*
X50649504Y-195776204D01*
X50649504Y-195776204D01*
G37*
D11*
X50000000Y-196487500D03*
D10*
G36*
X50649504Y-207801204D02*
G01*
X50673773Y-207804804D01*
X50697571Y-207810765D01*
X50720671Y-207819030D01*
X50742849Y-207829520D01*
X50763893Y-207842133D01*
X50783598Y-207856747D01*
X50801777Y-207873223D01*
X50818253Y-207891402D01*
X50832867Y-207911107D01*
X50845480Y-207932151D01*
X50855970Y-207954329D01*
X50864235Y-207977429D01*
X50870196Y-208001227D01*
X50873796Y-208025496D01*
X50875000Y-208050000D01*
X50875000Y-208975000D01*
X50873796Y-208999504D01*
X50870196Y-209023773D01*
X50864235Y-209047571D01*
X50855970Y-209070671D01*
X50845480Y-209092849D01*
X50832867Y-209113893D01*
X50818253Y-209133598D01*
X50801777Y-209151777D01*
X50783598Y-209168253D01*
X50763893Y-209182867D01*
X50742849Y-209195480D01*
X50720671Y-209205970D01*
X50697571Y-209214235D01*
X50673773Y-209220196D01*
X50649504Y-209223796D01*
X50625000Y-209225000D01*
X49375000Y-209225000D01*
X49350496Y-209223796D01*
X49326227Y-209220196D01*
X49302429Y-209214235D01*
X49279329Y-209205970D01*
X49257151Y-209195480D01*
X49236107Y-209182867D01*
X49216402Y-209168253D01*
X49198223Y-209151777D01*
X49181747Y-209133598D01*
X49167133Y-209113893D01*
X49154520Y-209092849D01*
X49144030Y-209070671D01*
X49135765Y-209047571D01*
X49129804Y-209023773D01*
X49126204Y-208999504D01*
X49125000Y-208975000D01*
X49125000Y-208050000D01*
X49126204Y-208025496D01*
X49129804Y-208001227D01*
X49135765Y-207977429D01*
X49144030Y-207954329D01*
X49154520Y-207932151D01*
X49167133Y-207911107D01*
X49181747Y-207891402D01*
X49198223Y-207873223D01*
X49216402Y-207856747D01*
X49236107Y-207842133D01*
X49257151Y-207829520D01*
X49279329Y-207819030D01*
X49302429Y-207810765D01*
X49326227Y-207804804D01*
X49350496Y-207801204D01*
X49375000Y-207800000D01*
X50625000Y-207800000D01*
X50649504Y-207801204D01*
X50649504Y-207801204D01*
G37*
D11*
X50000000Y-208512500D03*
D10*
G36*
X50649504Y-210776204D02*
G01*
X50673773Y-210779804D01*
X50697571Y-210785765D01*
X50720671Y-210794030D01*
X50742849Y-210804520D01*
X50763893Y-210817133D01*
X50783598Y-210831747D01*
X50801777Y-210848223D01*
X50818253Y-210866402D01*
X50832867Y-210886107D01*
X50845480Y-210907151D01*
X50855970Y-210929329D01*
X50864235Y-210952429D01*
X50870196Y-210976227D01*
X50873796Y-211000496D01*
X50875000Y-211025000D01*
X50875000Y-211950000D01*
X50873796Y-211974504D01*
X50870196Y-211998773D01*
X50864235Y-212022571D01*
X50855970Y-212045671D01*
X50845480Y-212067849D01*
X50832867Y-212088893D01*
X50818253Y-212108598D01*
X50801777Y-212126777D01*
X50783598Y-212143253D01*
X50763893Y-212157867D01*
X50742849Y-212170480D01*
X50720671Y-212180970D01*
X50697571Y-212189235D01*
X50673773Y-212195196D01*
X50649504Y-212198796D01*
X50625000Y-212200000D01*
X49375000Y-212200000D01*
X49350496Y-212198796D01*
X49326227Y-212195196D01*
X49302429Y-212189235D01*
X49279329Y-212180970D01*
X49257151Y-212170480D01*
X49236107Y-212157867D01*
X49216402Y-212143253D01*
X49198223Y-212126777D01*
X49181747Y-212108598D01*
X49167133Y-212088893D01*
X49154520Y-212067849D01*
X49144030Y-212045671D01*
X49135765Y-212022571D01*
X49129804Y-211998773D01*
X49126204Y-211974504D01*
X49125000Y-211950000D01*
X49125000Y-211025000D01*
X49126204Y-211000496D01*
X49129804Y-210976227D01*
X49135765Y-210952429D01*
X49144030Y-210929329D01*
X49154520Y-210907151D01*
X49167133Y-210886107D01*
X49181747Y-210866402D01*
X49198223Y-210848223D01*
X49216402Y-210831747D01*
X49236107Y-210817133D01*
X49257151Y-210804520D01*
X49279329Y-210794030D01*
X49302429Y-210785765D01*
X49326227Y-210779804D01*
X49350496Y-210776204D01*
X49375000Y-210775000D01*
X50625000Y-210775000D01*
X50649504Y-210776204D01*
X50649504Y-210776204D01*
G37*
D11*
X50000000Y-211487500D03*
D10*
G36*
X65649504Y-222801204D02*
G01*
X65673773Y-222804804D01*
X65697571Y-222810765D01*
X65720671Y-222819030D01*
X65742849Y-222829520D01*
X65763893Y-222842133D01*
X65783598Y-222856747D01*
X65801777Y-222873223D01*
X65818253Y-222891402D01*
X65832867Y-222911107D01*
X65845480Y-222932151D01*
X65855970Y-222954329D01*
X65864235Y-222977429D01*
X65870196Y-223001227D01*
X65873796Y-223025496D01*
X65875000Y-223050000D01*
X65875000Y-223975000D01*
X65873796Y-223999504D01*
X65870196Y-224023773D01*
X65864235Y-224047571D01*
X65855970Y-224070671D01*
X65845480Y-224092849D01*
X65832867Y-224113893D01*
X65818253Y-224133598D01*
X65801777Y-224151777D01*
X65783598Y-224168253D01*
X65763893Y-224182867D01*
X65742849Y-224195480D01*
X65720671Y-224205970D01*
X65697571Y-224214235D01*
X65673773Y-224220196D01*
X65649504Y-224223796D01*
X65625000Y-224225000D01*
X64375000Y-224225000D01*
X64350496Y-224223796D01*
X64326227Y-224220196D01*
X64302429Y-224214235D01*
X64279329Y-224205970D01*
X64257151Y-224195480D01*
X64236107Y-224182867D01*
X64216402Y-224168253D01*
X64198223Y-224151777D01*
X64181747Y-224133598D01*
X64167133Y-224113893D01*
X64154520Y-224092849D01*
X64144030Y-224070671D01*
X64135765Y-224047571D01*
X64129804Y-224023773D01*
X64126204Y-223999504D01*
X64125000Y-223975000D01*
X64125000Y-223050000D01*
X64126204Y-223025496D01*
X64129804Y-223001227D01*
X64135765Y-222977429D01*
X64144030Y-222954329D01*
X64154520Y-222932151D01*
X64167133Y-222911107D01*
X64181747Y-222891402D01*
X64198223Y-222873223D01*
X64216402Y-222856747D01*
X64236107Y-222842133D01*
X64257151Y-222829520D01*
X64279329Y-222819030D01*
X64302429Y-222810765D01*
X64326227Y-222804804D01*
X64350496Y-222801204D01*
X64375000Y-222800000D01*
X65625000Y-222800000D01*
X65649504Y-222801204D01*
X65649504Y-222801204D01*
G37*
D11*
X65000000Y-223512500D03*
D10*
G36*
X65649504Y-225776204D02*
G01*
X65673773Y-225779804D01*
X65697571Y-225785765D01*
X65720671Y-225794030D01*
X65742849Y-225804520D01*
X65763893Y-225817133D01*
X65783598Y-225831747D01*
X65801777Y-225848223D01*
X65818253Y-225866402D01*
X65832867Y-225886107D01*
X65845480Y-225907151D01*
X65855970Y-225929329D01*
X65864235Y-225952429D01*
X65870196Y-225976227D01*
X65873796Y-226000496D01*
X65875000Y-226025000D01*
X65875000Y-226950000D01*
X65873796Y-226974504D01*
X65870196Y-226998773D01*
X65864235Y-227022571D01*
X65855970Y-227045671D01*
X65845480Y-227067849D01*
X65832867Y-227088893D01*
X65818253Y-227108598D01*
X65801777Y-227126777D01*
X65783598Y-227143253D01*
X65763893Y-227157867D01*
X65742849Y-227170480D01*
X65720671Y-227180970D01*
X65697571Y-227189235D01*
X65673773Y-227195196D01*
X65649504Y-227198796D01*
X65625000Y-227200000D01*
X64375000Y-227200000D01*
X64350496Y-227198796D01*
X64326227Y-227195196D01*
X64302429Y-227189235D01*
X64279329Y-227180970D01*
X64257151Y-227170480D01*
X64236107Y-227157867D01*
X64216402Y-227143253D01*
X64198223Y-227126777D01*
X64181747Y-227108598D01*
X64167133Y-227088893D01*
X64154520Y-227067849D01*
X64144030Y-227045671D01*
X64135765Y-227022571D01*
X64129804Y-226998773D01*
X64126204Y-226974504D01*
X64125000Y-226950000D01*
X64125000Y-226025000D01*
X64126204Y-226000496D01*
X64129804Y-225976227D01*
X64135765Y-225952429D01*
X64144030Y-225929329D01*
X64154520Y-225907151D01*
X64167133Y-225886107D01*
X64181747Y-225866402D01*
X64198223Y-225848223D01*
X64216402Y-225831747D01*
X64236107Y-225817133D01*
X64257151Y-225804520D01*
X64279329Y-225794030D01*
X64302429Y-225785765D01*
X64326227Y-225779804D01*
X64350496Y-225776204D01*
X64375000Y-225775000D01*
X65625000Y-225775000D01*
X65649504Y-225776204D01*
X65649504Y-225776204D01*
G37*
D11*
X65000000Y-226487500D03*
D10*
G36*
X80649504Y-222801204D02*
G01*
X80673773Y-222804804D01*
X80697571Y-222810765D01*
X80720671Y-222819030D01*
X80742849Y-222829520D01*
X80763893Y-222842133D01*
X80783598Y-222856747D01*
X80801777Y-222873223D01*
X80818253Y-222891402D01*
X80832867Y-222911107D01*
X80845480Y-222932151D01*
X80855970Y-222954329D01*
X80864235Y-222977429D01*
X80870196Y-223001227D01*
X80873796Y-223025496D01*
X80875000Y-223050000D01*
X80875000Y-223975000D01*
X80873796Y-223999504D01*
X80870196Y-224023773D01*
X80864235Y-224047571D01*
X80855970Y-224070671D01*
X80845480Y-224092849D01*
X80832867Y-224113893D01*
X80818253Y-224133598D01*
X80801777Y-224151777D01*
X80783598Y-224168253D01*
X80763893Y-224182867D01*
X80742849Y-224195480D01*
X80720671Y-224205970D01*
X80697571Y-224214235D01*
X80673773Y-224220196D01*
X80649504Y-224223796D01*
X80625000Y-224225000D01*
X79375000Y-224225000D01*
X79350496Y-224223796D01*
X79326227Y-224220196D01*
X79302429Y-224214235D01*
X79279329Y-224205970D01*
X79257151Y-224195480D01*
X79236107Y-224182867D01*
X79216402Y-224168253D01*
X79198223Y-224151777D01*
X79181747Y-224133598D01*
X79167133Y-224113893D01*
X79154520Y-224092849D01*
X79144030Y-224070671D01*
X79135765Y-224047571D01*
X79129804Y-224023773D01*
X79126204Y-223999504D01*
X79125000Y-223975000D01*
X79125000Y-223050000D01*
X79126204Y-223025496D01*
X79129804Y-223001227D01*
X79135765Y-222977429D01*
X79144030Y-222954329D01*
X79154520Y-222932151D01*
X79167133Y-222911107D01*
X79181747Y-222891402D01*
X79198223Y-222873223D01*
X79216402Y-222856747D01*
X79236107Y-222842133D01*
X79257151Y-222829520D01*
X79279329Y-222819030D01*
X79302429Y-222810765D01*
X79326227Y-222804804D01*
X79350496Y-222801204D01*
X79375000Y-222800000D01*
X80625000Y-222800000D01*
X80649504Y-222801204D01*
X80649504Y-222801204D01*
G37*
D11*
X80000000Y-223512500D03*
D10*
G36*
X80649504Y-225776204D02*
G01*
X80673773Y-225779804D01*
X80697571Y-225785765D01*
X80720671Y-225794030D01*
X80742849Y-225804520D01*
X80763893Y-225817133D01*
X80783598Y-225831747D01*
X80801777Y-225848223D01*
X80818253Y-225866402D01*
X80832867Y-225886107D01*
X80845480Y-225907151D01*
X80855970Y-225929329D01*
X80864235Y-225952429D01*
X80870196Y-225976227D01*
X80873796Y-226000496D01*
X80875000Y-226025000D01*
X80875000Y-226950000D01*
X80873796Y-226974504D01*
X80870196Y-226998773D01*
X80864235Y-227022571D01*
X80855970Y-227045671D01*
X80845480Y-227067849D01*
X80832867Y-227088893D01*
X80818253Y-227108598D01*
X80801777Y-227126777D01*
X80783598Y-227143253D01*
X80763893Y-227157867D01*
X80742849Y-227170480D01*
X80720671Y-227180970D01*
X80697571Y-227189235D01*
X80673773Y-227195196D01*
X80649504Y-227198796D01*
X80625000Y-227200000D01*
X79375000Y-227200000D01*
X79350496Y-227198796D01*
X79326227Y-227195196D01*
X79302429Y-227189235D01*
X79279329Y-227180970D01*
X79257151Y-227170480D01*
X79236107Y-227157867D01*
X79216402Y-227143253D01*
X79198223Y-227126777D01*
X79181747Y-227108598D01*
X79167133Y-227088893D01*
X79154520Y-227067849D01*
X79144030Y-227045671D01*
X79135765Y-227022571D01*
X79129804Y-226998773D01*
X79126204Y-226974504D01*
X79125000Y-226950000D01*
X79125000Y-226025000D01*
X79126204Y-226000496D01*
X79129804Y-225976227D01*
X79135765Y-225952429D01*
X79144030Y-225929329D01*
X79154520Y-225907151D01*
X79167133Y-225886107D01*
X79181747Y-225866402D01*
X79198223Y-225848223D01*
X79216402Y-225831747D01*
X79236107Y-225817133D01*
X79257151Y-225804520D01*
X79279329Y-225794030D01*
X79302429Y-225785765D01*
X79326227Y-225779804D01*
X79350496Y-225776204D01*
X79375000Y-225775000D01*
X80625000Y-225775000D01*
X80649504Y-225776204D01*
X80649504Y-225776204D01*
G37*
D11*
X80000000Y-226487500D03*
D10*
G36*
X95649504Y-222801204D02*
G01*
X95673773Y-222804804D01*
X95697571Y-222810765D01*
X95720671Y-222819030D01*
X95742849Y-222829520D01*
X95763893Y-222842133D01*
X95783598Y-222856747D01*
X95801777Y-222873223D01*
X95818253Y-222891402D01*
X95832867Y-222911107D01*
X95845480Y-222932151D01*
X95855970Y-222954329D01*
X95864235Y-222977429D01*
X95870196Y-223001227D01*
X95873796Y-223025496D01*
X95875000Y-223050000D01*
X95875000Y-223975000D01*
X95873796Y-223999504D01*
X95870196Y-224023773D01*
X95864235Y-224047571D01*
X95855970Y-224070671D01*
X95845480Y-224092849D01*
X95832867Y-224113893D01*
X95818253Y-224133598D01*
X95801777Y-224151777D01*
X95783598Y-224168253D01*
X95763893Y-224182867D01*
X95742849Y-224195480D01*
X95720671Y-224205970D01*
X95697571Y-224214235D01*
X95673773Y-224220196D01*
X95649504Y-224223796D01*
X95625000Y-224225000D01*
X94375000Y-224225000D01*
X94350496Y-224223796D01*
X94326227Y-224220196D01*
X94302429Y-224214235D01*
X94279329Y-224205970D01*
X94257151Y-224195480D01*
X94236107Y-224182867D01*
X94216402Y-224168253D01*
X94198223Y-224151777D01*
X94181747Y-224133598D01*
X94167133Y-224113893D01*
X94154520Y-224092849D01*
X94144030Y-224070671D01*
X94135765Y-224047571D01*
X94129804Y-224023773D01*
X94126204Y-223999504D01*
X94125000Y-223975000D01*
X94125000Y-223050000D01*
X94126204Y-223025496D01*
X94129804Y-223001227D01*
X94135765Y-222977429D01*
X94144030Y-222954329D01*
X94154520Y-222932151D01*
X94167133Y-222911107D01*
X94181747Y-222891402D01*
X94198223Y-222873223D01*
X94216402Y-222856747D01*
X94236107Y-222842133D01*
X94257151Y-222829520D01*
X94279329Y-222819030D01*
X94302429Y-222810765D01*
X94326227Y-222804804D01*
X94350496Y-222801204D01*
X94375000Y-222800000D01*
X95625000Y-222800000D01*
X95649504Y-222801204D01*
X95649504Y-222801204D01*
G37*
D11*
X95000000Y-223512500D03*
D10*
G36*
X95649504Y-225776204D02*
G01*
X95673773Y-225779804D01*
X95697571Y-225785765D01*
X95720671Y-225794030D01*
X95742849Y-225804520D01*
X95763893Y-225817133D01*
X95783598Y-225831747D01*
X95801777Y-225848223D01*
X95818253Y-225866402D01*
X95832867Y-225886107D01*
X95845480Y-225907151D01*
X95855970Y-225929329D01*
X95864235Y-225952429D01*
X95870196Y-225976227D01*
X95873796Y-226000496D01*
X95875000Y-226025000D01*
X95875000Y-226950000D01*
X95873796Y-226974504D01*
X95870196Y-226998773D01*
X95864235Y-227022571D01*
X95855970Y-227045671D01*
X95845480Y-227067849D01*
X95832867Y-227088893D01*
X95818253Y-227108598D01*
X95801777Y-227126777D01*
X95783598Y-227143253D01*
X95763893Y-227157867D01*
X95742849Y-227170480D01*
X95720671Y-227180970D01*
X95697571Y-227189235D01*
X95673773Y-227195196D01*
X95649504Y-227198796D01*
X95625000Y-227200000D01*
X94375000Y-227200000D01*
X94350496Y-227198796D01*
X94326227Y-227195196D01*
X94302429Y-227189235D01*
X94279329Y-227180970D01*
X94257151Y-227170480D01*
X94236107Y-227157867D01*
X94216402Y-227143253D01*
X94198223Y-227126777D01*
X94181747Y-227108598D01*
X94167133Y-227088893D01*
X94154520Y-227067849D01*
X94144030Y-227045671D01*
X94135765Y-227022571D01*
X94129804Y-226998773D01*
X94126204Y-226974504D01*
X94125000Y-226950000D01*
X94125000Y-226025000D01*
X94126204Y-226000496D01*
X94129804Y-225976227D01*
X94135765Y-225952429D01*
X94144030Y-225929329D01*
X94154520Y-225907151D01*
X94167133Y-225886107D01*
X94181747Y-225866402D01*
X94198223Y-225848223D01*
X94216402Y-225831747D01*
X94236107Y-225817133D01*
X94257151Y-225804520D01*
X94279329Y-225794030D01*
X94302429Y-225785765D01*
X94326227Y-225779804D01*
X94350496Y-225776204D01*
X94375000Y-225775000D01*
X95625000Y-225775000D01*
X95649504Y-225776204D01*
X95649504Y-225776204D01*
G37*
D11*
X95000000Y-226487500D03*
D10*
G36*
X110649504Y-222801204D02*
G01*
X110673773Y-222804804D01*
X110697571Y-222810765D01*
X110720671Y-222819030D01*
X110742849Y-222829520D01*
X110763893Y-222842133D01*
X110783598Y-222856747D01*
X110801777Y-222873223D01*
X110818253Y-222891402D01*
X110832867Y-222911107D01*
X110845480Y-222932151D01*
X110855970Y-222954329D01*
X110864235Y-222977429D01*
X110870196Y-223001227D01*
X110873796Y-223025496D01*
X110875000Y-223050000D01*
X110875000Y-223975000D01*
X110873796Y-223999504D01*
X110870196Y-224023773D01*
X110864235Y-224047571D01*
X110855970Y-224070671D01*
X110845480Y-224092849D01*
X110832867Y-224113893D01*
X110818253Y-224133598D01*
X110801777Y-224151777D01*
X110783598Y-224168253D01*
X110763893Y-224182867D01*
X110742849Y-224195480D01*
X110720671Y-224205970D01*
X110697571Y-224214235D01*
X110673773Y-224220196D01*
X110649504Y-224223796D01*
X110625000Y-224225000D01*
X109375000Y-224225000D01*
X109350496Y-224223796D01*
X109326227Y-224220196D01*
X109302429Y-224214235D01*
X109279329Y-224205970D01*
X109257151Y-224195480D01*
X109236107Y-224182867D01*
X109216402Y-224168253D01*
X109198223Y-224151777D01*
X109181747Y-224133598D01*
X109167133Y-224113893D01*
X109154520Y-224092849D01*
X109144030Y-224070671D01*
X109135765Y-224047571D01*
X109129804Y-224023773D01*
X109126204Y-223999504D01*
X109125000Y-223975000D01*
X109125000Y-223050000D01*
X109126204Y-223025496D01*
X109129804Y-223001227D01*
X109135765Y-222977429D01*
X109144030Y-222954329D01*
X109154520Y-222932151D01*
X109167133Y-222911107D01*
X109181747Y-222891402D01*
X109198223Y-222873223D01*
X109216402Y-222856747D01*
X109236107Y-222842133D01*
X109257151Y-222829520D01*
X109279329Y-222819030D01*
X109302429Y-222810765D01*
X109326227Y-222804804D01*
X109350496Y-222801204D01*
X109375000Y-222800000D01*
X110625000Y-222800000D01*
X110649504Y-222801204D01*
X110649504Y-222801204D01*
G37*
D11*
X110000000Y-223512500D03*
D10*
G36*
X110649504Y-225776204D02*
G01*
X110673773Y-225779804D01*
X110697571Y-225785765D01*
X110720671Y-225794030D01*
X110742849Y-225804520D01*
X110763893Y-225817133D01*
X110783598Y-225831747D01*
X110801777Y-225848223D01*
X110818253Y-225866402D01*
X110832867Y-225886107D01*
X110845480Y-225907151D01*
X110855970Y-225929329D01*
X110864235Y-225952429D01*
X110870196Y-225976227D01*
X110873796Y-226000496D01*
X110875000Y-226025000D01*
X110875000Y-226950000D01*
X110873796Y-226974504D01*
X110870196Y-226998773D01*
X110864235Y-227022571D01*
X110855970Y-227045671D01*
X110845480Y-227067849D01*
X110832867Y-227088893D01*
X110818253Y-227108598D01*
X110801777Y-227126777D01*
X110783598Y-227143253D01*
X110763893Y-227157867D01*
X110742849Y-227170480D01*
X110720671Y-227180970D01*
X110697571Y-227189235D01*
X110673773Y-227195196D01*
X110649504Y-227198796D01*
X110625000Y-227200000D01*
X109375000Y-227200000D01*
X109350496Y-227198796D01*
X109326227Y-227195196D01*
X109302429Y-227189235D01*
X109279329Y-227180970D01*
X109257151Y-227170480D01*
X109236107Y-227157867D01*
X109216402Y-227143253D01*
X109198223Y-227126777D01*
X109181747Y-227108598D01*
X109167133Y-227088893D01*
X109154520Y-227067849D01*
X109144030Y-227045671D01*
X109135765Y-227022571D01*
X109129804Y-226998773D01*
X109126204Y-226974504D01*
X109125000Y-226950000D01*
X109125000Y-226025000D01*
X109126204Y-226000496D01*
X109129804Y-225976227D01*
X109135765Y-225952429D01*
X109144030Y-225929329D01*
X109154520Y-225907151D01*
X109167133Y-225886107D01*
X109181747Y-225866402D01*
X109198223Y-225848223D01*
X109216402Y-225831747D01*
X109236107Y-225817133D01*
X109257151Y-225804520D01*
X109279329Y-225794030D01*
X109302429Y-225785765D01*
X109326227Y-225779804D01*
X109350496Y-225776204D01*
X109375000Y-225775000D01*
X110625000Y-225775000D01*
X110649504Y-225776204D01*
X110649504Y-225776204D01*
G37*
D11*
X110000000Y-226487500D03*
D10*
G36*
X125649504Y-222801204D02*
G01*
X125673773Y-222804804D01*
X125697571Y-222810765D01*
X125720671Y-222819030D01*
X125742849Y-222829520D01*
X125763893Y-222842133D01*
X125783598Y-222856747D01*
X125801777Y-222873223D01*
X125818253Y-222891402D01*
X125832867Y-222911107D01*
X125845480Y-222932151D01*
X125855970Y-222954329D01*
X125864235Y-222977429D01*
X125870196Y-223001227D01*
X125873796Y-223025496D01*
X125875000Y-223050000D01*
X125875000Y-223975000D01*
X125873796Y-223999504D01*
X125870196Y-224023773D01*
X125864235Y-224047571D01*
X125855970Y-224070671D01*
X125845480Y-224092849D01*
X125832867Y-224113893D01*
X125818253Y-224133598D01*
X125801777Y-224151777D01*
X125783598Y-224168253D01*
X125763893Y-224182867D01*
X125742849Y-224195480D01*
X125720671Y-224205970D01*
X125697571Y-224214235D01*
X125673773Y-224220196D01*
X125649504Y-224223796D01*
X125625000Y-224225000D01*
X124375000Y-224225000D01*
X124350496Y-224223796D01*
X124326227Y-224220196D01*
X124302429Y-224214235D01*
X124279329Y-224205970D01*
X124257151Y-224195480D01*
X124236107Y-224182867D01*
X124216402Y-224168253D01*
X124198223Y-224151777D01*
X124181747Y-224133598D01*
X124167133Y-224113893D01*
X124154520Y-224092849D01*
X124144030Y-224070671D01*
X124135765Y-224047571D01*
X124129804Y-224023773D01*
X124126204Y-223999504D01*
X124125000Y-223975000D01*
X124125000Y-223050000D01*
X124126204Y-223025496D01*
X124129804Y-223001227D01*
X124135765Y-222977429D01*
X124144030Y-222954329D01*
X124154520Y-222932151D01*
X124167133Y-222911107D01*
X124181747Y-222891402D01*
X124198223Y-222873223D01*
X124216402Y-222856747D01*
X124236107Y-222842133D01*
X124257151Y-222829520D01*
X124279329Y-222819030D01*
X124302429Y-222810765D01*
X124326227Y-222804804D01*
X124350496Y-222801204D01*
X124375000Y-222800000D01*
X125625000Y-222800000D01*
X125649504Y-222801204D01*
X125649504Y-222801204D01*
G37*
D11*
X125000000Y-223512500D03*
D10*
G36*
X125649504Y-225776204D02*
G01*
X125673773Y-225779804D01*
X125697571Y-225785765D01*
X125720671Y-225794030D01*
X125742849Y-225804520D01*
X125763893Y-225817133D01*
X125783598Y-225831747D01*
X125801777Y-225848223D01*
X125818253Y-225866402D01*
X125832867Y-225886107D01*
X125845480Y-225907151D01*
X125855970Y-225929329D01*
X125864235Y-225952429D01*
X125870196Y-225976227D01*
X125873796Y-226000496D01*
X125875000Y-226025000D01*
X125875000Y-226950000D01*
X125873796Y-226974504D01*
X125870196Y-226998773D01*
X125864235Y-227022571D01*
X125855970Y-227045671D01*
X125845480Y-227067849D01*
X125832867Y-227088893D01*
X125818253Y-227108598D01*
X125801777Y-227126777D01*
X125783598Y-227143253D01*
X125763893Y-227157867D01*
X125742849Y-227170480D01*
X125720671Y-227180970D01*
X125697571Y-227189235D01*
X125673773Y-227195196D01*
X125649504Y-227198796D01*
X125625000Y-227200000D01*
X124375000Y-227200000D01*
X124350496Y-227198796D01*
X124326227Y-227195196D01*
X124302429Y-227189235D01*
X124279329Y-227180970D01*
X124257151Y-227170480D01*
X124236107Y-227157867D01*
X124216402Y-227143253D01*
X124198223Y-227126777D01*
X124181747Y-227108598D01*
X124167133Y-227088893D01*
X124154520Y-227067849D01*
X124144030Y-227045671D01*
X124135765Y-227022571D01*
X124129804Y-226998773D01*
X124126204Y-226974504D01*
X124125000Y-226950000D01*
X124125000Y-226025000D01*
X124126204Y-226000496D01*
X124129804Y-225976227D01*
X124135765Y-225952429D01*
X124144030Y-225929329D01*
X124154520Y-225907151D01*
X124167133Y-225886107D01*
X124181747Y-225866402D01*
X124198223Y-225848223D01*
X124216402Y-225831747D01*
X124236107Y-225817133D01*
X124257151Y-225804520D01*
X124279329Y-225794030D01*
X124302429Y-225785765D01*
X124326227Y-225779804D01*
X124350496Y-225776204D01*
X124375000Y-225775000D01*
X125625000Y-225775000D01*
X125649504Y-225776204D01*
X125649504Y-225776204D01*
G37*
D11*
X125000000Y-226487500D03*
D10*
G36*
X140649504Y-207801204D02*
G01*
X140673773Y-207804804D01*
X140697571Y-207810765D01*
X140720671Y-207819030D01*
X140742849Y-207829520D01*
X140763893Y-207842133D01*
X140783598Y-207856747D01*
X140801777Y-207873223D01*
X140818253Y-207891402D01*
X140832867Y-207911107D01*
X140845480Y-207932151D01*
X140855970Y-207954329D01*
X140864235Y-207977429D01*
X140870196Y-208001227D01*
X140873796Y-208025496D01*
X140875000Y-208050000D01*
X140875000Y-208975000D01*
X140873796Y-208999504D01*
X140870196Y-209023773D01*
X140864235Y-209047571D01*
X140855970Y-209070671D01*
X140845480Y-209092849D01*
X140832867Y-209113893D01*
X140818253Y-209133598D01*
X140801777Y-209151777D01*
X140783598Y-209168253D01*
X140763893Y-209182867D01*
X140742849Y-209195480D01*
X140720671Y-209205970D01*
X140697571Y-209214235D01*
X140673773Y-209220196D01*
X140649504Y-209223796D01*
X140625000Y-209225000D01*
X139375000Y-209225000D01*
X139350496Y-209223796D01*
X139326227Y-209220196D01*
X139302429Y-209214235D01*
X139279329Y-209205970D01*
X139257151Y-209195480D01*
X139236107Y-209182867D01*
X139216402Y-209168253D01*
X139198223Y-209151777D01*
X139181747Y-209133598D01*
X139167133Y-209113893D01*
X139154520Y-209092849D01*
X139144030Y-209070671D01*
X139135765Y-209047571D01*
X139129804Y-209023773D01*
X139126204Y-208999504D01*
X139125000Y-208975000D01*
X139125000Y-208050000D01*
X139126204Y-208025496D01*
X139129804Y-208001227D01*
X139135765Y-207977429D01*
X139144030Y-207954329D01*
X139154520Y-207932151D01*
X139167133Y-207911107D01*
X139181747Y-207891402D01*
X139198223Y-207873223D01*
X139216402Y-207856747D01*
X139236107Y-207842133D01*
X139257151Y-207829520D01*
X139279329Y-207819030D01*
X139302429Y-207810765D01*
X139326227Y-207804804D01*
X139350496Y-207801204D01*
X139375000Y-207800000D01*
X140625000Y-207800000D01*
X140649504Y-207801204D01*
X140649504Y-207801204D01*
G37*
D11*
X140000000Y-208512500D03*
D10*
G36*
X140649504Y-210776204D02*
G01*
X140673773Y-210779804D01*
X140697571Y-210785765D01*
X140720671Y-210794030D01*
X140742849Y-210804520D01*
X140763893Y-210817133D01*
X140783598Y-210831747D01*
X140801777Y-210848223D01*
X140818253Y-210866402D01*
X140832867Y-210886107D01*
X140845480Y-210907151D01*
X140855970Y-210929329D01*
X140864235Y-210952429D01*
X140870196Y-210976227D01*
X140873796Y-211000496D01*
X140875000Y-211025000D01*
X140875000Y-211950000D01*
X140873796Y-211974504D01*
X140870196Y-211998773D01*
X140864235Y-212022571D01*
X140855970Y-212045671D01*
X140845480Y-212067849D01*
X140832867Y-212088893D01*
X140818253Y-212108598D01*
X140801777Y-212126777D01*
X140783598Y-212143253D01*
X140763893Y-212157867D01*
X140742849Y-212170480D01*
X140720671Y-212180970D01*
X140697571Y-212189235D01*
X140673773Y-212195196D01*
X140649504Y-212198796D01*
X140625000Y-212200000D01*
X139375000Y-212200000D01*
X139350496Y-212198796D01*
X139326227Y-212195196D01*
X139302429Y-212189235D01*
X139279329Y-212180970D01*
X139257151Y-212170480D01*
X139236107Y-212157867D01*
X139216402Y-212143253D01*
X139198223Y-212126777D01*
X139181747Y-212108598D01*
X139167133Y-212088893D01*
X139154520Y-212067849D01*
X139144030Y-212045671D01*
X139135765Y-212022571D01*
X139129804Y-211998773D01*
X139126204Y-211974504D01*
X139125000Y-211950000D01*
X139125000Y-211025000D01*
X139126204Y-211000496D01*
X139129804Y-210976227D01*
X139135765Y-210952429D01*
X139144030Y-210929329D01*
X139154520Y-210907151D01*
X139167133Y-210886107D01*
X139181747Y-210866402D01*
X139198223Y-210848223D01*
X139216402Y-210831747D01*
X139236107Y-210817133D01*
X139257151Y-210804520D01*
X139279329Y-210794030D01*
X139302429Y-210785765D01*
X139326227Y-210779804D01*
X139350496Y-210776204D01*
X139375000Y-210775000D01*
X140625000Y-210775000D01*
X140649504Y-210776204D01*
X140649504Y-210776204D01*
G37*
D11*
X140000000Y-211487500D03*
D10*
G36*
X140649504Y-192801204D02*
G01*
X140673773Y-192804804D01*
X140697571Y-192810765D01*
X140720671Y-192819030D01*
X140742849Y-192829520D01*
X140763893Y-192842133D01*
X140783598Y-192856747D01*
X140801777Y-192873223D01*
X140818253Y-192891402D01*
X140832867Y-192911107D01*
X140845480Y-192932151D01*
X140855970Y-192954329D01*
X140864235Y-192977429D01*
X140870196Y-193001227D01*
X140873796Y-193025496D01*
X140875000Y-193050000D01*
X140875000Y-193975000D01*
X140873796Y-193999504D01*
X140870196Y-194023773D01*
X140864235Y-194047571D01*
X140855970Y-194070671D01*
X140845480Y-194092849D01*
X140832867Y-194113893D01*
X140818253Y-194133598D01*
X140801777Y-194151777D01*
X140783598Y-194168253D01*
X140763893Y-194182867D01*
X140742849Y-194195480D01*
X140720671Y-194205970D01*
X140697571Y-194214235D01*
X140673773Y-194220196D01*
X140649504Y-194223796D01*
X140625000Y-194225000D01*
X139375000Y-194225000D01*
X139350496Y-194223796D01*
X139326227Y-194220196D01*
X139302429Y-194214235D01*
X139279329Y-194205970D01*
X139257151Y-194195480D01*
X139236107Y-194182867D01*
X139216402Y-194168253D01*
X139198223Y-194151777D01*
X139181747Y-194133598D01*
X139167133Y-194113893D01*
X139154520Y-194092849D01*
X139144030Y-194070671D01*
X139135765Y-194047571D01*
X139129804Y-194023773D01*
X139126204Y-193999504D01*
X139125000Y-193975000D01*
X139125000Y-193050000D01*
X139126204Y-193025496D01*
X139129804Y-193001227D01*
X139135765Y-192977429D01*
X139144030Y-192954329D01*
X139154520Y-192932151D01*
X139167133Y-192911107D01*
X139181747Y-192891402D01*
X139198223Y-192873223D01*
X139216402Y-192856747D01*
X139236107Y-192842133D01*
X139257151Y-192829520D01*
X139279329Y-192819030D01*
X139302429Y-192810765D01*
X139326227Y-192804804D01*
X139350496Y-192801204D01*
X139375000Y-192800000D01*
X140625000Y-192800000D01*
X140649504Y-192801204D01*
X140649504Y-192801204D01*
G37*
D11*
X140000000Y-193512500D03*
D10*
G36*
X140649504Y-195776204D02*
G01*
X140673773Y-195779804D01*
X140697571Y-195785765D01*
X140720671Y-195794030D01*
X140742849Y-195804520D01*
X140763893Y-195817133D01*
X140783598Y-195831747D01*
X140801777Y-195848223D01*
X140818253Y-195866402D01*
X140832867Y-195886107D01*
X140845480Y-195907151D01*
X140855970Y-195929329D01*
X140864235Y-195952429D01*
X140870196Y-195976227D01*
X140873796Y-196000496D01*
X140875000Y-196025000D01*
X140875000Y-196950000D01*
X140873796Y-196974504D01*
X140870196Y-196998773D01*
X140864235Y-197022571D01*
X140855970Y-197045671D01*
X140845480Y-197067849D01*
X140832867Y-197088893D01*
X140818253Y-197108598D01*
X140801777Y-197126777D01*
X140783598Y-197143253D01*
X140763893Y-197157867D01*
X140742849Y-197170480D01*
X140720671Y-197180970D01*
X140697571Y-197189235D01*
X140673773Y-197195196D01*
X140649504Y-197198796D01*
X140625000Y-197200000D01*
X139375000Y-197200000D01*
X139350496Y-197198796D01*
X139326227Y-197195196D01*
X139302429Y-197189235D01*
X139279329Y-197180970D01*
X139257151Y-197170480D01*
X139236107Y-197157867D01*
X139216402Y-197143253D01*
X139198223Y-197126777D01*
X139181747Y-197108598D01*
X139167133Y-197088893D01*
X139154520Y-197067849D01*
X139144030Y-197045671D01*
X139135765Y-197022571D01*
X139129804Y-196998773D01*
X139126204Y-196974504D01*
X139125000Y-196950000D01*
X139125000Y-196025000D01*
X139126204Y-196000496D01*
X139129804Y-195976227D01*
X139135765Y-195952429D01*
X139144030Y-195929329D01*
X139154520Y-195907151D01*
X139167133Y-195886107D01*
X139181747Y-195866402D01*
X139198223Y-195848223D01*
X139216402Y-195831747D01*
X139236107Y-195817133D01*
X139257151Y-195804520D01*
X139279329Y-195794030D01*
X139302429Y-195785765D01*
X139326227Y-195779804D01*
X139350496Y-195776204D01*
X139375000Y-195775000D01*
X140625000Y-195775000D01*
X140649504Y-195776204D01*
X140649504Y-195776204D01*
G37*
D11*
X140000000Y-196487500D03*
D10*
G36*
X140649504Y-177801204D02*
G01*
X140673773Y-177804804D01*
X140697571Y-177810765D01*
X140720671Y-177819030D01*
X140742849Y-177829520D01*
X140763893Y-177842133D01*
X140783598Y-177856747D01*
X140801777Y-177873223D01*
X140818253Y-177891402D01*
X140832867Y-177911107D01*
X140845480Y-177932151D01*
X140855970Y-177954329D01*
X140864235Y-177977429D01*
X140870196Y-178001227D01*
X140873796Y-178025496D01*
X140875000Y-178050000D01*
X140875000Y-178975000D01*
X140873796Y-178999504D01*
X140870196Y-179023773D01*
X140864235Y-179047571D01*
X140855970Y-179070671D01*
X140845480Y-179092849D01*
X140832867Y-179113893D01*
X140818253Y-179133598D01*
X140801777Y-179151777D01*
X140783598Y-179168253D01*
X140763893Y-179182867D01*
X140742849Y-179195480D01*
X140720671Y-179205970D01*
X140697571Y-179214235D01*
X140673773Y-179220196D01*
X140649504Y-179223796D01*
X140625000Y-179225000D01*
X139375000Y-179225000D01*
X139350496Y-179223796D01*
X139326227Y-179220196D01*
X139302429Y-179214235D01*
X139279329Y-179205970D01*
X139257151Y-179195480D01*
X139236107Y-179182867D01*
X139216402Y-179168253D01*
X139198223Y-179151777D01*
X139181747Y-179133598D01*
X139167133Y-179113893D01*
X139154520Y-179092849D01*
X139144030Y-179070671D01*
X139135765Y-179047571D01*
X139129804Y-179023773D01*
X139126204Y-178999504D01*
X139125000Y-178975000D01*
X139125000Y-178050000D01*
X139126204Y-178025496D01*
X139129804Y-178001227D01*
X139135765Y-177977429D01*
X139144030Y-177954329D01*
X139154520Y-177932151D01*
X139167133Y-177911107D01*
X139181747Y-177891402D01*
X139198223Y-177873223D01*
X139216402Y-177856747D01*
X139236107Y-177842133D01*
X139257151Y-177829520D01*
X139279329Y-177819030D01*
X139302429Y-177810765D01*
X139326227Y-177804804D01*
X139350496Y-177801204D01*
X139375000Y-177800000D01*
X140625000Y-177800000D01*
X140649504Y-177801204D01*
X140649504Y-177801204D01*
G37*
D11*
X140000000Y-178512500D03*
D10*
G36*
X140649504Y-180776204D02*
G01*
X140673773Y-180779804D01*
X140697571Y-180785765D01*
X140720671Y-180794030D01*
X140742849Y-180804520D01*
X140763893Y-180817133D01*
X140783598Y-180831747D01*
X140801777Y-180848223D01*
X140818253Y-180866402D01*
X140832867Y-180886107D01*
X140845480Y-180907151D01*
X140855970Y-180929329D01*
X140864235Y-180952429D01*
X140870196Y-180976227D01*
X140873796Y-181000496D01*
X140875000Y-181025000D01*
X140875000Y-181950000D01*
X140873796Y-181974504D01*
X140870196Y-181998773D01*
X140864235Y-182022571D01*
X140855970Y-182045671D01*
X140845480Y-182067849D01*
X140832867Y-182088893D01*
X140818253Y-182108598D01*
X140801777Y-182126777D01*
X140783598Y-182143253D01*
X140763893Y-182157867D01*
X140742849Y-182170480D01*
X140720671Y-182180970D01*
X140697571Y-182189235D01*
X140673773Y-182195196D01*
X140649504Y-182198796D01*
X140625000Y-182200000D01*
X139375000Y-182200000D01*
X139350496Y-182198796D01*
X139326227Y-182195196D01*
X139302429Y-182189235D01*
X139279329Y-182180970D01*
X139257151Y-182170480D01*
X139236107Y-182157867D01*
X139216402Y-182143253D01*
X139198223Y-182126777D01*
X139181747Y-182108598D01*
X139167133Y-182088893D01*
X139154520Y-182067849D01*
X139144030Y-182045671D01*
X139135765Y-182022571D01*
X139129804Y-181998773D01*
X139126204Y-181974504D01*
X139125000Y-181950000D01*
X139125000Y-181025000D01*
X139126204Y-181000496D01*
X139129804Y-180976227D01*
X139135765Y-180952429D01*
X139144030Y-180929329D01*
X139154520Y-180907151D01*
X139167133Y-180886107D01*
X139181747Y-180866402D01*
X139198223Y-180848223D01*
X139216402Y-180831747D01*
X139236107Y-180817133D01*
X139257151Y-180804520D01*
X139279329Y-180794030D01*
X139302429Y-180785765D01*
X139326227Y-180779804D01*
X139350496Y-180776204D01*
X139375000Y-180775000D01*
X140625000Y-180775000D01*
X140649504Y-180776204D01*
X140649504Y-180776204D01*
G37*
D11*
X140000000Y-181487500D03*
D10*
G36*
X140649504Y-162801204D02*
G01*
X140673773Y-162804804D01*
X140697571Y-162810765D01*
X140720671Y-162819030D01*
X140742849Y-162829520D01*
X140763893Y-162842133D01*
X140783598Y-162856747D01*
X140801777Y-162873223D01*
X140818253Y-162891402D01*
X140832867Y-162911107D01*
X140845480Y-162932151D01*
X140855970Y-162954329D01*
X140864235Y-162977429D01*
X140870196Y-163001227D01*
X140873796Y-163025496D01*
X140875000Y-163050000D01*
X140875000Y-163975000D01*
X140873796Y-163999504D01*
X140870196Y-164023773D01*
X140864235Y-164047571D01*
X140855970Y-164070671D01*
X140845480Y-164092849D01*
X140832867Y-164113893D01*
X140818253Y-164133598D01*
X140801777Y-164151777D01*
X140783598Y-164168253D01*
X140763893Y-164182867D01*
X140742849Y-164195480D01*
X140720671Y-164205970D01*
X140697571Y-164214235D01*
X140673773Y-164220196D01*
X140649504Y-164223796D01*
X140625000Y-164225000D01*
X139375000Y-164225000D01*
X139350496Y-164223796D01*
X139326227Y-164220196D01*
X139302429Y-164214235D01*
X139279329Y-164205970D01*
X139257151Y-164195480D01*
X139236107Y-164182867D01*
X139216402Y-164168253D01*
X139198223Y-164151777D01*
X139181747Y-164133598D01*
X139167133Y-164113893D01*
X139154520Y-164092849D01*
X139144030Y-164070671D01*
X139135765Y-164047571D01*
X139129804Y-164023773D01*
X139126204Y-163999504D01*
X139125000Y-163975000D01*
X139125000Y-163050000D01*
X139126204Y-163025496D01*
X139129804Y-163001227D01*
X139135765Y-162977429D01*
X139144030Y-162954329D01*
X139154520Y-162932151D01*
X139167133Y-162911107D01*
X139181747Y-162891402D01*
X139198223Y-162873223D01*
X139216402Y-162856747D01*
X139236107Y-162842133D01*
X139257151Y-162829520D01*
X139279329Y-162819030D01*
X139302429Y-162810765D01*
X139326227Y-162804804D01*
X139350496Y-162801204D01*
X139375000Y-162800000D01*
X140625000Y-162800000D01*
X140649504Y-162801204D01*
X140649504Y-162801204D01*
G37*
D11*
X140000000Y-163512500D03*
D10*
G36*
X140649504Y-165776204D02*
G01*
X140673773Y-165779804D01*
X140697571Y-165785765D01*
X140720671Y-165794030D01*
X140742849Y-165804520D01*
X140763893Y-165817133D01*
X140783598Y-165831747D01*
X140801777Y-165848223D01*
X140818253Y-165866402D01*
X140832867Y-165886107D01*
X140845480Y-165907151D01*
X140855970Y-165929329D01*
X140864235Y-165952429D01*
X140870196Y-165976227D01*
X140873796Y-166000496D01*
X140875000Y-166025000D01*
X140875000Y-166950000D01*
X140873796Y-166974504D01*
X140870196Y-166998773D01*
X140864235Y-167022571D01*
X140855970Y-167045671D01*
X140845480Y-167067849D01*
X140832867Y-167088893D01*
X140818253Y-167108598D01*
X140801777Y-167126777D01*
X140783598Y-167143253D01*
X140763893Y-167157867D01*
X140742849Y-167170480D01*
X140720671Y-167180970D01*
X140697571Y-167189235D01*
X140673773Y-167195196D01*
X140649504Y-167198796D01*
X140625000Y-167200000D01*
X139375000Y-167200000D01*
X139350496Y-167198796D01*
X139326227Y-167195196D01*
X139302429Y-167189235D01*
X139279329Y-167180970D01*
X139257151Y-167170480D01*
X139236107Y-167157867D01*
X139216402Y-167143253D01*
X139198223Y-167126777D01*
X139181747Y-167108598D01*
X139167133Y-167088893D01*
X139154520Y-167067849D01*
X139144030Y-167045671D01*
X139135765Y-167022571D01*
X139129804Y-166998773D01*
X139126204Y-166974504D01*
X139125000Y-166950000D01*
X139125000Y-166025000D01*
X139126204Y-166000496D01*
X139129804Y-165976227D01*
X139135765Y-165952429D01*
X139144030Y-165929329D01*
X139154520Y-165907151D01*
X139167133Y-165886107D01*
X139181747Y-165866402D01*
X139198223Y-165848223D01*
X139216402Y-165831747D01*
X139236107Y-165817133D01*
X139257151Y-165804520D01*
X139279329Y-165794030D01*
X139302429Y-165785765D01*
X139326227Y-165779804D01*
X139350496Y-165776204D01*
X139375000Y-165775000D01*
X140625000Y-165775000D01*
X140649504Y-165776204D01*
X140649504Y-165776204D01*
G37*
D11*
X140000000Y-166487500D03*
D10*
G36*
X140649504Y-147801204D02*
G01*
X140673773Y-147804804D01*
X140697571Y-147810765D01*
X140720671Y-147819030D01*
X140742849Y-147829520D01*
X140763893Y-147842133D01*
X140783598Y-147856747D01*
X140801777Y-147873223D01*
X140818253Y-147891402D01*
X140832867Y-147911107D01*
X140845480Y-147932151D01*
X140855970Y-147954329D01*
X140864235Y-147977429D01*
X140870196Y-148001227D01*
X140873796Y-148025496D01*
X140875000Y-148050000D01*
X140875000Y-148975000D01*
X140873796Y-148999504D01*
X140870196Y-149023773D01*
X140864235Y-149047571D01*
X140855970Y-149070671D01*
X140845480Y-149092849D01*
X140832867Y-149113893D01*
X140818253Y-149133598D01*
X140801777Y-149151777D01*
X140783598Y-149168253D01*
X140763893Y-149182867D01*
X140742849Y-149195480D01*
X140720671Y-149205970D01*
X140697571Y-149214235D01*
X140673773Y-149220196D01*
X140649504Y-149223796D01*
X140625000Y-149225000D01*
X139375000Y-149225000D01*
X139350496Y-149223796D01*
X139326227Y-149220196D01*
X139302429Y-149214235D01*
X139279329Y-149205970D01*
X139257151Y-149195480D01*
X139236107Y-149182867D01*
X139216402Y-149168253D01*
X139198223Y-149151777D01*
X139181747Y-149133598D01*
X139167133Y-149113893D01*
X139154520Y-149092849D01*
X139144030Y-149070671D01*
X139135765Y-149047571D01*
X139129804Y-149023773D01*
X139126204Y-148999504D01*
X139125000Y-148975000D01*
X139125000Y-148050000D01*
X139126204Y-148025496D01*
X139129804Y-148001227D01*
X139135765Y-147977429D01*
X139144030Y-147954329D01*
X139154520Y-147932151D01*
X139167133Y-147911107D01*
X139181747Y-147891402D01*
X139198223Y-147873223D01*
X139216402Y-147856747D01*
X139236107Y-147842133D01*
X139257151Y-147829520D01*
X139279329Y-147819030D01*
X139302429Y-147810765D01*
X139326227Y-147804804D01*
X139350496Y-147801204D01*
X139375000Y-147800000D01*
X140625000Y-147800000D01*
X140649504Y-147801204D01*
X140649504Y-147801204D01*
G37*
D11*
X140000000Y-148512500D03*
D10*
G36*
X140649504Y-150776204D02*
G01*
X140673773Y-150779804D01*
X140697571Y-150785765D01*
X140720671Y-150794030D01*
X140742849Y-150804520D01*
X140763893Y-150817133D01*
X140783598Y-150831747D01*
X140801777Y-150848223D01*
X140818253Y-150866402D01*
X140832867Y-150886107D01*
X140845480Y-150907151D01*
X140855970Y-150929329D01*
X140864235Y-150952429D01*
X140870196Y-150976227D01*
X140873796Y-151000496D01*
X140875000Y-151025000D01*
X140875000Y-151950000D01*
X140873796Y-151974504D01*
X140870196Y-151998773D01*
X140864235Y-152022571D01*
X140855970Y-152045671D01*
X140845480Y-152067849D01*
X140832867Y-152088893D01*
X140818253Y-152108598D01*
X140801777Y-152126777D01*
X140783598Y-152143253D01*
X140763893Y-152157867D01*
X140742849Y-152170480D01*
X140720671Y-152180970D01*
X140697571Y-152189235D01*
X140673773Y-152195196D01*
X140649504Y-152198796D01*
X140625000Y-152200000D01*
X139375000Y-152200000D01*
X139350496Y-152198796D01*
X139326227Y-152195196D01*
X139302429Y-152189235D01*
X139279329Y-152180970D01*
X139257151Y-152170480D01*
X139236107Y-152157867D01*
X139216402Y-152143253D01*
X139198223Y-152126777D01*
X139181747Y-152108598D01*
X139167133Y-152088893D01*
X139154520Y-152067849D01*
X139144030Y-152045671D01*
X139135765Y-152022571D01*
X139129804Y-151998773D01*
X139126204Y-151974504D01*
X139125000Y-151950000D01*
X139125000Y-151025000D01*
X139126204Y-151000496D01*
X139129804Y-150976227D01*
X139135765Y-150952429D01*
X139144030Y-150929329D01*
X139154520Y-150907151D01*
X139167133Y-150886107D01*
X139181747Y-150866402D01*
X139198223Y-150848223D01*
X139216402Y-150831747D01*
X139236107Y-150817133D01*
X139257151Y-150804520D01*
X139279329Y-150794030D01*
X139302429Y-150785765D01*
X139326227Y-150779804D01*
X139350496Y-150776204D01*
X139375000Y-150775000D01*
X140625000Y-150775000D01*
X140649504Y-150776204D01*
X140649504Y-150776204D01*
G37*
D11*
X140000000Y-151487500D03*
D10*
G36*
X140649504Y-132801204D02*
G01*
X140673773Y-132804804D01*
X140697571Y-132810765D01*
X140720671Y-132819030D01*
X140742849Y-132829520D01*
X140763893Y-132842133D01*
X140783598Y-132856747D01*
X140801777Y-132873223D01*
X140818253Y-132891402D01*
X140832867Y-132911107D01*
X140845480Y-132932151D01*
X140855970Y-132954329D01*
X140864235Y-132977429D01*
X140870196Y-133001227D01*
X140873796Y-133025496D01*
X140875000Y-133050000D01*
X140875000Y-133975000D01*
X140873796Y-133999504D01*
X140870196Y-134023773D01*
X140864235Y-134047571D01*
X140855970Y-134070671D01*
X140845480Y-134092849D01*
X140832867Y-134113893D01*
X140818253Y-134133598D01*
X140801777Y-134151777D01*
X140783598Y-134168253D01*
X140763893Y-134182867D01*
X140742849Y-134195480D01*
X140720671Y-134205970D01*
X140697571Y-134214235D01*
X140673773Y-134220196D01*
X140649504Y-134223796D01*
X140625000Y-134225000D01*
X139375000Y-134225000D01*
X139350496Y-134223796D01*
X139326227Y-134220196D01*
X139302429Y-134214235D01*
X139279329Y-134205970D01*
X139257151Y-134195480D01*
X139236107Y-134182867D01*
X139216402Y-134168253D01*
X139198223Y-134151777D01*
X139181747Y-134133598D01*
X139167133Y-134113893D01*
X139154520Y-134092849D01*
X139144030Y-134070671D01*
X139135765Y-134047571D01*
X139129804Y-134023773D01*
X139126204Y-133999504D01*
X139125000Y-133975000D01*
X139125000Y-133050000D01*
X139126204Y-133025496D01*
X139129804Y-133001227D01*
X139135765Y-132977429D01*
X139144030Y-132954329D01*
X139154520Y-132932151D01*
X139167133Y-132911107D01*
X139181747Y-132891402D01*
X139198223Y-132873223D01*
X139216402Y-132856747D01*
X139236107Y-132842133D01*
X139257151Y-132829520D01*
X139279329Y-132819030D01*
X139302429Y-132810765D01*
X139326227Y-132804804D01*
X139350496Y-132801204D01*
X139375000Y-132800000D01*
X140625000Y-132800000D01*
X140649504Y-132801204D01*
X140649504Y-132801204D01*
G37*
D11*
X140000000Y-133512500D03*
D10*
G36*
X140649504Y-135776204D02*
G01*
X140673773Y-135779804D01*
X140697571Y-135785765D01*
X140720671Y-135794030D01*
X140742849Y-135804520D01*
X140763893Y-135817133D01*
X140783598Y-135831747D01*
X140801777Y-135848223D01*
X140818253Y-135866402D01*
X140832867Y-135886107D01*
X140845480Y-135907151D01*
X140855970Y-135929329D01*
X140864235Y-135952429D01*
X140870196Y-135976227D01*
X140873796Y-136000496D01*
X140875000Y-136025000D01*
X140875000Y-136950000D01*
X140873796Y-136974504D01*
X140870196Y-136998773D01*
X140864235Y-137022571D01*
X140855970Y-137045671D01*
X140845480Y-137067849D01*
X140832867Y-137088893D01*
X140818253Y-137108598D01*
X140801777Y-137126777D01*
X140783598Y-137143253D01*
X140763893Y-137157867D01*
X140742849Y-137170480D01*
X140720671Y-137180970D01*
X140697571Y-137189235D01*
X140673773Y-137195196D01*
X140649504Y-137198796D01*
X140625000Y-137200000D01*
X139375000Y-137200000D01*
X139350496Y-137198796D01*
X139326227Y-137195196D01*
X139302429Y-137189235D01*
X139279329Y-137180970D01*
X139257151Y-137170480D01*
X139236107Y-137157867D01*
X139216402Y-137143253D01*
X139198223Y-137126777D01*
X139181747Y-137108598D01*
X139167133Y-137088893D01*
X139154520Y-137067849D01*
X139144030Y-137045671D01*
X139135765Y-137022571D01*
X139129804Y-136998773D01*
X139126204Y-136974504D01*
X139125000Y-136950000D01*
X139125000Y-136025000D01*
X139126204Y-136000496D01*
X139129804Y-135976227D01*
X139135765Y-135952429D01*
X139144030Y-135929329D01*
X139154520Y-135907151D01*
X139167133Y-135886107D01*
X139181747Y-135866402D01*
X139198223Y-135848223D01*
X139216402Y-135831747D01*
X139236107Y-135817133D01*
X139257151Y-135804520D01*
X139279329Y-135794030D01*
X139302429Y-135785765D01*
X139326227Y-135779804D01*
X139350496Y-135776204D01*
X139375000Y-135775000D01*
X140625000Y-135775000D01*
X140649504Y-135776204D01*
X140649504Y-135776204D01*
G37*
D11*
X140000000Y-136487500D03*
D10*
G36*
X125649504Y-117801204D02*
G01*
X125673773Y-117804804D01*
X125697571Y-117810765D01*
X125720671Y-117819030D01*
X125742849Y-117829520D01*
X125763893Y-117842133D01*
X125783598Y-117856747D01*
X125801777Y-117873223D01*
X125818253Y-117891402D01*
X125832867Y-117911107D01*
X125845480Y-117932151D01*
X125855970Y-117954329D01*
X125864235Y-117977429D01*
X125870196Y-118001227D01*
X125873796Y-118025496D01*
X125875000Y-118050000D01*
X125875000Y-118975000D01*
X125873796Y-118999504D01*
X125870196Y-119023773D01*
X125864235Y-119047571D01*
X125855970Y-119070671D01*
X125845480Y-119092849D01*
X125832867Y-119113893D01*
X125818253Y-119133598D01*
X125801777Y-119151777D01*
X125783598Y-119168253D01*
X125763893Y-119182867D01*
X125742849Y-119195480D01*
X125720671Y-119205970D01*
X125697571Y-119214235D01*
X125673773Y-119220196D01*
X125649504Y-119223796D01*
X125625000Y-119225000D01*
X124375000Y-119225000D01*
X124350496Y-119223796D01*
X124326227Y-119220196D01*
X124302429Y-119214235D01*
X124279329Y-119205970D01*
X124257151Y-119195480D01*
X124236107Y-119182867D01*
X124216402Y-119168253D01*
X124198223Y-119151777D01*
X124181747Y-119133598D01*
X124167133Y-119113893D01*
X124154520Y-119092849D01*
X124144030Y-119070671D01*
X124135765Y-119047571D01*
X124129804Y-119023773D01*
X124126204Y-118999504D01*
X124125000Y-118975000D01*
X124125000Y-118050000D01*
X124126204Y-118025496D01*
X124129804Y-118001227D01*
X124135765Y-117977429D01*
X124144030Y-117954329D01*
X124154520Y-117932151D01*
X124167133Y-117911107D01*
X124181747Y-117891402D01*
X124198223Y-117873223D01*
X124216402Y-117856747D01*
X124236107Y-117842133D01*
X124257151Y-117829520D01*
X124279329Y-117819030D01*
X124302429Y-117810765D01*
X124326227Y-117804804D01*
X124350496Y-117801204D01*
X124375000Y-117800000D01*
X125625000Y-117800000D01*
X125649504Y-117801204D01*
X125649504Y-117801204D01*
G37*
D11*
X125000000Y-118512500D03*
D10*
G36*
X125649504Y-120776204D02*
G01*
X125673773Y-120779804D01*
X125697571Y-120785765D01*
X125720671Y-120794030D01*
X125742849Y-120804520D01*
X125763893Y-120817133D01*
X125783598Y-120831747D01*
X125801777Y-120848223D01*
X125818253Y-120866402D01*
X125832867Y-120886107D01*
X125845480Y-120907151D01*
X125855970Y-120929329D01*
X125864235Y-120952429D01*
X125870196Y-120976227D01*
X125873796Y-121000496D01*
X125875000Y-121025000D01*
X125875000Y-121950000D01*
X125873796Y-121974504D01*
X125870196Y-121998773D01*
X125864235Y-122022571D01*
X125855970Y-122045671D01*
X125845480Y-122067849D01*
X125832867Y-122088893D01*
X125818253Y-122108598D01*
X125801777Y-122126777D01*
X125783598Y-122143253D01*
X125763893Y-122157867D01*
X125742849Y-122170480D01*
X125720671Y-122180970D01*
X125697571Y-122189235D01*
X125673773Y-122195196D01*
X125649504Y-122198796D01*
X125625000Y-122200000D01*
X124375000Y-122200000D01*
X124350496Y-122198796D01*
X124326227Y-122195196D01*
X124302429Y-122189235D01*
X124279329Y-122180970D01*
X124257151Y-122170480D01*
X124236107Y-122157867D01*
X124216402Y-122143253D01*
X124198223Y-122126777D01*
X124181747Y-122108598D01*
X124167133Y-122088893D01*
X124154520Y-122067849D01*
X124144030Y-122045671D01*
X124135765Y-122022571D01*
X124129804Y-121998773D01*
X124126204Y-121974504D01*
X124125000Y-121950000D01*
X124125000Y-121025000D01*
X124126204Y-121000496D01*
X124129804Y-120976227D01*
X124135765Y-120952429D01*
X124144030Y-120929329D01*
X124154520Y-120907151D01*
X124167133Y-120886107D01*
X124181747Y-120866402D01*
X124198223Y-120848223D01*
X124216402Y-120831747D01*
X124236107Y-120817133D01*
X124257151Y-120804520D01*
X124279329Y-120794030D01*
X124302429Y-120785765D01*
X124326227Y-120779804D01*
X124350496Y-120776204D01*
X124375000Y-120775000D01*
X125625000Y-120775000D01*
X125649504Y-120776204D01*
X125649504Y-120776204D01*
G37*
D11*
X125000000Y-121487500D03*
D10*
G36*
X110649504Y-117801204D02*
G01*
X110673773Y-117804804D01*
X110697571Y-117810765D01*
X110720671Y-117819030D01*
X110742849Y-117829520D01*
X110763893Y-117842133D01*
X110783598Y-117856747D01*
X110801777Y-117873223D01*
X110818253Y-117891402D01*
X110832867Y-117911107D01*
X110845480Y-117932151D01*
X110855970Y-117954329D01*
X110864235Y-117977429D01*
X110870196Y-118001227D01*
X110873796Y-118025496D01*
X110875000Y-118050000D01*
X110875000Y-118975000D01*
X110873796Y-118999504D01*
X110870196Y-119023773D01*
X110864235Y-119047571D01*
X110855970Y-119070671D01*
X110845480Y-119092849D01*
X110832867Y-119113893D01*
X110818253Y-119133598D01*
X110801777Y-119151777D01*
X110783598Y-119168253D01*
X110763893Y-119182867D01*
X110742849Y-119195480D01*
X110720671Y-119205970D01*
X110697571Y-119214235D01*
X110673773Y-119220196D01*
X110649504Y-119223796D01*
X110625000Y-119225000D01*
X109375000Y-119225000D01*
X109350496Y-119223796D01*
X109326227Y-119220196D01*
X109302429Y-119214235D01*
X109279329Y-119205970D01*
X109257151Y-119195480D01*
X109236107Y-119182867D01*
X109216402Y-119168253D01*
X109198223Y-119151777D01*
X109181747Y-119133598D01*
X109167133Y-119113893D01*
X109154520Y-119092849D01*
X109144030Y-119070671D01*
X109135765Y-119047571D01*
X109129804Y-119023773D01*
X109126204Y-118999504D01*
X109125000Y-118975000D01*
X109125000Y-118050000D01*
X109126204Y-118025496D01*
X109129804Y-118001227D01*
X109135765Y-117977429D01*
X109144030Y-117954329D01*
X109154520Y-117932151D01*
X109167133Y-117911107D01*
X109181747Y-117891402D01*
X109198223Y-117873223D01*
X109216402Y-117856747D01*
X109236107Y-117842133D01*
X109257151Y-117829520D01*
X109279329Y-117819030D01*
X109302429Y-117810765D01*
X109326227Y-117804804D01*
X109350496Y-117801204D01*
X109375000Y-117800000D01*
X110625000Y-117800000D01*
X110649504Y-117801204D01*
X110649504Y-117801204D01*
G37*
D11*
X110000000Y-118512500D03*
D10*
G36*
X110649504Y-120776204D02*
G01*
X110673773Y-120779804D01*
X110697571Y-120785765D01*
X110720671Y-120794030D01*
X110742849Y-120804520D01*
X110763893Y-120817133D01*
X110783598Y-120831747D01*
X110801777Y-120848223D01*
X110818253Y-120866402D01*
X110832867Y-120886107D01*
X110845480Y-120907151D01*
X110855970Y-120929329D01*
X110864235Y-120952429D01*
X110870196Y-120976227D01*
X110873796Y-121000496D01*
X110875000Y-121025000D01*
X110875000Y-121950000D01*
X110873796Y-121974504D01*
X110870196Y-121998773D01*
X110864235Y-122022571D01*
X110855970Y-122045671D01*
X110845480Y-122067849D01*
X110832867Y-122088893D01*
X110818253Y-122108598D01*
X110801777Y-122126777D01*
X110783598Y-122143253D01*
X110763893Y-122157867D01*
X110742849Y-122170480D01*
X110720671Y-122180970D01*
X110697571Y-122189235D01*
X110673773Y-122195196D01*
X110649504Y-122198796D01*
X110625000Y-122200000D01*
X109375000Y-122200000D01*
X109350496Y-122198796D01*
X109326227Y-122195196D01*
X109302429Y-122189235D01*
X109279329Y-122180970D01*
X109257151Y-122170480D01*
X109236107Y-122157867D01*
X109216402Y-122143253D01*
X109198223Y-122126777D01*
X109181747Y-122108598D01*
X109167133Y-122088893D01*
X109154520Y-122067849D01*
X109144030Y-122045671D01*
X109135765Y-122022571D01*
X109129804Y-121998773D01*
X109126204Y-121974504D01*
X109125000Y-121950000D01*
X109125000Y-121025000D01*
X109126204Y-121000496D01*
X109129804Y-120976227D01*
X109135765Y-120952429D01*
X109144030Y-120929329D01*
X109154520Y-120907151D01*
X109167133Y-120886107D01*
X109181747Y-120866402D01*
X109198223Y-120848223D01*
X109216402Y-120831747D01*
X109236107Y-120817133D01*
X109257151Y-120804520D01*
X109279329Y-120794030D01*
X109302429Y-120785765D01*
X109326227Y-120779804D01*
X109350496Y-120776204D01*
X109375000Y-120775000D01*
X110625000Y-120775000D01*
X110649504Y-120776204D01*
X110649504Y-120776204D01*
G37*
D11*
X110000000Y-121487500D03*
D10*
G36*
X95649504Y-117801204D02*
G01*
X95673773Y-117804804D01*
X95697571Y-117810765D01*
X95720671Y-117819030D01*
X95742849Y-117829520D01*
X95763893Y-117842133D01*
X95783598Y-117856747D01*
X95801777Y-117873223D01*
X95818253Y-117891402D01*
X95832867Y-117911107D01*
X95845480Y-117932151D01*
X95855970Y-117954329D01*
X95864235Y-117977429D01*
X95870196Y-118001227D01*
X95873796Y-118025496D01*
X95875000Y-118050000D01*
X95875000Y-118975000D01*
X95873796Y-118999504D01*
X95870196Y-119023773D01*
X95864235Y-119047571D01*
X95855970Y-119070671D01*
X95845480Y-119092849D01*
X95832867Y-119113893D01*
X95818253Y-119133598D01*
X95801777Y-119151777D01*
X95783598Y-119168253D01*
X95763893Y-119182867D01*
X95742849Y-119195480D01*
X95720671Y-119205970D01*
X95697571Y-119214235D01*
X95673773Y-119220196D01*
X95649504Y-119223796D01*
X95625000Y-119225000D01*
X94375000Y-119225000D01*
X94350496Y-119223796D01*
X94326227Y-119220196D01*
X94302429Y-119214235D01*
X94279329Y-119205970D01*
X94257151Y-119195480D01*
X94236107Y-119182867D01*
X94216402Y-119168253D01*
X94198223Y-119151777D01*
X94181747Y-119133598D01*
X94167133Y-119113893D01*
X94154520Y-119092849D01*
X94144030Y-119070671D01*
X94135765Y-119047571D01*
X94129804Y-119023773D01*
X94126204Y-118999504D01*
X94125000Y-118975000D01*
X94125000Y-118050000D01*
X94126204Y-118025496D01*
X94129804Y-118001227D01*
X94135765Y-117977429D01*
X94144030Y-117954329D01*
X94154520Y-117932151D01*
X94167133Y-117911107D01*
X94181747Y-117891402D01*
X94198223Y-117873223D01*
X94216402Y-117856747D01*
X94236107Y-117842133D01*
X94257151Y-117829520D01*
X94279329Y-117819030D01*
X94302429Y-117810765D01*
X94326227Y-117804804D01*
X94350496Y-117801204D01*
X94375000Y-117800000D01*
X95625000Y-117800000D01*
X95649504Y-117801204D01*
X95649504Y-117801204D01*
G37*
D11*
X95000000Y-118512500D03*
D10*
G36*
X95649504Y-120776204D02*
G01*
X95673773Y-120779804D01*
X95697571Y-120785765D01*
X95720671Y-120794030D01*
X95742849Y-120804520D01*
X95763893Y-120817133D01*
X95783598Y-120831747D01*
X95801777Y-120848223D01*
X95818253Y-120866402D01*
X95832867Y-120886107D01*
X95845480Y-120907151D01*
X95855970Y-120929329D01*
X95864235Y-120952429D01*
X95870196Y-120976227D01*
X95873796Y-121000496D01*
X95875000Y-121025000D01*
X95875000Y-121950000D01*
X95873796Y-121974504D01*
X95870196Y-121998773D01*
X95864235Y-122022571D01*
X95855970Y-122045671D01*
X95845480Y-122067849D01*
X95832867Y-122088893D01*
X95818253Y-122108598D01*
X95801777Y-122126777D01*
X95783598Y-122143253D01*
X95763893Y-122157867D01*
X95742849Y-122170480D01*
X95720671Y-122180970D01*
X95697571Y-122189235D01*
X95673773Y-122195196D01*
X95649504Y-122198796D01*
X95625000Y-122200000D01*
X94375000Y-122200000D01*
X94350496Y-122198796D01*
X94326227Y-122195196D01*
X94302429Y-122189235D01*
X94279329Y-122180970D01*
X94257151Y-122170480D01*
X94236107Y-122157867D01*
X94216402Y-122143253D01*
X94198223Y-122126777D01*
X94181747Y-122108598D01*
X94167133Y-122088893D01*
X94154520Y-122067849D01*
X94144030Y-122045671D01*
X94135765Y-122022571D01*
X94129804Y-121998773D01*
X94126204Y-121974504D01*
X94125000Y-121950000D01*
X94125000Y-121025000D01*
X94126204Y-121000496D01*
X94129804Y-120976227D01*
X94135765Y-120952429D01*
X94144030Y-120929329D01*
X94154520Y-120907151D01*
X94167133Y-120886107D01*
X94181747Y-120866402D01*
X94198223Y-120848223D01*
X94216402Y-120831747D01*
X94236107Y-120817133D01*
X94257151Y-120804520D01*
X94279329Y-120794030D01*
X94302429Y-120785765D01*
X94326227Y-120779804D01*
X94350496Y-120776204D01*
X94375000Y-120775000D01*
X95625000Y-120775000D01*
X95649504Y-120776204D01*
X95649504Y-120776204D01*
G37*
D11*
X95000000Y-121487500D03*
D10*
G36*
X46999504Y-74126204D02*
G01*
X47023773Y-74129804D01*
X47047571Y-74135765D01*
X47070671Y-74144030D01*
X47092849Y-74154520D01*
X47113893Y-74167133D01*
X47133598Y-74181747D01*
X47151777Y-74198223D01*
X47168253Y-74216402D01*
X47182867Y-74236107D01*
X47195480Y-74257151D01*
X47205970Y-74279329D01*
X47214235Y-74302429D01*
X47220196Y-74326227D01*
X47223796Y-74350496D01*
X47225000Y-74375000D01*
X47225000Y-75625000D01*
X47223796Y-75649504D01*
X47220196Y-75673773D01*
X47214235Y-75697571D01*
X47205970Y-75720671D01*
X47195480Y-75742849D01*
X47182867Y-75763893D01*
X47168253Y-75783598D01*
X47151777Y-75801777D01*
X47133598Y-75818253D01*
X47113893Y-75832867D01*
X47092849Y-75845480D01*
X47070671Y-75855970D01*
X47047571Y-75864235D01*
X47023773Y-75870196D01*
X46999504Y-75873796D01*
X46975000Y-75875000D01*
X46050000Y-75875000D01*
X46025496Y-75873796D01*
X46001227Y-75870196D01*
X45977429Y-75864235D01*
X45954329Y-75855970D01*
X45932151Y-75845480D01*
X45911107Y-75832867D01*
X45891402Y-75818253D01*
X45873223Y-75801777D01*
X45856747Y-75783598D01*
X45842133Y-75763893D01*
X45829520Y-75742849D01*
X45819030Y-75720671D01*
X45810765Y-75697571D01*
X45804804Y-75673773D01*
X45801204Y-75649504D01*
X45800000Y-75625000D01*
X45800000Y-74375000D01*
X45801204Y-74350496D01*
X45804804Y-74326227D01*
X45810765Y-74302429D01*
X45819030Y-74279329D01*
X45829520Y-74257151D01*
X45842133Y-74236107D01*
X45856747Y-74216402D01*
X45873223Y-74198223D01*
X45891402Y-74181747D01*
X45911107Y-74167133D01*
X45932151Y-74154520D01*
X45954329Y-74144030D01*
X45977429Y-74135765D01*
X46001227Y-74129804D01*
X46025496Y-74126204D01*
X46050000Y-74125000D01*
X46975000Y-74125000D01*
X46999504Y-74126204D01*
X46999504Y-74126204D01*
G37*
D11*
X46512500Y-75000000D03*
D10*
G36*
X49974504Y-74126204D02*
G01*
X49998773Y-74129804D01*
X50022571Y-74135765D01*
X50045671Y-74144030D01*
X50067849Y-74154520D01*
X50088893Y-74167133D01*
X50108598Y-74181747D01*
X50126777Y-74198223D01*
X50143253Y-74216402D01*
X50157867Y-74236107D01*
X50170480Y-74257151D01*
X50180970Y-74279329D01*
X50189235Y-74302429D01*
X50195196Y-74326227D01*
X50198796Y-74350496D01*
X50200000Y-74375000D01*
X50200000Y-75625000D01*
X50198796Y-75649504D01*
X50195196Y-75673773D01*
X50189235Y-75697571D01*
X50180970Y-75720671D01*
X50170480Y-75742849D01*
X50157867Y-75763893D01*
X50143253Y-75783598D01*
X50126777Y-75801777D01*
X50108598Y-75818253D01*
X50088893Y-75832867D01*
X50067849Y-75845480D01*
X50045671Y-75855970D01*
X50022571Y-75864235D01*
X49998773Y-75870196D01*
X49974504Y-75873796D01*
X49950000Y-75875000D01*
X49025000Y-75875000D01*
X49000496Y-75873796D01*
X48976227Y-75870196D01*
X48952429Y-75864235D01*
X48929329Y-75855970D01*
X48907151Y-75845480D01*
X48886107Y-75832867D01*
X48866402Y-75818253D01*
X48848223Y-75801777D01*
X48831747Y-75783598D01*
X48817133Y-75763893D01*
X48804520Y-75742849D01*
X48794030Y-75720671D01*
X48785765Y-75697571D01*
X48779804Y-75673773D01*
X48776204Y-75649504D01*
X48775000Y-75625000D01*
X48775000Y-74375000D01*
X48776204Y-74350496D01*
X48779804Y-74326227D01*
X48785765Y-74302429D01*
X48794030Y-74279329D01*
X48804520Y-74257151D01*
X48817133Y-74236107D01*
X48831747Y-74216402D01*
X48848223Y-74198223D01*
X48866402Y-74181747D01*
X48886107Y-74167133D01*
X48907151Y-74154520D01*
X48929329Y-74144030D01*
X48952429Y-74135765D01*
X48976227Y-74129804D01*
X49000496Y-74126204D01*
X49025000Y-74125000D01*
X49950000Y-74125000D01*
X49974504Y-74126204D01*
X49974504Y-74126204D01*
G37*
D11*
X49487500Y-75000000D03*
D10*
G36*
X69974504Y-74126204D02*
G01*
X69998773Y-74129804D01*
X70022571Y-74135765D01*
X70045671Y-74144030D01*
X70067849Y-74154520D01*
X70088893Y-74167133D01*
X70108598Y-74181747D01*
X70126777Y-74198223D01*
X70143253Y-74216402D01*
X70157867Y-74236107D01*
X70170480Y-74257151D01*
X70180970Y-74279329D01*
X70189235Y-74302429D01*
X70195196Y-74326227D01*
X70198796Y-74350496D01*
X70200000Y-74375000D01*
X70200000Y-75625000D01*
X70198796Y-75649504D01*
X70195196Y-75673773D01*
X70189235Y-75697571D01*
X70180970Y-75720671D01*
X70170480Y-75742849D01*
X70157867Y-75763893D01*
X70143253Y-75783598D01*
X70126777Y-75801777D01*
X70108598Y-75818253D01*
X70088893Y-75832867D01*
X70067849Y-75845480D01*
X70045671Y-75855970D01*
X70022571Y-75864235D01*
X69998773Y-75870196D01*
X69974504Y-75873796D01*
X69950000Y-75875000D01*
X69025000Y-75875000D01*
X69000496Y-75873796D01*
X68976227Y-75870196D01*
X68952429Y-75864235D01*
X68929329Y-75855970D01*
X68907151Y-75845480D01*
X68886107Y-75832867D01*
X68866402Y-75818253D01*
X68848223Y-75801777D01*
X68831747Y-75783598D01*
X68817133Y-75763893D01*
X68804520Y-75742849D01*
X68794030Y-75720671D01*
X68785765Y-75697571D01*
X68779804Y-75673773D01*
X68776204Y-75649504D01*
X68775000Y-75625000D01*
X68775000Y-74375000D01*
X68776204Y-74350496D01*
X68779804Y-74326227D01*
X68785765Y-74302429D01*
X68794030Y-74279329D01*
X68804520Y-74257151D01*
X68817133Y-74236107D01*
X68831747Y-74216402D01*
X68848223Y-74198223D01*
X68866402Y-74181747D01*
X68886107Y-74167133D01*
X68907151Y-74154520D01*
X68929329Y-74144030D01*
X68952429Y-74135765D01*
X68976227Y-74129804D01*
X69000496Y-74126204D01*
X69025000Y-74125000D01*
X69950000Y-74125000D01*
X69974504Y-74126204D01*
X69974504Y-74126204D01*
G37*
D11*
X69487500Y-75000000D03*
D10*
G36*
X66999504Y-74126204D02*
G01*
X67023773Y-74129804D01*
X67047571Y-74135765D01*
X67070671Y-74144030D01*
X67092849Y-74154520D01*
X67113893Y-74167133D01*
X67133598Y-74181747D01*
X67151777Y-74198223D01*
X67168253Y-74216402D01*
X67182867Y-74236107D01*
X67195480Y-74257151D01*
X67205970Y-74279329D01*
X67214235Y-74302429D01*
X67220196Y-74326227D01*
X67223796Y-74350496D01*
X67225000Y-74375000D01*
X67225000Y-75625000D01*
X67223796Y-75649504D01*
X67220196Y-75673773D01*
X67214235Y-75697571D01*
X67205970Y-75720671D01*
X67195480Y-75742849D01*
X67182867Y-75763893D01*
X67168253Y-75783598D01*
X67151777Y-75801777D01*
X67133598Y-75818253D01*
X67113893Y-75832867D01*
X67092849Y-75845480D01*
X67070671Y-75855970D01*
X67047571Y-75864235D01*
X67023773Y-75870196D01*
X66999504Y-75873796D01*
X66975000Y-75875000D01*
X66050000Y-75875000D01*
X66025496Y-75873796D01*
X66001227Y-75870196D01*
X65977429Y-75864235D01*
X65954329Y-75855970D01*
X65932151Y-75845480D01*
X65911107Y-75832867D01*
X65891402Y-75818253D01*
X65873223Y-75801777D01*
X65856747Y-75783598D01*
X65842133Y-75763893D01*
X65829520Y-75742849D01*
X65819030Y-75720671D01*
X65810765Y-75697571D01*
X65804804Y-75673773D01*
X65801204Y-75649504D01*
X65800000Y-75625000D01*
X65800000Y-74375000D01*
X65801204Y-74350496D01*
X65804804Y-74326227D01*
X65810765Y-74302429D01*
X65819030Y-74279329D01*
X65829520Y-74257151D01*
X65842133Y-74236107D01*
X65856747Y-74216402D01*
X65873223Y-74198223D01*
X65891402Y-74181747D01*
X65911107Y-74167133D01*
X65932151Y-74154520D01*
X65954329Y-74144030D01*
X65977429Y-74135765D01*
X66001227Y-74129804D01*
X66025496Y-74126204D01*
X66050000Y-74125000D01*
X66975000Y-74125000D01*
X66999504Y-74126204D01*
X66999504Y-74126204D01*
G37*
D11*
X66512500Y-75000000D03*
D10*
G36*
X39974504Y-91126204D02*
G01*
X39998773Y-91129804D01*
X40022571Y-91135765D01*
X40045671Y-91144030D01*
X40067849Y-91154520D01*
X40088893Y-91167133D01*
X40108598Y-91181747D01*
X40126777Y-91198223D01*
X40143253Y-91216402D01*
X40157867Y-91236107D01*
X40170480Y-91257151D01*
X40180970Y-91279329D01*
X40189235Y-91302429D01*
X40195196Y-91326227D01*
X40198796Y-91350496D01*
X40200000Y-91375000D01*
X40200000Y-92625000D01*
X40198796Y-92649504D01*
X40195196Y-92673773D01*
X40189235Y-92697571D01*
X40180970Y-92720671D01*
X40170480Y-92742849D01*
X40157867Y-92763893D01*
X40143253Y-92783598D01*
X40126777Y-92801777D01*
X40108598Y-92818253D01*
X40088893Y-92832867D01*
X40067849Y-92845480D01*
X40045671Y-92855970D01*
X40022571Y-92864235D01*
X39998773Y-92870196D01*
X39974504Y-92873796D01*
X39950000Y-92875000D01*
X39025000Y-92875000D01*
X39000496Y-92873796D01*
X38976227Y-92870196D01*
X38952429Y-92864235D01*
X38929329Y-92855970D01*
X38907151Y-92845480D01*
X38886107Y-92832867D01*
X38866402Y-92818253D01*
X38848223Y-92801777D01*
X38831747Y-92783598D01*
X38817133Y-92763893D01*
X38804520Y-92742849D01*
X38794030Y-92720671D01*
X38785765Y-92697571D01*
X38779804Y-92673773D01*
X38776204Y-92649504D01*
X38775000Y-92625000D01*
X38775000Y-91375000D01*
X38776204Y-91350496D01*
X38779804Y-91326227D01*
X38785765Y-91302429D01*
X38794030Y-91279329D01*
X38804520Y-91257151D01*
X38817133Y-91236107D01*
X38831747Y-91216402D01*
X38848223Y-91198223D01*
X38866402Y-91181747D01*
X38886107Y-91167133D01*
X38907151Y-91154520D01*
X38929329Y-91144030D01*
X38952429Y-91135765D01*
X38976227Y-91129804D01*
X39000496Y-91126204D01*
X39025000Y-91125000D01*
X39950000Y-91125000D01*
X39974504Y-91126204D01*
X39974504Y-91126204D01*
G37*
D11*
X39487500Y-92000000D03*
D10*
G36*
X36999504Y-91126204D02*
G01*
X37023773Y-91129804D01*
X37047571Y-91135765D01*
X37070671Y-91144030D01*
X37092849Y-91154520D01*
X37113893Y-91167133D01*
X37133598Y-91181747D01*
X37151777Y-91198223D01*
X37168253Y-91216402D01*
X37182867Y-91236107D01*
X37195480Y-91257151D01*
X37205970Y-91279329D01*
X37214235Y-91302429D01*
X37220196Y-91326227D01*
X37223796Y-91350496D01*
X37225000Y-91375000D01*
X37225000Y-92625000D01*
X37223796Y-92649504D01*
X37220196Y-92673773D01*
X37214235Y-92697571D01*
X37205970Y-92720671D01*
X37195480Y-92742849D01*
X37182867Y-92763893D01*
X37168253Y-92783598D01*
X37151777Y-92801777D01*
X37133598Y-92818253D01*
X37113893Y-92832867D01*
X37092849Y-92845480D01*
X37070671Y-92855970D01*
X37047571Y-92864235D01*
X37023773Y-92870196D01*
X36999504Y-92873796D01*
X36975000Y-92875000D01*
X36050000Y-92875000D01*
X36025496Y-92873796D01*
X36001227Y-92870196D01*
X35977429Y-92864235D01*
X35954329Y-92855970D01*
X35932151Y-92845480D01*
X35911107Y-92832867D01*
X35891402Y-92818253D01*
X35873223Y-92801777D01*
X35856747Y-92783598D01*
X35842133Y-92763893D01*
X35829520Y-92742849D01*
X35819030Y-92720671D01*
X35810765Y-92697571D01*
X35804804Y-92673773D01*
X35801204Y-92649504D01*
X35800000Y-92625000D01*
X35800000Y-91375000D01*
X35801204Y-91350496D01*
X35804804Y-91326227D01*
X35810765Y-91302429D01*
X35819030Y-91279329D01*
X35829520Y-91257151D01*
X35842133Y-91236107D01*
X35856747Y-91216402D01*
X35873223Y-91198223D01*
X35891402Y-91181747D01*
X35911107Y-91167133D01*
X35932151Y-91154520D01*
X35954329Y-91144030D01*
X35977429Y-91135765D01*
X36001227Y-91129804D01*
X36025496Y-91126204D01*
X36050000Y-91125000D01*
X36975000Y-91125000D01*
X36999504Y-91126204D01*
X36999504Y-91126204D01*
G37*
D11*
X36512500Y-92000000D03*
D10*
G36*
X56999504Y-91126204D02*
G01*
X57023773Y-91129804D01*
X57047571Y-91135765D01*
X57070671Y-91144030D01*
X57092849Y-91154520D01*
X57113893Y-91167133D01*
X57133598Y-91181747D01*
X57151777Y-91198223D01*
X57168253Y-91216402D01*
X57182867Y-91236107D01*
X57195480Y-91257151D01*
X57205970Y-91279329D01*
X57214235Y-91302429D01*
X57220196Y-91326227D01*
X57223796Y-91350496D01*
X57225000Y-91375000D01*
X57225000Y-92625000D01*
X57223796Y-92649504D01*
X57220196Y-92673773D01*
X57214235Y-92697571D01*
X57205970Y-92720671D01*
X57195480Y-92742849D01*
X57182867Y-92763893D01*
X57168253Y-92783598D01*
X57151777Y-92801777D01*
X57133598Y-92818253D01*
X57113893Y-92832867D01*
X57092849Y-92845480D01*
X57070671Y-92855970D01*
X57047571Y-92864235D01*
X57023773Y-92870196D01*
X56999504Y-92873796D01*
X56975000Y-92875000D01*
X56050000Y-92875000D01*
X56025496Y-92873796D01*
X56001227Y-92870196D01*
X55977429Y-92864235D01*
X55954329Y-92855970D01*
X55932151Y-92845480D01*
X55911107Y-92832867D01*
X55891402Y-92818253D01*
X55873223Y-92801777D01*
X55856747Y-92783598D01*
X55842133Y-92763893D01*
X55829520Y-92742849D01*
X55819030Y-92720671D01*
X55810765Y-92697571D01*
X55804804Y-92673773D01*
X55801204Y-92649504D01*
X55800000Y-92625000D01*
X55800000Y-91375000D01*
X55801204Y-91350496D01*
X55804804Y-91326227D01*
X55810765Y-91302429D01*
X55819030Y-91279329D01*
X55829520Y-91257151D01*
X55842133Y-91236107D01*
X55856747Y-91216402D01*
X55873223Y-91198223D01*
X55891402Y-91181747D01*
X55911107Y-91167133D01*
X55932151Y-91154520D01*
X55954329Y-91144030D01*
X55977429Y-91135765D01*
X56001227Y-91129804D01*
X56025496Y-91126204D01*
X56050000Y-91125000D01*
X56975000Y-91125000D01*
X56999504Y-91126204D01*
X56999504Y-91126204D01*
G37*
D11*
X56512500Y-92000000D03*
D10*
G36*
X59974504Y-91126204D02*
G01*
X59998773Y-91129804D01*
X60022571Y-91135765D01*
X60045671Y-91144030D01*
X60067849Y-91154520D01*
X60088893Y-91167133D01*
X60108598Y-91181747D01*
X60126777Y-91198223D01*
X60143253Y-91216402D01*
X60157867Y-91236107D01*
X60170480Y-91257151D01*
X60180970Y-91279329D01*
X60189235Y-91302429D01*
X60195196Y-91326227D01*
X60198796Y-91350496D01*
X60200000Y-91375000D01*
X60200000Y-92625000D01*
X60198796Y-92649504D01*
X60195196Y-92673773D01*
X60189235Y-92697571D01*
X60180970Y-92720671D01*
X60170480Y-92742849D01*
X60157867Y-92763893D01*
X60143253Y-92783598D01*
X60126777Y-92801777D01*
X60108598Y-92818253D01*
X60088893Y-92832867D01*
X60067849Y-92845480D01*
X60045671Y-92855970D01*
X60022571Y-92864235D01*
X59998773Y-92870196D01*
X59974504Y-92873796D01*
X59950000Y-92875000D01*
X59025000Y-92875000D01*
X59000496Y-92873796D01*
X58976227Y-92870196D01*
X58952429Y-92864235D01*
X58929329Y-92855970D01*
X58907151Y-92845480D01*
X58886107Y-92832867D01*
X58866402Y-92818253D01*
X58848223Y-92801777D01*
X58831747Y-92783598D01*
X58817133Y-92763893D01*
X58804520Y-92742849D01*
X58794030Y-92720671D01*
X58785765Y-92697571D01*
X58779804Y-92673773D01*
X58776204Y-92649504D01*
X58775000Y-92625000D01*
X58775000Y-91375000D01*
X58776204Y-91350496D01*
X58779804Y-91326227D01*
X58785765Y-91302429D01*
X58794030Y-91279329D01*
X58804520Y-91257151D01*
X58817133Y-91236107D01*
X58831747Y-91216402D01*
X58848223Y-91198223D01*
X58866402Y-91181747D01*
X58886107Y-91167133D01*
X58907151Y-91154520D01*
X58929329Y-91144030D01*
X58952429Y-91135765D01*
X58976227Y-91129804D01*
X59000496Y-91126204D01*
X59025000Y-91125000D01*
X59950000Y-91125000D01*
X59974504Y-91126204D01*
X59974504Y-91126204D01*
G37*
D11*
X59487500Y-92000000D03*
D10*
G36*
X26999504Y-108126204D02*
G01*
X27023773Y-108129804D01*
X27047571Y-108135765D01*
X27070671Y-108144030D01*
X27092849Y-108154520D01*
X27113893Y-108167133D01*
X27133598Y-108181747D01*
X27151777Y-108198223D01*
X27168253Y-108216402D01*
X27182867Y-108236107D01*
X27195480Y-108257151D01*
X27205970Y-108279329D01*
X27214235Y-108302429D01*
X27220196Y-108326227D01*
X27223796Y-108350496D01*
X27225000Y-108375000D01*
X27225000Y-109625000D01*
X27223796Y-109649504D01*
X27220196Y-109673773D01*
X27214235Y-109697571D01*
X27205970Y-109720671D01*
X27195480Y-109742849D01*
X27182867Y-109763893D01*
X27168253Y-109783598D01*
X27151777Y-109801777D01*
X27133598Y-109818253D01*
X27113893Y-109832867D01*
X27092849Y-109845480D01*
X27070671Y-109855970D01*
X27047571Y-109864235D01*
X27023773Y-109870196D01*
X26999504Y-109873796D01*
X26975000Y-109875000D01*
X26050000Y-109875000D01*
X26025496Y-109873796D01*
X26001227Y-109870196D01*
X25977429Y-109864235D01*
X25954329Y-109855970D01*
X25932151Y-109845480D01*
X25911107Y-109832867D01*
X25891402Y-109818253D01*
X25873223Y-109801777D01*
X25856747Y-109783598D01*
X25842133Y-109763893D01*
X25829520Y-109742849D01*
X25819030Y-109720671D01*
X25810765Y-109697571D01*
X25804804Y-109673773D01*
X25801204Y-109649504D01*
X25800000Y-109625000D01*
X25800000Y-108375000D01*
X25801204Y-108350496D01*
X25804804Y-108326227D01*
X25810765Y-108302429D01*
X25819030Y-108279329D01*
X25829520Y-108257151D01*
X25842133Y-108236107D01*
X25856747Y-108216402D01*
X25873223Y-108198223D01*
X25891402Y-108181747D01*
X25911107Y-108167133D01*
X25932151Y-108154520D01*
X25954329Y-108144030D01*
X25977429Y-108135765D01*
X26001227Y-108129804D01*
X26025496Y-108126204D01*
X26050000Y-108125000D01*
X26975000Y-108125000D01*
X26999504Y-108126204D01*
X26999504Y-108126204D01*
G37*
D11*
X26512500Y-109000000D03*
D10*
G36*
X29974504Y-108126204D02*
G01*
X29998773Y-108129804D01*
X30022571Y-108135765D01*
X30045671Y-108144030D01*
X30067849Y-108154520D01*
X30088893Y-108167133D01*
X30108598Y-108181747D01*
X30126777Y-108198223D01*
X30143253Y-108216402D01*
X30157867Y-108236107D01*
X30170480Y-108257151D01*
X30180970Y-108279329D01*
X30189235Y-108302429D01*
X30195196Y-108326227D01*
X30198796Y-108350496D01*
X30200000Y-108375000D01*
X30200000Y-109625000D01*
X30198796Y-109649504D01*
X30195196Y-109673773D01*
X30189235Y-109697571D01*
X30180970Y-109720671D01*
X30170480Y-109742849D01*
X30157867Y-109763893D01*
X30143253Y-109783598D01*
X30126777Y-109801777D01*
X30108598Y-109818253D01*
X30088893Y-109832867D01*
X30067849Y-109845480D01*
X30045671Y-109855970D01*
X30022571Y-109864235D01*
X29998773Y-109870196D01*
X29974504Y-109873796D01*
X29950000Y-109875000D01*
X29025000Y-109875000D01*
X29000496Y-109873796D01*
X28976227Y-109870196D01*
X28952429Y-109864235D01*
X28929329Y-109855970D01*
X28907151Y-109845480D01*
X28886107Y-109832867D01*
X28866402Y-109818253D01*
X28848223Y-109801777D01*
X28831747Y-109783598D01*
X28817133Y-109763893D01*
X28804520Y-109742849D01*
X28794030Y-109720671D01*
X28785765Y-109697571D01*
X28779804Y-109673773D01*
X28776204Y-109649504D01*
X28775000Y-109625000D01*
X28775000Y-108375000D01*
X28776204Y-108350496D01*
X28779804Y-108326227D01*
X28785765Y-108302429D01*
X28794030Y-108279329D01*
X28804520Y-108257151D01*
X28817133Y-108236107D01*
X28831747Y-108216402D01*
X28848223Y-108198223D01*
X28866402Y-108181747D01*
X28886107Y-108167133D01*
X28907151Y-108154520D01*
X28929329Y-108144030D01*
X28952429Y-108135765D01*
X28976227Y-108129804D01*
X29000496Y-108126204D01*
X29025000Y-108125000D01*
X29950000Y-108125000D01*
X29974504Y-108126204D01*
X29974504Y-108126204D01*
G37*
D11*
X29487500Y-109000000D03*
D10*
G36*
X46999504Y-108126204D02*
G01*
X47023773Y-108129804D01*
X47047571Y-108135765D01*
X47070671Y-108144030D01*
X47092849Y-108154520D01*
X47113893Y-108167133D01*
X47133598Y-108181747D01*
X47151777Y-108198223D01*
X47168253Y-108216402D01*
X47182867Y-108236107D01*
X47195480Y-108257151D01*
X47205970Y-108279329D01*
X47214235Y-108302429D01*
X47220196Y-108326227D01*
X47223796Y-108350496D01*
X47225000Y-108375000D01*
X47225000Y-109625000D01*
X47223796Y-109649504D01*
X47220196Y-109673773D01*
X47214235Y-109697571D01*
X47205970Y-109720671D01*
X47195480Y-109742849D01*
X47182867Y-109763893D01*
X47168253Y-109783598D01*
X47151777Y-109801777D01*
X47133598Y-109818253D01*
X47113893Y-109832867D01*
X47092849Y-109845480D01*
X47070671Y-109855970D01*
X47047571Y-109864235D01*
X47023773Y-109870196D01*
X46999504Y-109873796D01*
X46975000Y-109875000D01*
X46050000Y-109875000D01*
X46025496Y-109873796D01*
X46001227Y-109870196D01*
X45977429Y-109864235D01*
X45954329Y-109855970D01*
X45932151Y-109845480D01*
X45911107Y-109832867D01*
X45891402Y-109818253D01*
X45873223Y-109801777D01*
X45856747Y-109783598D01*
X45842133Y-109763893D01*
X45829520Y-109742849D01*
X45819030Y-109720671D01*
X45810765Y-109697571D01*
X45804804Y-109673773D01*
X45801204Y-109649504D01*
X45800000Y-109625000D01*
X45800000Y-108375000D01*
X45801204Y-108350496D01*
X45804804Y-108326227D01*
X45810765Y-108302429D01*
X45819030Y-108279329D01*
X45829520Y-108257151D01*
X45842133Y-108236107D01*
X45856747Y-108216402D01*
X45873223Y-108198223D01*
X45891402Y-108181747D01*
X45911107Y-108167133D01*
X45932151Y-108154520D01*
X45954329Y-108144030D01*
X45977429Y-108135765D01*
X46001227Y-108129804D01*
X46025496Y-108126204D01*
X46050000Y-108125000D01*
X46975000Y-108125000D01*
X46999504Y-108126204D01*
X46999504Y-108126204D01*
G37*
D11*
X46512500Y-109000000D03*
D10*
G36*
X49974504Y-108126204D02*
G01*
X49998773Y-108129804D01*
X50022571Y-108135765D01*
X50045671Y-108144030D01*
X50067849Y-108154520D01*
X50088893Y-108167133D01*
X50108598Y-108181747D01*
X50126777Y-108198223D01*
X50143253Y-108216402D01*
X50157867Y-108236107D01*
X50170480Y-108257151D01*
X50180970Y-108279329D01*
X50189235Y-108302429D01*
X50195196Y-108326227D01*
X50198796Y-108350496D01*
X50200000Y-108375000D01*
X50200000Y-109625000D01*
X50198796Y-109649504D01*
X50195196Y-109673773D01*
X50189235Y-109697571D01*
X50180970Y-109720671D01*
X50170480Y-109742849D01*
X50157867Y-109763893D01*
X50143253Y-109783598D01*
X50126777Y-109801777D01*
X50108598Y-109818253D01*
X50088893Y-109832867D01*
X50067849Y-109845480D01*
X50045671Y-109855970D01*
X50022571Y-109864235D01*
X49998773Y-109870196D01*
X49974504Y-109873796D01*
X49950000Y-109875000D01*
X49025000Y-109875000D01*
X49000496Y-109873796D01*
X48976227Y-109870196D01*
X48952429Y-109864235D01*
X48929329Y-109855970D01*
X48907151Y-109845480D01*
X48886107Y-109832867D01*
X48866402Y-109818253D01*
X48848223Y-109801777D01*
X48831747Y-109783598D01*
X48817133Y-109763893D01*
X48804520Y-109742849D01*
X48794030Y-109720671D01*
X48785765Y-109697571D01*
X48779804Y-109673773D01*
X48776204Y-109649504D01*
X48775000Y-109625000D01*
X48775000Y-108375000D01*
X48776204Y-108350496D01*
X48779804Y-108326227D01*
X48785765Y-108302429D01*
X48794030Y-108279329D01*
X48804520Y-108257151D01*
X48817133Y-108236107D01*
X48831747Y-108216402D01*
X48848223Y-108198223D01*
X48866402Y-108181747D01*
X48886107Y-108167133D01*
X48907151Y-108154520D01*
X48929329Y-108144030D01*
X48952429Y-108135765D01*
X48976227Y-108129804D01*
X49000496Y-108126204D01*
X49025000Y-108125000D01*
X49950000Y-108125000D01*
X49974504Y-108126204D01*
X49974504Y-108126204D01*
G37*
D11*
X49487500Y-109000000D03*
D10*
G36*
X66999504Y-108126204D02*
G01*
X67023773Y-108129804D01*
X67047571Y-108135765D01*
X67070671Y-108144030D01*
X67092849Y-108154520D01*
X67113893Y-108167133D01*
X67133598Y-108181747D01*
X67151777Y-108198223D01*
X67168253Y-108216402D01*
X67182867Y-108236107D01*
X67195480Y-108257151D01*
X67205970Y-108279329D01*
X67214235Y-108302429D01*
X67220196Y-108326227D01*
X67223796Y-108350496D01*
X67225000Y-108375000D01*
X67225000Y-109625000D01*
X67223796Y-109649504D01*
X67220196Y-109673773D01*
X67214235Y-109697571D01*
X67205970Y-109720671D01*
X67195480Y-109742849D01*
X67182867Y-109763893D01*
X67168253Y-109783598D01*
X67151777Y-109801777D01*
X67133598Y-109818253D01*
X67113893Y-109832867D01*
X67092849Y-109845480D01*
X67070671Y-109855970D01*
X67047571Y-109864235D01*
X67023773Y-109870196D01*
X66999504Y-109873796D01*
X66975000Y-109875000D01*
X66050000Y-109875000D01*
X66025496Y-109873796D01*
X66001227Y-109870196D01*
X65977429Y-109864235D01*
X65954329Y-109855970D01*
X65932151Y-109845480D01*
X65911107Y-109832867D01*
X65891402Y-109818253D01*
X65873223Y-109801777D01*
X65856747Y-109783598D01*
X65842133Y-109763893D01*
X65829520Y-109742849D01*
X65819030Y-109720671D01*
X65810765Y-109697571D01*
X65804804Y-109673773D01*
X65801204Y-109649504D01*
X65800000Y-109625000D01*
X65800000Y-108375000D01*
X65801204Y-108350496D01*
X65804804Y-108326227D01*
X65810765Y-108302429D01*
X65819030Y-108279329D01*
X65829520Y-108257151D01*
X65842133Y-108236107D01*
X65856747Y-108216402D01*
X65873223Y-108198223D01*
X65891402Y-108181747D01*
X65911107Y-108167133D01*
X65932151Y-108154520D01*
X65954329Y-108144030D01*
X65977429Y-108135765D01*
X66001227Y-108129804D01*
X66025496Y-108126204D01*
X66050000Y-108125000D01*
X66975000Y-108125000D01*
X66999504Y-108126204D01*
X66999504Y-108126204D01*
G37*
D11*
X66512500Y-109000000D03*
D10*
G36*
X69974504Y-108126204D02*
G01*
X69998773Y-108129804D01*
X70022571Y-108135765D01*
X70045671Y-108144030D01*
X70067849Y-108154520D01*
X70088893Y-108167133D01*
X70108598Y-108181747D01*
X70126777Y-108198223D01*
X70143253Y-108216402D01*
X70157867Y-108236107D01*
X70170480Y-108257151D01*
X70180970Y-108279329D01*
X70189235Y-108302429D01*
X70195196Y-108326227D01*
X70198796Y-108350496D01*
X70200000Y-108375000D01*
X70200000Y-109625000D01*
X70198796Y-109649504D01*
X70195196Y-109673773D01*
X70189235Y-109697571D01*
X70180970Y-109720671D01*
X70170480Y-109742849D01*
X70157867Y-109763893D01*
X70143253Y-109783598D01*
X70126777Y-109801777D01*
X70108598Y-109818253D01*
X70088893Y-109832867D01*
X70067849Y-109845480D01*
X70045671Y-109855970D01*
X70022571Y-109864235D01*
X69998773Y-109870196D01*
X69974504Y-109873796D01*
X69950000Y-109875000D01*
X69025000Y-109875000D01*
X69000496Y-109873796D01*
X68976227Y-109870196D01*
X68952429Y-109864235D01*
X68929329Y-109855970D01*
X68907151Y-109845480D01*
X68886107Y-109832867D01*
X68866402Y-109818253D01*
X68848223Y-109801777D01*
X68831747Y-109783598D01*
X68817133Y-109763893D01*
X68804520Y-109742849D01*
X68794030Y-109720671D01*
X68785765Y-109697571D01*
X68779804Y-109673773D01*
X68776204Y-109649504D01*
X68775000Y-109625000D01*
X68775000Y-108375000D01*
X68776204Y-108350496D01*
X68779804Y-108326227D01*
X68785765Y-108302429D01*
X68794030Y-108279329D01*
X68804520Y-108257151D01*
X68817133Y-108236107D01*
X68831747Y-108216402D01*
X68848223Y-108198223D01*
X68866402Y-108181747D01*
X68886107Y-108167133D01*
X68907151Y-108154520D01*
X68929329Y-108144030D01*
X68952429Y-108135765D01*
X68976227Y-108129804D01*
X69000496Y-108126204D01*
X69025000Y-108125000D01*
X69950000Y-108125000D01*
X69974504Y-108126204D01*
X69974504Y-108126204D01*
G37*
D11*
X69487500Y-109000000D03*
D10*
G36*
X36999504Y-125126204D02*
G01*
X37023773Y-125129804D01*
X37047571Y-125135765D01*
X37070671Y-125144030D01*
X37092849Y-125154520D01*
X37113893Y-125167133D01*
X37133598Y-125181747D01*
X37151777Y-125198223D01*
X37168253Y-125216402D01*
X37182867Y-125236107D01*
X37195480Y-125257151D01*
X37205970Y-125279329D01*
X37214235Y-125302429D01*
X37220196Y-125326227D01*
X37223796Y-125350496D01*
X37225000Y-125375000D01*
X37225000Y-126625000D01*
X37223796Y-126649504D01*
X37220196Y-126673773D01*
X37214235Y-126697571D01*
X37205970Y-126720671D01*
X37195480Y-126742849D01*
X37182867Y-126763893D01*
X37168253Y-126783598D01*
X37151777Y-126801777D01*
X37133598Y-126818253D01*
X37113893Y-126832867D01*
X37092849Y-126845480D01*
X37070671Y-126855970D01*
X37047571Y-126864235D01*
X37023773Y-126870196D01*
X36999504Y-126873796D01*
X36975000Y-126875000D01*
X36050000Y-126875000D01*
X36025496Y-126873796D01*
X36001227Y-126870196D01*
X35977429Y-126864235D01*
X35954329Y-126855970D01*
X35932151Y-126845480D01*
X35911107Y-126832867D01*
X35891402Y-126818253D01*
X35873223Y-126801777D01*
X35856747Y-126783598D01*
X35842133Y-126763893D01*
X35829520Y-126742849D01*
X35819030Y-126720671D01*
X35810765Y-126697571D01*
X35804804Y-126673773D01*
X35801204Y-126649504D01*
X35800000Y-126625000D01*
X35800000Y-125375000D01*
X35801204Y-125350496D01*
X35804804Y-125326227D01*
X35810765Y-125302429D01*
X35819030Y-125279329D01*
X35829520Y-125257151D01*
X35842133Y-125236107D01*
X35856747Y-125216402D01*
X35873223Y-125198223D01*
X35891402Y-125181747D01*
X35911107Y-125167133D01*
X35932151Y-125154520D01*
X35954329Y-125144030D01*
X35977429Y-125135765D01*
X36001227Y-125129804D01*
X36025496Y-125126204D01*
X36050000Y-125125000D01*
X36975000Y-125125000D01*
X36999504Y-125126204D01*
X36999504Y-125126204D01*
G37*
D11*
X36512500Y-126000000D03*
D10*
G36*
X39974504Y-125126204D02*
G01*
X39998773Y-125129804D01*
X40022571Y-125135765D01*
X40045671Y-125144030D01*
X40067849Y-125154520D01*
X40088893Y-125167133D01*
X40108598Y-125181747D01*
X40126777Y-125198223D01*
X40143253Y-125216402D01*
X40157867Y-125236107D01*
X40170480Y-125257151D01*
X40180970Y-125279329D01*
X40189235Y-125302429D01*
X40195196Y-125326227D01*
X40198796Y-125350496D01*
X40200000Y-125375000D01*
X40200000Y-126625000D01*
X40198796Y-126649504D01*
X40195196Y-126673773D01*
X40189235Y-126697571D01*
X40180970Y-126720671D01*
X40170480Y-126742849D01*
X40157867Y-126763893D01*
X40143253Y-126783598D01*
X40126777Y-126801777D01*
X40108598Y-126818253D01*
X40088893Y-126832867D01*
X40067849Y-126845480D01*
X40045671Y-126855970D01*
X40022571Y-126864235D01*
X39998773Y-126870196D01*
X39974504Y-126873796D01*
X39950000Y-126875000D01*
X39025000Y-126875000D01*
X39000496Y-126873796D01*
X38976227Y-126870196D01*
X38952429Y-126864235D01*
X38929329Y-126855970D01*
X38907151Y-126845480D01*
X38886107Y-126832867D01*
X38866402Y-126818253D01*
X38848223Y-126801777D01*
X38831747Y-126783598D01*
X38817133Y-126763893D01*
X38804520Y-126742849D01*
X38794030Y-126720671D01*
X38785765Y-126697571D01*
X38779804Y-126673773D01*
X38776204Y-126649504D01*
X38775000Y-126625000D01*
X38775000Y-125375000D01*
X38776204Y-125350496D01*
X38779804Y-125326227D01*
X38785765Y-125302429D01*
X38794030Y-125279329D01*
X38804520Y-125257151D01*
X38817133Y-125236107D01*
X38831747Y-125216402D01*
X38848223Y-125198223D01*
X38866402Y-125181747D01*
X38886107Y-125167133D01*
X38907151Y-125154520D01*
X38929329Y-125144030D01*
X38952429Y-125135765D01*
X38976227Y-125129804D01*
X39000496Y-125126204D01*
X39025000Y-125125000D01*
X39950000Y-125125000D01*
X39974504Y-125126204D01*
X39974504Y-125126204D01*
G37*
D11*
X39487500Y-126000000D03*
D10*
G36*
X56999504Y-125126204D02*
G01*
X57023773Y-125129804D01*
X57047571Y-125135765D01*
X57070671Y-125144030D01*
X57092849Y-125154520D01*
X57113893Y-125167133D01*
X57133598Y-125181747D01*
X57151777Y-125198223D01*
X57168253Y-125216402D01*
X57182867Y-125236107D01*
X57195480Y-125257151D01*
X57205970Y-125279329D01*
X57214235Y-125302429D01*
X57220196Y-125326227D01*
X57223796Y-125350496D01*
X57225000Y-125375000D01*
X57225000Y-126625000D01*
X57223796Y-126649504D01*
X57220196Y-126673773D01*
X57214235Y-126697571D01*
X57205970Y-126720671D01*
X57195480Y-126742849D01*
X57182867Y-126763893D01*
X57168253Y-126783598D01*
X57151777Y-126801777D01*
X57133598Y-126818253D01*
X57113893Y-126832867D01*
X57092849Y-126845480D01*
X57070671Y-126855970D01*
X57047571Y-126864235D01*
X57023773Y-126870196D01*
X56999504Y-126873796D01*
X56975000Y-126875000D01*
X56050000Y-126875000D01*
X56025496Y-126873796D01*
X56001227Y-126870196D01*
X55977429Y-126864235D01*
X55954329Y-126855970D01*
X55932151Y-126845480D01*
X55911107Y-126832867D01*
X55891402Y-126818253D01*
X55873223Y-126801777D01*
X55856747Y-126783598D01*
X55842133Y-126763893D01*
X55829520Y-126742849D01*
X55819030Y-126720671D01*
X55810765Y-126697571D01*
X55804804Y-126673773D01*
X55801204Y-126649504D01*
X55800000Y-126625000D01*
X55800000Y-125375000D01*
X55801204Y-125350496D01*
X55804804Y-125326227D01*
X55810765Y-125302429D01*
X55819030Y-125279329D01*
X55829520Y-125257151D01*
X55842133Y-125236107D01*
X55856747Y-125216402D01*
X55873223Y-125198223D01*
X55891402Y-125181747D01*
X55911107Y-125167133D01*
X55932151Y-125154520D01*
X55954329Y-125144030D01*
X55977429Y-125135765D01*
X56001227Y-125129804D01*
X56025496Y-125126204D01*
X56050000Y-125125000D01*
X56975000Y-125125000D01*
X56999504Y-125126204D01*
X56999504Y-125126204D01*
G37*
D11*
X56512500Y-126000000D03*
D10*
G36*
X59974504Y-125126204D02*
G01*
X59998773Y-125129804D01*
X60022571Y-125135765D01*
X60045671Y-125144030D01*
X60067849Y-125154520D01*
X60088893Y-125167133D01*
X60108598Y-125181747D01*
X60126777Y-125198223D01*
X60143253Y-125216402D01*
X60157867Y-125236107D01*
X60170480Y-125257151D01*
X60180970Y-125279329D01*
X60189235Y-125302429D01*
X60195196Y-125326227D01*
X60198796Y-125350496D01*
X60200000Y-125375000D01*
X60200000Y-126625000D01*
X60198796Y-126649504D01*
X60195196Y-126673773D01*
X60189235Y-126697571D01*
X60180970Y-126720671D01*
X60170480Y-126742849D01*
X60157867Y-126763893D01*
X60143253Y-126783598D01*
X60126777Y-126801777D01*
X60108598Y-126818253D01*
X60088893Y-126832867D01*
X60067849Y-126845480D01*
X60045671Y-126855970D01*
X60022571Y-126864235D01*
X59998773Y-126870196D01*
X59974504Y-126873796D01*
X59950000Y-126875000D01*
X59025000Y-126875000D01*
X59000496Y-126873796D01*
X58976227Y-126870196D01*
X58952429Y-126864235D01*
X58929329Y-126855970D01*
X58907151Y-126845480D01*
X58886107Y-126832867D01*
X58866402Y-126818253D01*
X58848223Y-126801777D01*
X58831747Y-126783598D01*
X58817133Y-126763893D01*
X58804520Y-126742849D01*
X58794030Y-126720671D01*
X58785765Y-126697571D01*
X58779804Y-126673773D01*
X58776204Y-126649504D01*
X58775000Y-126625000D01*
X58775000Y-125375000D01*
X58776204Y-125350496D01*
X58779804Y-125326227D01*
X58785765Y-125302429D01*
X58794030Y-125279329D01*
X58804520Y-125257151D01*
X58817133Y-125236107D01*
X58831747Y-125216402D01*
X58848223Y-125198223D01*
X58866402Y-125181747D01*
X58886107Y-125167133D01*
X58907151Y-125154520D01*
X58929329Y-125144030D01*
X58952429Y-125135765D01*
X58976227Y-125129804D01*
X59000496Y-125126204D01*
X59025000Y-125125000D01*
X59950000Y-125125000D01*
X59974504Y-125126204D01*
X59974504Y-125126204D01*
G37*
D11*
X59487500Y-126000000D03*
D10*
G36*
X76999504Y-125126204D02*
G01*
X77023773Y-125129804D01*
X77047571Y-125135765D01*
X77070671Y-125144030D01*
X77092849Y-125154520D01*
X77113893Y-125167133D01*
X77133598Y-125181747D01*
X77151777Y-125198223D01*
X77168253Y-125216402D01*
X77182867Y-125236107D01*
X77195480Y-125257151D01*
X77205970Y-125279329D01*
X77214235Y-125302429D01*
X77220196Y-125326227D01*
X77223796Y-125350496D01*
X77225000Y-125375000D01*
X77225000Y-126625000D01*
X77223796Y-126649504D01*
X77220196Y-126673773D01*
X77214235Y-126697571D01*
X77205970Y-126720671D01*
X77195480Y-126742849D01*
X77182867Y-126763893D01*
X77168253Y-126783598D01*
X77151777Y-126801777D01*
X77133598Y-126818253D01*
X77113893Y-126832867D01*
X77092849Y-126845480D01*
X77070671Y-126855970D01*
X77047571Y-126864235D01*
X77023773Y-126870196D01*
X76999504Y-126873796D01*
X76975000Y-126875000D01*
X76050000Y-126875000D01*
X76025496Y-126873796D01*
X76001227Y-126870196D01*
X75977429Y-126864235D01*
X75954329Y-126855970D01*
X75932151Y-126845480D01*
X75911107Y-126832867D01*
X75891402Y-126818253D01*
X75873223Y-126801777D01*
X75856747Y-126783598D01*
X75842133Y-126763893D01*
X75829520Y-126742849D01*
X75819030Y-126720671D01*
X75810765Y-126697571D01*
X75804804Y-126673773D01*
X75801204Y-126649504D01*
X75800000Y-126625000D01*
X75800000Y-125375000D01*
X75801204Y-125350496D01*
X75804804Y-125326227D01*
X75810765Y-125302429D01*
X75819030Y-125279329D01*
X75829520Y-125257151D01*
X75842133Y-125236107D01*
X75856747Y-125216402D01*
X75873223Y-125198223D01*
X75891402Y-125181747D01*
X75911107Y-125167133D01*
X75932151Y-125154520D01*
X75954329Y-125144030D01*
X75977429Y-125135765D01*
X76001227Y-125129804D01*
X76025496Y-125126204D01*
X76050000Y-125125000D01*
X76975000Y-125125000D01*
X76999504Y-125126204D01*
X76999504Y-125126204D01*
G37*
D11*
X76512500Y-126000000D03*
D10*
G36*
X79974504Y-125126204D02*
G01*
X79998773Y-125129804D01*
X80022571Y-125135765D01*
X80045671Y-125144030D01*
X80067849Y-125154520D01*
X80088893Y-125167133D01*
X80108598Y-125181747D01*
X80126777Y-125198223D01*
X80143253Y-125216402D01*
X80157867Y-125236107D01*
X80170480Y-125257151D01*
X80180970Y-125279329D01*
X80189235Y-125302429D01*
X80195196Y-125326227D01*
X80198796Y-125350496D01*
X80200000Y-125375000D01*
X80200000Y-126625000D01*
X80198796Y-126649504D01*
X80195196Y-126673773D01*
X80189235Y-126697571D01*
X80180970Y-126720671D01*
X80170480Y-126742849D01*
X80157867Y-126763893D01*
X80143253Y-126783598D01*
X80126777Y-126801777D01*
X80108598Y-126818253D01*
X80088893Y-126832867D01*
X80067849Y-126845480D01*
X80045671Y-126855970D01*
X80022571Y-126864235D01*
X79998773Y-126870196D01*
X79974504Y-126873796D01*
X79950000Y-126875000D01*
X79025000Y-126875000D01*
X79000496Y-126873796D01*
X78976227Y-126870196D01*
X78952429Y-126864235D01*
X78929329Y-126855970D01*
X78907151Y-126845480D01*
X78886107Y-126832867D01*
X78866402Y-126818253D01*
X78848223Y-126801777D01*
X78831747Y-126783598D01*
X78817133Y-126763893D01*
X78804520Y-126742849D01*
X78794030Y-126720671D01*
X78785765Y-126697571D01*
X78779804Y-126673773D01*
X78776204Y-126649504D01*
X78775000Y-126625000D01*
X78775000Y-125375000D01*
X78776204Y-125350496D01*
X78779804Y-125326227D01*
X78785765Y-125302429D01*
X78794030Y-125279329D01*
X78804520Y-125257151D01*
X78817133Y-125236107D01*
X78831747Y-125216402D01*
X78848223Y-125198223D01*
X78866402Y-125181747D01*
X78886107Y-125167133D01*
X78907151Y-125154520D01*
X78929329Y-125144030D01*
X78952429Y-125135765D01*
X78976227Y-125129804D01*
X79000496Y-125126204D01*
X79025000Y-125125000D01*
X79950000Y-125125000D01*
X79974504Y-125126204D01*
X79974504Y-125126204D01*
G37*
D11*
X79487500Y-126000000D03*
D10*
G36*
X26999504Y-142126204D02*
G01*
X27023773Y-142129804D01*
X27047571Y-142135765D01*
X27070671Y-142144030D01*
X27092849Y-142154520D01*
X27113893Y-142167133D01*
X27133598Y-142181747D01*
X27151777Y-142198223D01*
X27168253Y-142216402D01*
X27182867Y-142236107D01*
X27195480Y-142257151D01*
X27205970Y-142279329D01*
X27214235Y-142302429D01*
X27220196Y-142326227D01*
X27223796Y-142350496D01*
X27225000Y-142375000D01*
X27225000Y-143625000D01*
X27223796Y-143649504D01*
X27220196Y-143673773D01*
X27214235Y-143697571D01*
X27205970Y-143720671D01*
X27195480Y-143742849D01*
X27182867Y-143763893D01*
X27168253Y-143783598D01*
X27151777Y-143801777D01*
X27133598Y-143818253D01*
X27113893Y-143832867D01*
X27092849Y-143845480D01*
X27070671Y-143855970D01*
X27047571Y-143864235D01*
X27023773Y-143870196D01*
X26999504Y-143873796D01*
X26975000Y-143875000D01*
X26050000Y-143875000D01*
X26025496Y-143873796D01*
X26001227Y-143870196D01*
X25977429Y-143864235D01*
X25954329Y-143855970D01*
X25932151Y-143845480D01*
X25911107Y-143832867D01*
X25891402Y-143818253D01*
X25873223Y-143801777D01*
X25856747Y-143783598D01*
X25842133Y-143763893D01*
X25829520Y-143742849D01*
X25819030Y-143720671D01*
X25810765Y-143697571D01*
X25804804Y-143673773D01*
X25801204Y-143649504D01*
X25800000Y-143625000D01*
X25800000Y-142375000D01*
X25801204Y-142350496D01*
X25804804Y-142326227D01*
X25810765Y-142302429D01*
X25819030Y-142279329D01*
X25829520Y-142257151D01*
X25842133Y-142236107D01*
X25856747Y-142216402D01*
X25873223Y-142198223D01*
X25891402Y-142181747D01*
X25911107Y-142167133D01*
X25932151Y-142154520D01*
X25954329Y-142144030D01*
X25977429Y-142135765D01*
X26001227Y-142129804D01*
X26025496Y-142126204D01*
X26050000Y-142125000D01*
X26975000Y-142125000D01*
X26999504Y-142126204D01*
X26999504Y-142126204D01*
G37*
D11*
X26512500Y-143000000D03*
D10*
G36*
X29974504Y-142126204D02*
G01*
X29998773Y-142129804D01*
X30022571Y-142135765D01*
X30045671Y-142144030D01*
X30067849Y-142154520D01*
X30088893Y-142167133D01*
X30108598Y-142181747D01*
X30126777Y-142198223D01*
X30143253Y-142216402D01*
X30157867Y-142236107D01*
X30170480Y-142257151D01*
X30180970Y-142279329D01*
X30189235Y-142302429D01*
X30195196Y-142326227D01*
X30198796Y-142350496D01*
X30200000Y-142375000D01*
X30200000Y-143625000D01*
X30198796Y-143649504D01*
X30195196Y-143673773D01*
X30189235Y-143697571D01*
X30180970Y-143720671D01*
X30170480Y-143742849D01*
X30157867Y-143763893D01*
X30143253Y-143783598D01*
X30126777Y-143801777D01*
X30108598Y-143818253D01*
X30088893Y-143832867D01*
X30067849Y-143845480D01*
X30045671Y-143855970D01*
X30022571Y-143864235D01*
X29998773Y-143870196D01*
X29974504Y-143873796D01*
X29950000Y-143875000D01*
X29025000Y-143875000D01*
X29000496Y-143873796D01*
X28976227Y-143870196D01*
X28952429Y-143864235D01*
X28929329Y-143855970D01*
X28907151Y-143845480D01*
X28886107Y-143832867D01*
X28866402Y-143818253D01*
X28848223Y-143801777D01*
X28831747Y-143783598D01*
X28817133Y-143763893D01*
X28804520Y-143742849D01*
X28794030Y-143720671D01*
X28785765Y-143697571D01*
X28779804Y-143673773D01*
X28776204Y-143649504D01*
X28775000Y-143625000D01*
X28775000Y-142375000D01*
X28776204Y-142350496D01*
X28779804Y-142326227D01*
X28785765Y-142302429D01*
X28794030Y-142279329D01*
X28804520Y-142257151D01*
X28817133Y-142236107D01*
X28831747Y-142216402D01*
X28848223Y-142198223D01*
X28866402Y-142181747D01*
X28886107Y-142167133D01*
X28907151Y-142154520D01*
X28929329Y-142144030D01*
X28952429Y-142135765D01*
X28976227Y-142129804D01*
X29000496Y-142126204D01*
X29025000Y-142125000D01*
X29950000Y-142125000D01*
X29974504Y-142126204D01*
X29974504Y-142126204D01*
G37*
D11*
X29487500Y-143000000D03*
D10*
G36*
X49974504Y-142126204D02*
G01*
X49998773Y-142129804D01*
X50022571Y-142135765D01*
X50045671Y-142144030D01*
X50067849Y-142154520D01*
X50088893Y-142167133D01*
X50108598Y-142181747D01*
X50126777Y-142198223D01*
X50143253Y-142216402D01*
X50157867Y-142236107D01*
X50170480Y-142257151D01*
X50180970Y-142279329D01*
X50189235Y-142302429D01*
X50195196Y-142326227D01*
X50198796Y-142350496D01*
X50200000Y-142375000D01*
X50200000Y-143625000D01*
X50198796Y-143649504D01*
X50195196Y-143673773D01*
X50189235Y-143697571D01*
X50180970Y-143720671D01*
X50170480Y-143742849D01*
X50157867Y-143763893D01*
X50143253Y-143783598D01*
X50126777Y-143801777D01*
X50108598Y-143818253D01*
X50088893Y-143832867D01*
X50067849Y-143845480D01*
X50045671Y-143855970D01*
X50022571Y-143864235D01*
X49998773Y-143870196D01*
X49974504Y-143873796D01*
X49950000Y-143875000D01*
X49025000Y-143875000D01*
X49000496Y-143873796D01*
X48976227Y-143870196D01*
X48952429Y-143864235D01*
X48929329Y-143855970D01*
X48907151Y-143845480D01*
X48886107Y-143832867D01*
X48866402Y-143818253D01*
X48848223Y-143801777D01*
X48831747Y-143783598D01*
X48817133Y-143763893D01*
X48804520Y-143742849D01*
X48794030Y-143720671D01*
X48785765Y-143697571D01*
X48779804Y-143673773D01*
X48776204Y-143649504D01*
X48775000Y-143625000D01*
X48775000Y-142375000D01*
X48776204Y-142350496D01*
X48779804Y-142326227D01*
X48785765Y-142302429D01*
X48794030Y-142279329D01*
X48804520Y-142257151D01*
X48817133Y-142236107D01*
X48831747Y-142216402D01*
X48848223Y-142198223D01*
X48866402Y-142181747D01*
X48886107Y-142167133D01*
X48907151Y-142154520D01*
X48929329Y-142144030D01*
X48952429Y-142135765D01*
X48976227Y-142129804D01*
X49000496Y-142126204D01*
X49025000Y-142125000D01*
X49950000Y-142125000D01*
X49974504Y-142126204D01*
X49974504Y-142126204D01*
G37*
D11*
X49487500Y-143000000D03*
D10*
G36*
X46999504Y-142126204D02*
G01*
X47023773Y-142129804D01*
X47047571Y-142135765D01*
X47070671Y-142144030D01*
X47092849Y-142154520D01*
X47113893Y-142167133D01*
X47133598Y-142181747D01*
X47151777Y-142198223D01*
X47168253Y-142216402D01*
X47182867Y-142236107D01*
X47195480Y-142257151D01*
X47205970Y-142279329D01*
X47214235Y-142302429D01*
X47220196Y-142326227D01*
X47223796Y-142350496D01*
X47225000Y-142375000D01*
X47225000Y-143625000D01*
X47223796Y-143649504D01*
X47220196Y-143673773D01*
X47214235Y-143697571D01*
X47205970Y-143720671D01*
X47195480Y-143742849D01*
X47182867Y-143763893D01*
X47168253Y-143783598D01*
X47151777Y-143801777D01*
X47133598Y-143818253D01*
X47113893Y-143832867D01*
X47092849Y-143845480D01*
X47070671Y-143855970D01*
X47047571Y-143864235D01*
X47023773Y-143870196D01*
X46999504Y-143873796D01*
X46975000Y-143875000D01*
X46050000Y-143875000D01*
X46025496Y-143873796D01*
X46001227Y-143870196D01*
X45977429Y-143864235D01*
X45954329Y-143855970D01*
X45932151Y-143845480D01*
X45911107Y-143832867D01*
X45891402Y-143818253D01*
X45873223Y-143801777D01*
X45856747Y-143783598D01*
X45842133Y-143763893D01*
X45829520Y-143742849D01*
X45819030Y-143720671D01*
X45810765Y-143697571D01*
X45804804Y-143673773D01*
X45801204Y-143649504D01*
X45800000Y-143625000D01*
X45800000Y-142375000D01*
X45801204Y-142350496D01*
X45804804Y-142326227D01*
X45810765Y-142302429D01*
X45819030Y-142279329D01*
X45829520Y-142257151D01*
X45842133Y-142236107D01*
X45856747Y-142216402D01*
X45873223Y-142198223D01*
X45891402Y-142181747D01*
X45911107Y-142167133D01*
X45932151Y-142154520D01*
X45954329Y-142144030D01*
X45977429Y-142135765D01*
X46001227Y-142129804D01*
X46025496Y-142126204D01*
X46050000Y-142125000D01*
X46975000Y-142125000D01*
X46999504Y-142126204D01*
X46999504Y-142126204D01*
G37*
D11*
X46512500Y-143000000D03*
D10*
G36*
X69974504Y-142126204D02*
G01*
X69998773Y-142129804D01*
X70022571Y-142135765D01*
X70045671Y-142144030D01*
X70067849Y-142154520D01*
X70088893Y-142167133D01*
X70108598Y-142181747D01*
X70126777Y-142198223D01*
X70143253Y-142216402D01*
X70157867Y-142236107D01*
X70170480Y-142257151D01*
X70180970Y-142279329D01*
X70189235Y-142302429D01*
X70195196Y-142326227D01*
X70198796Y-142350496D01*
X70200000Y-142375000D01*
X70200000Y-143625000D01*
X70198796Y-143649504D01*
X70195196Y-143673773D01*
X70189235Y-143697571D01*
X70180970Y-143720671D01*
X70170480Y-143742849D01*
X70157867Y-143763893D01*
X70143253Y-143783598D01*
X70126777Y-143801777D01*
X70108598Y-143818253D01*
X70088893Y-143832867D01*
X70067849Y-143845480D01*
X70045671Y-143855970D01*
X70022571Y-143864235D01*
X69998773Y-143870196D01*
X69974504Y-143873796D01*
X69950000Y-143875000D01*
X69025000Y-143875000D01*
X69000496Y-143873796D01*
X68976227Y-143870196D01*
X68952429Y-143864235D01*
X68929329Y-143855970D01*
X68907151Y-143845480D01*
X68886107Y-143832867D01*
X68866402Y-143818253D01*
X68848223Y-143801777D01*
X68831747Y-143783598D01*
X68817133Y-143763893D01*
X68804520Y-143742849D01*
X68794030Y-143720671D01*
X68785765Y-143697571D01*
X68779804Y-143673773D01*
X68776204Y-143649504D01*
X68775000Y-143625000D01*
X68775000Y-142375000D01*
X68776204Y-142350496D01*
X68779804Y-142326227D01*
X68785765Y-142302429D01*
X68794030Y-142279329D01*
X68804520Y-142257151D01*
X68817133Y-142236107D01*
X68831747Y-142216402D01*
X68848223Y-142198223D01*
X68866402Y-142181747D01*
X68886107Y-142167133D01*
X68907151Y-142154520D01*
X68929329Y-142144030D01*
X68952429Y-142135765D01*
X68976227Y-142129804D01*
X69000496Y-142126204D01*
X69025000Y-142125000D01*
X69950000Y-142125000D01*
X69974504Y-142126204D01*
X69974504Y-142126204D01*
G37*
D11*
X69487500Y-143000000D03*
D10*
G36*
X66999504Y-142126204D02*
G01*
X67023773Y-142129804D01*
X67047571Y-142135765D01*
X67070671Y-142144030D01*
X67092849Y-142154520D01*
X67113893Y-142167133D01*
X67133598Y-142181747D01*
X67151777Y-142198223D01*
X67168253Y-142216402D01*
X67182867Y-142236107D01*
X67195480Y-142257151D01*
X67205970Y-142279329D01*
X67214235Y-142302429D01*
X67220196Y-142326227D01*
X67223796Y-142350496D01*
X67225000Y-142375000D01*
X67225000Y-143625000D01*
X67223796Y-143649504D01*
X67220196Y-143673773D01*
X67214235Y-143697571D01*
X67205970Y-143720671D01*
X67195480Y-143742849D01*
X67182867Y-143763893D01*
X67168253Y-143783598D01*
X67151777Y-143801777D01*
X67133598Y-143818253D01*
X67113893Y-143832867D01*
X67092849Y-143845480D01*
X67070671Y-143855970D01*
X67047571Y-143864235D01*
X67023773Y-143870196D01*
X66999504Y-143873796D01*
X66975000Y-143875000D01*
X66050000Y-143875000D01*
X66025496Y-143873796D01*
X66001227Y-143870196D01*
X65977429Y-143864235D01*
X65954329Y-143855970D01*
X65932151Y-143845480D01*
X65911107Y-143832867D01*
X65891402Y-143818253D01*
X65873223Y-143801777D01*
X65856747Y-143783598D01*
X65842133Y-143763893D01*
X65829520Y-143742849D01*
X65819030Y-143720671D01*
X65810765Y-143697571D01*
X65804804Y-143673773D01*
X65801204Y-143649504D01*
X65800000Y-143625000D01*
X65800000Y-142375000D01*
X65801204Y-142350496D01*
X65804804Y-142326227D01*
X65810765Y-142302429D01*
X65819030Y-142279329D01*
X65829520Y-142257151D01*
X65842133Y-142236107D01*
X65856747Y-142216402D01*
X65873223Y-142198223D01*
X65891402Y-142181747D01*
X65911107Y-142167133D01*
X65932151Y-142154520D01*
X65954329Y-142144030D01*
X65977429Y-142135765D01*
X66001227Y-142129804D01*
X66025496Y-142126204D01*
X66050000Y-142125000D01*
X66975000Y-142125000D01*
X66999504Y-142126204D01*
X66999504Y-142126204D01*
G37*
D11*
X66512500Y-143000000D03*
D10*
G36*
X39974504Y-159126204D02*
G01*
X39998773Y-159129804D01*
X40022571Y-159135765D01*
X40045671Y-159144030D01*
X40067849Y-159154520D01*
X40088893Y-159167133D01*
X40108598Y-159181747D01*
X40126777Y-159198223D01*
X40143253Y-159216402D01*
X40157867Y-159236107D01*
X40170480Y-159257151D01*
X40180970Y-159279329D01*
X40189235Y-159302429D01*
X40195196Y-159326227D01*
X40198796Y-159350496D01*
X40200000Y-159375000D01*
X40200000Y-160625000D01*
X40198796Y-160649504D01*
X40195196Y-160673773D01*
X40189235Y-160697571D01*
X40180970Y-160720671D01*
X40170480Y-160742849D01*
X40157867Y-160763893D01*
X40143253Y-160783598D01*
X40126777Y-160801777D01*
X40108598Y-160818253D01*
X40088893Y-160832867D01*
X40067849Y-160845480D01*
X40045671Y-160855970D01*
X40022571Y-160864235D01*
X39998773Y-160870196D01*
X39974504Y-160873796D01*
X39950000Y-160875000D01*
X39025000Y-160875000D01*
X39000496Y-160873796D01*
X38976227Y-160870196D01*
X38952429Y-160864235D01*
X38929329Y-160855970D01*
X38907151Y-160845480D01*
X38886107Y-160832867D01*
X38866402Y-160818253D01*
X38848223Y-160801777D01*
X38831747Y-160783598D01*
X38817133Y-160763893D01*
X38804520Y-160742849D01*
X38794030Y-160720671D01*
X38785765Y-160697571D01*
X38779804Y-160673773D01*
X38776204Y-160649504D01*
X38775000Y-160625000D01*
X38775000Y-159375000D01*
X38776204Y-159350496D01*
X38779804Y-159326227D01*
X38785765Y-159302429D01*
X38794030Y-159279329D01*
X38804520Y-159257151D01*
X38817133Y-159236107D01*
X38831747Y-159216402D01*
X38848223Y-159198223D01*
X38866402Y-159181747D01*
X38886107Y-159167133D01*
X38907151Y-159154520D01*
X38929329Y-159144030D01*
X38952429Y-159135765D01*
X38976227Y-159129804D01*
X39000496Y-159126204D01*
X39025000Y-159125000D01*
X39950000Y-159125000D01*
X39974504Y-159126204D01*
X39974504Y-159126204D01*
G37*
D11*
X39487500Y-160000000D03*
D10*
G36*
X36999504Y-159126204D02*
G01*
X37023773Y-159129804D01*
X37047571Y-159135765D01*
X37070671Y-159144030D01*
X37092849Y-159154520D01*
X37113893Y-159167133D01*
X37133598Y-159181747D01*
X37151777Y-159198223D01*
X37168253Y-159216402D01*
X37182867Y-159236107D01*
X37195480Y-159257151D01*
X37205970Y-159279329D01*
X37214235Y-159302429D01*
X37220196Y-159326227D01*
X37223796Y-159350496D01*
X37225000Y-159375000D01*
X37225000Y-160625000D01*
X37223796Y-160649504D01*
X37220196Y-160673773D01*
X37214235Y-160697571D01*
X37205970Y-160720671D01*
X37195480Y-160742849D01*
X37182867Y-160763893D01*
X37168253Y-160783598D01*
X37151777Y-160801777D01*
X37133598Y-160818253D01*
X37113893Y-160832867D01*
X37092849Y-160845480D01*
X37070671Y-160855970D01*
X37047571Y-160864235D01*
X37023773Y-160870196D01*
X36999504Y-160873796D01*
X36975000Y-160875000D01*
X36050000Y-160875000D01*
X36025496Y-160873796D01*
X36001227Y-160870196D01*
X35977429Y-160864235D01*
X35954329Y-160855970D01*
X35932151Y-160845480D01*
X35911107Y-160832867D01*
X35891402Y-160818253D01*
X35873223Y-160801777D01*
X35856747Y-160783598D01*
X35842133Y-160763893D01*
X35829520Y-160742849D01*
X35819030Y-160720671D01*
X35810765Y-160697571D01*
X35804804Y-160673773D01*
X35801204Y-160649504D01*
X35800000Y-160625000D01*
X35800000Y-159375000D01*
X35801204Y-159350496D01*
X35804804Y-159326227D01*
X35810765Y-159302429D01*
X35819030Y-159279329D01*
X35829520Y-159257151D01*
X35842133Y-159236107D01*
X35856747Y-159216402D01*
X35873223Y-159198223D01*
X35891402Y-159181747D01*
X35911107Y-159167133D01*
X35932151Y-159154520D01*
X35954329Y-159144030D01*
X35977429Y-159135765D01*
X36001227Y-159129804D01*
X36025496Y-159126204D01*
X36050000Y-159125000D01*
X36975000Y-159125000D01*
X36999504Y-159126204D01*
X36999504Y-159126204D01*
G37*
D11*
X36512500Y-160000000D03*
D10*
G36*
X59974504Y-159126204D02*
G01*
X59998773Y-159129804D01*
X60022571Y-159135765D01*
X60045671Y-159144030D01*
X60067849Y-159154520D01*
X60088893Y-159167133D01*
X60108598Y-159181747D01*
X60126777Y-159198223D01*
X60143253Y-159216402D01*
X60157867Y-159236107D01*
X60170480Y-159257151D01*
X60180970Y-159279329D01*
X60189235Y-159302429D01*
X60195196Y-159326227D01*
X60198796Y-159350496D01*
X60200000Y-159375000D01*
X60200000Y-160625000D01*
X60198796Y-160649504D01*
X60195196Y-160673773D01*
X60189235Y-160697571D01*
X60180970Y-160720671D01*
X60170480Y-160742849D01*
X60157867Y-160763893D01*
X60143253Y-160783598D01*
X60126777Y-160801777D01*
X60108598Y-160818253D01*
X60088893Y-160832867D01*
X60067849Y-160845480D01*
X60045671Y-160855970D01*
X60022571Y-160864235D01*
X59998773Y-160870196D01*
X59974504Y-160873796D01*
X59950000Y-160875000D01*
X59025000Y-160875000D01*
X59000496Y-160873796D01*
X58976227Y-160870196D01*
X58952429Y-160864235D01*
X58929329Y-160855970D01*
X58907151Y-160845480D01*
X58886107Y-160832867D01*
X58866402Y-160818253D01*
X58848223Y-160801777D01*
X58831747Y-160783598D01*
X58817133Y-160763893D01*
X58804520Y-160742849D01*
X58794030Y-160720671D01*
X58785765Y-160697571D01*
X58779804Y-160673773D01*
X58776204Y-160649504D01*
X58775000Y-160625000D01*
X58775000Y-159375000D01*
X58776204Y-159350496D01*
X58779804Y-159326227D01*
X58785765Y-159302429D01*
X58794030Y-159279329D01*
X58804520Y-159257151D01*
X58817133Y-159236107D01*
X58831747Y-159216402D01*
X58848223Y-159198223D01*
X58866402Y-159181747D01*
X58886107Y-159167133D01*
X58907151Y-159154520D01*
X58929329Y-159144030D01*
X58952429Y-159135765D01*
X58976227Y-159129804D01*
X59000496Y-159126204D01*
X59025000Y-159125000D01*
X59950000Y-159125000D01*
X59974504Y-159126204D01*
X59974504Y-159126204D01*
G37*
D11*
X59487500Y-160000000D03*
D10*
G36*
X56999504Y-159126204D02*
G01*
X57023773Y-159129804D01*
X57047571Y-159135765D01*
X57070671Y-159144030D01*
X57092849Y-159154520D01*
X57113893Y-159167133D01*
X57133598Y-159181747D01*
X57151777Y-159198223D01*
X57168253Y-159216402D01*
X57182867Y-159236107D01*
X57195480Y-159257151D01*
X57205970Y-159279329D01*
X57214235Y-159302429D01*
X57220196Y-159326227D01*
X57223796Y-159350496D01*
X57225000Y-159375000D01*
X57225000Y-160625000D01*
X57223796Y-160649504D01*
X57220196Y-160673773D01*
X57214235Y-160697571D01*
X57205970Y-160720671D01*
X57195480Y-160742849D01*
X57182867Y-160763893D01*
X57168253Y-160783598D01*
X57151777Y-160801777D01*
X57133598Y-160818253D01*
X57113893Y-160832867D01*
X57092849Y-160845480D01*
X57070671Y-160855970D01*
X57047571Y-160864235D01*
X57023773Y-160870196D01*
X56999504Y-160873796D01*
X56975000Y-160875000D01*
X56050000Y-160875000D01*
X56025496Y-160873796D01*
X56001227Y-160870196D01*
X55977429Y-160864235D01*
X55954329Y-160855970D01*
X55932151Y-160845480D01*
X55911107Y-160832867D01*
X55891402Y-160818253D01*
X55873223Y-160801777D01*
X55856747Y-160783598D01*
X55842133Y-160763893D01*
X55829520Y-160742849D01*
X55819030Y-160720671D01*
X55810765Y-160697571D01*
X55804804Y-160673773D01*
X55801204Y-160649504D01*
X55800000Y-160625000D01*
X55800000Y-159375000D01*
X55801204Y-159350496D01*
X55804804Y-159326227D01*
X55810765Y-159302429D01*
X55819030Y-159279329D01*
X55829520Y-159257151D01*
X55842133Y-159236107D01*
X55856747Y-159216402D01*
X55873223Y-159198223D01*
X55891402Y-159181747D01*
X55911107Y-159167133D01*
X55932151Y-159154520D01*
X55954329Y-159144030D01*
X55977429Y-159135765D01*
X56001227Y-159129804D01*
X56025496Y-159126204D01*
X56050000Y-159125000D01*
X56975000Y-159125000D01*
X56999504Y-159126204D01*
X56999504Y-159126204D01*
G37*
D11*
X56512500Y-160000000D03*
D10*
G36*
X46999504Y-176126204D02*
G01*
X47023773Y-176129804D01*
X47047571Y-176135765D01*
X47070671Y-176144030D01*
X47092849Y-176154520D01*
X47113893Y-176167133D01*
X47133598Y-176181747D01*
X47151777Y-176198223D01*
X47168253Y-176216402D01*
X47182867Y-176236107D01*
X47195480Y-176257151D01*
X47205970Y-176279329D01*
X47214235Y-176302429D01*
X47220196Y-176326227D01*
X47223796Y-176350496D01*
X47225000Y-176375000D01*
X47225000Y-177625000D01*
X47223796Y-177649504D01*
X47220196Y-177673773D01*
X47214235Y-177697571D01*
X47205970Y-177720671D01*
X47195480Y-177742849D01*
X47182867Y-177763893D01*
X47168253Y-177783598D01*
X47151777Y-177801777D01*
X47133598Y-177818253D01*
X47113893Y-177832867D01*
X47092849Y-177845480D01*
X47070671Y-177855970D01*
X47047571Y-177864235D01*
X47023773Y-177870196D01*
X46999504Y-177873796D01*
X46975000Y-177875000D01*
X46050000Y-177875000D01*
X46025496Y-177873796D01*
X46001227Y-177870196D01*
X45977429Y-177864235D01*
X45954329Y-177855970D01*
X45932151Y-177845480D01*
X45911107Y-177832867D01*
X45891402Y-177818253D01*
X45873223Y-177801777D01*
X45856747Y-177783598D01*
X45842133Y-177763893D01*
X45829520Y-177742849D01*
X45819030Y-177720671D01*
X45810765Y-177697571D01*
X45804804Y-177673773D01*
X45801204Y-177649504D01*
X45800000Y-177625000D01*
X45800000Y-176375000D01*
X45801204Y-176350496D01*
X45804804Y-176326227D01*
X45810765Y-176302429D01*
X45819030Y-176279329D01*
X45829520Y-176257151D01*
X45842133Y-176236107D01*
X45856747Y-176216402D01*
X45873223Y-176198223D01*
X45891402Y-176181747D01*
X45911107Y-176167133D01*
X45932151Y-176154520D01*
X45954329Y-176144030D01*
X45977429Y-176135765D01*
X46001227Y-176129804D01*
X46025496Y-176126204D01*
X46050000Y-176125000D01*
X46975000Y-176125000D01*
X46999504Y-176126204D01*
X46999504Y-176126204D01*
G37*
D11*
X46512500Y-177000000D03*
D10*
G36*
X49974504Y-176126204D02*
G01*
X49998773Y-176129804D01*
X50022571Y-176135765D01*
X50045671Y-176144030D01*
X50067849Y-176154520D01*
X50088893Y-176167133D01*
X50108598Y-176181747D01*
X50126777Y-176198223D01*
X50143253Y-176216402D01*
X50157867Y-176236107D01*
X50170480Y-176257151D01*
X50180970Y-176279329D01*
X50189235Y-176302429D01*
X50195196Y-176326227D01*
X50198796Y-176350496D01*
X50200000Y-176375000D01*
X50200000Y-177625000D01*
X50198796Y-177649504D01*
X50195196Y-177673773D01*
X50189235Y-177697571D01*
X50180970Y-177720671D01*
X50170480Y-177742849D01*
X50157867Y-177763893D01*
X50143253Y-177783598D01*
X50126777Y-177801777D01*
X50108598Y-177818253D01*
X50088893Y-177832867D01*
X50067849Y-177845480D01*
X50045671Y-177855970D01*
X50022571Y-177864235D01*
X49998773Y-177870196D01*
X49974504Y-177873796D01*
X49950000Y-177875000D01*
X49025000Y-177875000D01*
X49000496Y-177873796D01*
X48976227Y-177870196D01*
X48952429Y-177864235D01*
X48929329Y-177855970D01*
X48907151Y-177845480D01*
X48886107Y-177832867D01*
X48866402Y-177818253D01*
X48848223Y-177801777D01*
X48831747Y-177783598D01*
X48817133Y-177763893D01*
X48804520Y-177742849D01*
X48794030Y-177720671D01*
X48785765Y-177697571D01*
X48779804Y-177673773D01*
X48776204Y-177649504D01*
X48775000Y-177625000D01*
X48775000Y-176375000D01*
X48776204Y-176350496D01*
X48779804Y-176326227D01*
X48785765Y-176302429D01*
X48794030Y-176279329D01*
X48804520Y-176257151D01*
X48817133Y-176236107D01*
X48831747Y-176216402D01*
X48848223Y-176198223D01*
X48866402Y-176181747D01*
X48886107Y-176167133D01*
X48907151Y-176154520D01*
X48929329Y-176144030D01*
X48952429Y-176135765D01*
X48976227Y-176129804D01*
X49000496Y-176126204D01*
X49025000Y-176125000D01*
X49950000Y-176125000D01*
X49974504Y-176126204D01*
X49974504Y-176126204D01*
G37*
D11*
X49487500Y-177000000D03*
D10*
G36*
X110649504Y-161026204D02*
G01*
X110673773Y-161029804D01*
X110697571Y-161035765D01*
X110720671Y-161044030D01*
X110742849Y-161054520D01*
X110763893Y-161067133D01*
X110783598Y-161081747D01*
X110801777Y-161098223D01*
X110818253Y-161116402D01*
X110832867Y-161136107D01*
X110845480Y-161157151D01*
X110855970Y-161179329D01*
X110864235Y-161202429D01*
X110870196Y-161226227D01*
X110873796Y-161250496D01*
X110875000Y-161275000D01*
X110875000Y-162200000D01*
X110873796Y-162224504D01*
X110870196Y-162248773D01*
X110864235Y-162272571D01*
X110855970Y-162295671D01*
X110845480Y-162317849D01*
X110832867Y-162338893D01*
X110818253Y-162358598D01*
X110801777Y-162376777D01*
X110783598Y-162393253D01*
X110763893Y-162407867D01*
X110742849Y-162420480D01*
X110720671Y-162430970D01*
X110697571Y-162439235D01*
X110673773Y-162445196D01*
X110649504Y-162448796D01*
X110625000Y-162450000D01*
X109375000Y-162450000D01*
X109350496Y-162448796D01*
X109326227Y-162445196D01*
X109302429Y-162439235D01*
X109279329Y-162430970D01*
X109257151Y-162420480D01*
X109236107Y-162407867D01*
X109216402Y-162393253D01*
X109198223Y-162376777D01*
X109181747Y-162358598D01*
X109167133Y-162338893D01*
X109154520Y-162317849D01*
X109144030Y-162295671D01*
X109135765Y-162272571D01*
X109129804Y-162248773D01*
X109126204Y-162224504D01*
X109125000Y-162200000D01*
X109125000Y-161275000D01*
X109126204Y-161250496D01*
X109129804Y-161226227D01*
X109135765Y-161202429D01*
X109144030Y-161179329D01*
X109154520Y-161157151D01*
X109167133Y-161136107D01*
X109181747Y-161116402D01*
X109198223Y-161098223D01*
X109216402Y-161081747D01*
X109236107Y-161067133D01*
X109257151Y-161054520D01*
X109279329Y-161044030D01*
X109302429Y-161035765D01*
X109326227Y-161029804D01*
X109350496Y-161026204D01*
X109375000Y-161025000D01*
X110625000Y-161025000D01*
X110649504Y-161026204D01*
X110649504Y-161026204D01*
G37*
D11*
X110000000Y-161737500D03*
D10*
G36*
X110649504Y-158051204D02*
G01*
X110673773Y-158054804D01*
X110697571Y-158060765D01*
X110720671Y-158069030D01*
X110742849Y-158079520D01*
X110763893Y-158092133D01*
X110783598Y-158106747D01*
X110801777Y-158123223D01*
X110818253Y-158141402D01*
X110832867Y-158161107D01*
X110845480Y-158182151D01*
X110855970Y-158204329D01*
X110864235Y-158227429D01*
X110870196Y-158251227D01*
X110873796Y-158275496D01*
X110875000Y-158300000D01*
X110875000Y-159225000D01*
X110873796Y-159249504D01*
X110870196Y-159273773D01*
X110864235Y-159297571D01*
X110855970Y-159320671D01*
X110845480Y-159342849D01*
X110832867Y-159363893D01*
X110818253Y-159383598D01*
X110801777Y-159401777D01*
X110783598Y-159418253D01*
X110763893Y-159432867D01*
X110742849Y-159445480D01*
X110720671Y-159455970D01*
X110697571Y-159464235D01*
X110673773Y-159470196D01*
X110649504Y-159473796D01*
X110625000Y-159475000D01*
X109375000Y-159475000D01*
X109350496Y-159473796D01*
X109326227Y-159470196D01*
X109302429Y-159464235D01*
X109279329Y-159455970D01*
X109257151Y-159445480D01*
X109236107Y-159432867D01*
X109216402Y-159418253D01*
X109198223Y-159401777D01*
X109181747Y-159383598D01*
X109167133Y-159363893D01*
X109154520Y-159342849D01*
X109144030Y-159320671D01*
X109135765Y-159297571D01*
X109129804Y-159273773D01*
X109126204Y-159249504D01*
X109125000Y-159225000D01*
X109125000Y-158300000D01*
X109126204Y-158275496D01*
X109129804Y-158251227D01*
X109135765Y-158227429D01*
X109144030Y-158204329D01*
X109154520Y-158182151D01*
X109167133Y-158161107D01*
X109181747Y-158141402D01*
X109198223Y-158123223D01*
X109216402Y-158106747D01*
X109236107Y-158092133D01*
X109257151Y-158079520D01*
X109279329Y-158069030D01*
X109302429Y-158060765D01*
X109326227Y-158054804D01*
X109350496Y-158051204D01*
X109375000Y-158050000D01*
X110625000Y-158050000D01*
X110649504Y-158051204D01*
X110649504Y-158051204D01*
G37*
D11*
X110000000Y-158762500D03*
D10*
G36*
X110649504Y-173551204D02*
G01*
X110673773Y-173554804D01*
X110697571Y-173560765D01*
X110720671Y-173569030D01*
X110742849Y-173579520D01*
X110763893Y-173592133D01*
X110783598Y-173606747D01*
X110801777Y-173623223D01*
X110818253Y-173641402D01*
X110832867Y-173661107D01*
X110845480Y-173682151D01*
X110855970Y-173704329D01*
X110864235Y-173727429D01*
X110870196Y-173751227D01*
X110873796Y-173775496D01*
X110875000Y-173800000D01*
X110875000Y-174725000D01*
X110873796Y-174749504D01*
X110870196Y-174773773D01*
X110864235Y-174797571D01*
X110855970Y-174820671D01*
X110845480Y-174842849D01*
X110832867Y-174863893D01*
X110818253Y-174883598D01*
X110801777Y-174901777D01*
X110783598Y-174918253D01*
X110763893Y-174932867D01*
X110742849Y-174945480D01*
X110720671Y-174955970D01*
X110697571Y-174964235D01*
X110673773Y-174970196D01*
X110649504Y-174973796D01*
X110625000Y-174975000D01*
X109375000Y-174975000D01*
X109350496Y-174973796D01*
X109326227Y-174970196D01*
X109302429Y-174964235D01*
X109279329Y-174955970D01*
X109257151Y-174945480D01*
X109236107Y-174932867D01*
X109216402Y-174918253D01*
X109198223Y-174901777D01*
X109181747Y-174883598D01*
X109167133Y-174863893D01*
X109154520Y-174842849D01*
X109144030Y-174820671D01*
X109135765Y-174797571D01*
X109129804Y-174773773D01*
X109126204Y-174749504D01*
X109125000Y-174725000D01*
X109125000Y-173800000D01*
X109126204Y-173775496D01*
X109129804Y-173751227D01*
X109135765Y-173727429D01*
X109144030Y-173704329D01*
X109154520Y-173682151D01*
X109167133Y-173661107D01*
X109181747Y-173641402D01*
X109198223Y-173623223D01*
X109216402Y-173606747D01*
X109236107Y-173592133D01*
X109257151Y-173579520D01*
X109279329Y-173569030D01*
X109302429Y-173560765D01*
X109326227Y-173554804D01*
X109350496Y-173551204D01*
X109375000Y-173550000D01*
X110625000Y-173550000D01*
X110649504Y-173551204D01*
X110649504Y-173551204D01*
G37*
D11*
X110000000Y-174262500D03*
D10*
G36*
X110649504Y-176526204D02*
G01*
X110673773Y-176529804D01*
X110697571Y-176535765D01*
X110720671Y-176544030D01*
X110742849Y-176554520D01*
X110763893Y-176567133D01*
X110783598Y-176581747D01*
X110801777Y-176598223D01*
X110818253Y-176616402D01*
X110832867Y-176636107D01*
X110845480Y-176657151D01*
X110855970Y-176679329D01*
X110864235Y-176702429D01*
X110870196Y-176726227D01*
X110873796Y-176750496D01*
X110875000Y-176775000D01*
X110875000Y-177700000D01*
X110873796Y-177724504D01*
X110870196Y-177748773D01*
X110864235Y-177772571D01*
X110855970Y-177795671D01*
X110845480Y-177817849D01*
X110832867Y-177838893D01*
X110818253Y-177858598D01*
X110801777Y-177876777D01*
X110783598Y-177893253D01*
X110763893Y-177907867D01*
X110742849Y-177920480D01*
X110720671Y-177930970D01*
X110697571Y-177939235D01*
X110673773Y-177945196D01*
X110649504Y-177948796D01*
X110625000Y-177950000D01*
X109375000Y-177950000D01*
X109350496Y-177948796D01*
X109326227Y-177945196D01*
X109302429Y-177939235D01*
X109279329Y-177930970D01*
X109257151Y-177920480D01*
X109236107Y-177907867D01*
X109216402Y-177893253D01*
X109198223Y-177876777D01*
X109181747Y-177858598D01*
X109167133Y-177838893D01*
X109154520Y-177817849D01*
X109144030Y-177795671D01*
X109135765Y-177772571D01*
X109129804Y-177748773D01*
X109126204Y-177724504D01*
X109125000Y-177700000D01*
X109125000Y-176775000D01*
X109126204Y-176750496D01*
X109129804Y-176726227D01*
X109135765Y-176702429D01*
X109144030Y-176679329D01*
X109154520Y-176657151D01*
X109167133Y-176636107D01*
X109181747Y-176616402D01*
X109198223Y-176598223D01*
X109216402Y-176581747D01*
X109236107Y-176567133D01*
X109257151Y-176554520D01*
X109279329Y-176544030D01*
X109302429Y-176535765D01*
X109326227Y-176529804D01*
X109350496Y-176526204D01*
X109375000Y-176525000D01*
X110625000Y-176525000D01*
X110649504Y-176526204D01*
X110649504Y-176526204D01*
G37*
D11*
X110000000Y-177237500D03*
D10*
G36*
X81974504Y-209126204D02*
G01*
X81998773Y-209129804D01*
X82022571Y-209135765D01*
X82045671Y-209144030D01*
X82067849Y-209154520D01*
X82088893Y-209167133D01*
X82108598Y-209181747D01*
X82126777Y-209198223D01*
X82143253Y-209216402D01*
X82157867Y-209236107D01*
X82170480Y-209257151D01*
X82180970Y-209279329D01*
X82189235Y-209302429D01*
X82195196Y-209326227D01*
X82198796Y-209350496D01*
X82200000Y-209375000D01*
X82200000Y-210625000D01*
X82198796Y-210649504D01*
X82195196Y-210673773D01*
X82189235Y-210697571D01*
X82180970Y-210720671D01*
X82170480Y-210742849D01*
X82157867Y-210763893D01*
X82143253Y-210783598D01*
X82126777Y-210801777D01*
X82108598Y-210818253D01*
X82088893Y-210832867D01*
X82067849Y-210845480D01*
X82045671Y-210855970D01*
X82022571Y-210864235D01*
X81998773Y-210870196D01*
X81974504Y-210873796D01*
X81950000Y-210875000D01*
X81025000Y-210875000D01*
X81000496Y-210873796D01*
X80976227Y-210870196D01*
X80952429Y-210864235D01*
X80929329Y-210855970D01*
X80907151Y-210845480D01*
X80886107Y-210832867D01*
X80866402Y-210818253D01*
X80848223Y-210801777D01*
X80831747Y-210783598D01*
X80817133Y-210763893D01*
X80804520Y-210742849D01*
X80794030Y-210720671D01*
X80785765Y-210697571D01*
X80779804Y-210673773D01*
X80776204Y-210649504D01*
X80775000Y-210625000D01*
X80775000Y-209375000D01*
X80776204Y-209350496D01*
X80779804Y-209326227D01*
X80785765Y-209302429D01*
X80794030Y-209279329D01*
X80804520Y-209257151D01*
X80817133Y-209236107D01*
X80831747Y-209216402D01*
X80848223Y-209198223D01*
X80866402Y-209181747D01*
X80886107Y-209167133D01*
X80907151Y-209154520D01*
X80929329Y-209144030D01*
X80952429Y-209135765D01*
X80976227Y-209129804D01*
X81000496Y-209126204D01*
X81025000Y-209125000D01*
X81950000Y-209125000D01*
X81974504Y-209126204D01*
X81974504Y-209126204D01*
G37*
D11*
X81487500Y-210000000D03*
D10*
G36*
X78999504Y-209126204D02*
G01*
X79023773Y-209129804D01*
X79047571Y-209135765D01*
X79070671Y-209144030D01*
X79092849Y-209154520D01*
X79113893Y-209167133D01*
X79133598Y-209181747D01*
X79151777Y-209198223D01*
X79168253Y-209216402D01*
X79182867Y-209236107D01*
X79195480Y-209257151D01*
X79205970Y-209279329D01*
X79214235Y-209302429D01*
X79220196Y-209326227D01*
X79223796Y-209350496D01*
X79225000Y-209375000D01*
X79225000Y-210625000D01*
X79223796Y-210649504D01*
X79220196Y-210673773D01*
X79214235Y-210697571D01*
X79205970Y-210720671D01*
X79195480Y-210742849D01*
X79182867Y-210763893D01*
X79168253Y-210783598D01*
X79151777Y-210801777D01*
X79133598Y-210818253D01*
X79113893Y-210832867D01*
X79092849Y-210845480D01*
X79070671Y-210855970D01*
X79047571Y-210864235D01*
X79023773Y-210870196D01*
X78999504Y-210873796D01*
X78975000Y-210875000D01*
X78050000Y-210875000D01*
X78025496Y-210873796D01*
X78001227Y-210870196D01*
X77977429Y-210864235D01*
X77954329Y-210855970D01*
X77932151Y-210845480D01*
X77911107Y-210832867D01*
X77891402Y-210818253D01*
X77873223Y-210801777D01*
X77856747Y-210783598D01*
X77842133Y-210763893D01*
X77829520Y-210742849D01*
X77819030Y-210720671D01*
X77810765Y-210697571D01*
X77804804Y-210673773D01*
X77801204Y-210649504D01*
X77800000Y-210625000D01*
X77800000Y-209375000D01*
X77801204Y-209350496D01*
X77804804Y-209326227D01*
X77810765Y-209302429D01*
X77819030Y-209279329D01*
X77829520Y-209257151D01*
X77842133Y-209236107D01*
X77856747Y-209216402D01*
X77873223Y-209198223D01*
X77891402Y-209181747D01*
X77911107Y-209167133D01*
X77932151Y-209154520D01*
X77954329Y-209144030D01*
X77977429Y-209135765D01*
X78001227Y-209129804D01*
X78025496Y-209126204D01*
X78050000Y-209125000D01*
X78975000Y-209125000D01*
X78999504Y-209126204D01*
X78999504Y-209126204D01*
G37*
D11*
X78512500Y-210000000D03*
D10*
G36*
X96974504Y-209126204D02*
G01*
X96998773Y-209129804D01*
X97022571Y-209135765D01*
X97045671Y-209144030D01*
X97067849Y-209154520D01*
X97088893Y-209167133D01*
X97108598Y-209181747D01*
X97126777Y-209198223D01*
X97143253Y-209216402D01*
X97157867Y-209236107D01*
X97170480Y-209257151D01*
X97180970Y-209279329D01*
X97189235Y-209302429D01*
X97195196Y-209326227D01*
X97198796Y-209350496D01*
X97200000Y-209375000D01*
X97200000Y-210625000D01*
X97198796Y-210649504D01*
X97195196Y-210673773D01*
X97189235Y-210697571D01*
X97180970Y-210720671D01*
X97170480Y-210742849D01*
X97157867Y-210763893D01*
X97143253Y-210783598D01*
X97126777Y-210801777D01*
X97108598Y-210818253D01*
X97088893Y-210832867D01*
X97067849Y-210845480D01*
X97045671Y-210855970D01*
X97022571Y-210864235D01*
X96998773Y-210870196D01*
X96974504Y-210873796D01*
X96950000Y-210875000D01*
X96025000Y-210875000D01*
X96000496Y-210873796D01*
X95976227Y-210870196D01*
X95952429Y-210864235D01*
X95929329Y-210855970D01*
X95907151Y-210845480D01*
X95886107Y-210832867D01*
X95866402Y-210818253D01*
X95848223Y-210801777D01*
X95831747Y-210783598D01*
X95817133Y-210763893D01*
X95804520Y-210742849D01*
X95794030Y-210720671D01*
X95785765Y-210697571D01*
X95779804Y-210673773D01*
X95776204Y-210649504D01*
X95775000Y-210625000D01*
X95775000Y-209375000D01*
X95776204Y-209350496D01*
X95779804Y-209326227D01*
X95785765Y-209302429D01*
X95794030Y-209279329D01*
X95804520Y-209257151D01*
X95817133Y-209236107D01*
X95831747Y-209216402D01*
X95848223Y-209198223D01*
X95866402Y-209181747D01*
X95886107Y-209167133D01*
X95907151Y-209154520D01*
X95929329Y-209144030D01*
X95952429Y-209135765D01*
X95976227Y-209129804D01*
X96000496Y-209126204D01*
X96025000Y-209125000D01*
X96950000Y-209125000D01*
X96974504Y-209126204D01*
X96974504Y-209126204D01*
G37*
D11*
X96487500Y-210000000D03*
D10*
G36*
X93999504Y-209126204D02*
G01*
X94023773Y-209129804D01*
X94047571Y-209135765D01*
X94070671Y-209144030D01*
X94092849Y-209154520D01*
X94113893Y-209167133D01*
X94133598Y-209181747D01*
X94151777Y-209198223D01*
X94168253Y-209216402D01*
X94182867Y-209236107D01*
X94195480Y-209257151D01*
X94205970Y-209279329D01*
X94214235Y-209302429D01*
X94220196Y-209326227D01*
X94223796Y-209350496D01*
X94225000Y-209375000D01*
X94225000Y-210625000D01*
X94223796Y-210649504D01*
X94220196Y-210673773D01*
X94214235Y-210697571D01*
X94205970Y-210720671D01*
X94195480Y-210742849D01*
X94182867Y-210763893D01*
X94168253Y-210783598D01*
X94151777Y-210801777D01*
X94133598Y-210818253D01*
X94113893Y-210832867D01*
X94092849Y-210845480D01*
X94070671Y-210855970D01*
X94047571Y-210864235D01*
X94023773Y-210870196D01*
X93999504Y-210873796D01*
X93975000Y-210875000D01*
X93050000Y-210875000D01*
X93025496Y-210873796D01*
X93001227Y-210870196D01*
X92977429Y-210864235D01*
X92954329Y-210855970D01*
X92932151Y-210845480D01*
X92911107Y-210832867D01*
X92891402Y-210818253D01*
X92873223Y-210801777D01*
X92856747Y-210783598D01*
X92842133Y-210763893D01*
X92829520Y-210742849D01*
X92819030Y-210720671D01*
X92810765Y-210697571D01*
X92804804Y-210673773D01*
X92801204Y-210649504D01*
X92800000Y-210625000D01*
X92800000Y-209375000D01*
X92801204Y-209350496D01*
X92804804Y-209326227D01*
X92810765Y-209302429D01*
X92819030Y-209279329D01*
X92829520Y-209257151D01*
X92842133Y-209236107D01*
X92856747Y-209216402D01*
X92873223Y-209198223D01*
X92891402Y-209181747D01*
X92911107Y-209167133D01*
X92932151Y-209154520D01*
X92954329Y-209144030D01*
X92977429Y-209135765D01*
X93001227Y-209129804D01*
X93025496Y-209126204D01*
X93050000Y-209125000D01*
X93975000Y-209125000D01*
X93999504Y-209126204D01*
X93999504Y-209126204D01*
G37*
D11*
X93512500Y-210000000D03*
D10*
G36*
X111974504Y-209126204D02*
G01*
X111998773Y-209129804D01*
X112022571Y-209135765D01*
X112045671Y-209144030D01*
X112067849Y-209154520D01*
X112088893Y-209167133D01*
X112108598Y-209181747D01*
X112126777Y-209198223D01*
X112143253Y-209216402D01*
X112157867Y-209236107D01*
X112170480Y-209257151D01*
X112180970Y-209279329D01*
X112189235Y-209302429D01*
X112195196Y-209326227D01*
X112198796Y-209350496D01*
X112200000Y-209375000D01*
X112200000Y-210625000D01*
X112198796Y-210649504D01*
X112195196Y-210673773D01*
X112189235Y-210697571D01*
X112180970Y-210720671D01*
X112170480Y-210742849D01*
X112157867Y-210763893D01*
X112143253Y-210783598D01*
X112126777Y-210801777D01*
X112108598Y-210818253D01*
X112088893Y-210832867D01*
X112067849Y-210845480D01*
X112045671Y-210855970D01*
X112022571Y-210864235D01*
X111998773Y-210870196D01*
X111974504Y-210873796D01*
X111950000Y-210875000D01*
X111025000Y-210875000D01*
X111000496Y-210873796D01*
X110976227Y-210870196D01*
X110952429Y-210864235D01*
X110929329Y-210855970D01*
X110907151Y-210845480D01*
X110886107Y-210832867D01*
X110866402Y-210818253D01*
X110848223Y-210801777D01*
X110831747Y-210783598D01*
X110817133Y-210763893D01*
X110804520Y-210742849D01*
X110794030Y-210720671D01*
X110785765Y-210697571D01*
X110779804Y-210673773D01*
X110776204Y-210649504D01*
X110775000Y-210625000D01*
X110775000Y-209375000D01*
X110776204Y-209350496D01*
X110779804Y-209326227D01*
X110785765Y-209302429D01*
X110794030Y-209279329D01*
X110804520Y-209257151D01*
X110817133Y-209236107D01*
X110831747Y-209216402D01*
X110848223Y-209198223D01*
X110866402Y-209181747D01*
X110886107Y-209167133D01*
X110907151Y-209154520D01*
X110929329Y-209144030D01*
X110952429Y-209135765D01*
X110976227Y-209129804D01*
X111000496Y-209126204D01*
X111025000Y-209125000D01*
X111950000Y-209125000D01*
X111974504Y-209126204D01*
X111974504Y-209126204D01*
G37*
D11*
X111487500Y-210000000D03*
D10*
G36*
X108999504Y-209126204D02*
G01*
X109023773Y-209129804D01*
X109047571Y-209135765D01*
X109070671Y-209144030D01*
X109092849Y-209154520D01*
X109113893Y-209167133D01*
X109133598Y-209181747D01*
X109151777Y-209198223D01*
X109168253Y-209216402D01*
X109182867Y-209236107D01*
X109195480Y-209257151D01*
X109205970Y-209279329D01*
X109214235Y-209302429D01*
X109220196Y-209326227D01*
X109223796Y-209350496D01*
X109225000Y-209375000D01*
X109225000Y-210625000D01*
X109223796Y-210649504D01*
X109220196Y-210673773D01*
X109214235Y-210697571D01*
X109205970Y-210720671D01*
X109195480Y-210742849D01*
X109182867Y-210763893D01*
X109168253Y-210783598D01*
X109151777Y-210801777D01*
X109133598Y-210818253D01*
X109113893Y-210832867D01*
X109092849Y-210845480D01*
X109070671Y-210855970D01*
X109047571Y-210864235D01*
X109023773Y-210870196D01*
X108999504Y-210873796D01*
X108975000Y-210875000D01*
X108050000Y-210875000D01*
X108025496Y-210873796D01*
X108001227Y-210870196D01*
X107977429Y-210864235D01*
X107954329Y-210855970D01*
X107932151Y-210845480D01*
X107911107Y-210832867D01*
X107891402Y-210818253D01*
X107873223Y-210801777D01*
X107856747Y-210783598D01*
X107842133Y-210763893D01*
X107829520Y-210742849D01*
X107819030Y-210720671D01*
X107810765Y-210697571D01*
X107804804Y-210673773D01*
X107801204Y-210649504D01*
X107800000Y-210625000D01*
X107800000Y-209375000D01*
X107801204Y-209350496D01*
X107804804Y-209326227D01*
X107810765Y-209302429D01*
X107819030Y-209279329D01*
X107829520Y-209257151D01*
X107842133Y-209236107D01*
X107856747Y-209216402D01*
X107873223Y-209198223D01*
X107891402Y-209181747D01*
X107911107Y-209167133D01*
X107932151Y-209154520D01*
X107954329Y-209144030D01*
X107977429Y-209135765D01*
X108001227Y-209129804D01*
X108025496Y-209126204D01*
X108050000Y-209125000D01*
X108975000Y-209125000D01*
X108999504Y-209126204D01*
X108999504Y-209126204D01*
G37*
D11*
X108512500Y-210000000D03*
D10*
G36*
X123999504Y-209126204D02*
G01*
X124023773Y-209129804D01*
X124047571Y-209135765D01*
X124070671Y-209144030D01*
X124092849Y-209154520D01*
X124113893Y-209167133D01*
X124133598Y-209181747D01*
X124151777Y-209198223D01*
X124168253Y-209216402D01*
X124182867Y-209236107D01*
X124195480Y-209257151D01*
X124205970Y-209279329D01*
X124214235Y-209302429D01*
X124220196Y-209326227D01*
X124223796Y-209350496D01*
X124225000Y-209375000D01*
X124225000Y-210625000D01*
X124223796Y-210649504D01*
X124220196Y-210673773D01*
X124214235Y-210697571D01*
X124205970Y-210720671D01*
X124195480Y-210742849D01*
X124182867Y-210763893D01*
X124168253Y-210783598D01*
X124151777Y-210801777D01*
X124133598Y-210818253D01*
X124113893Y-210832867D01*
X124092849Y-210845480D01*
X124070671Y-210855970D01*
X124047571Y-210864235D01*
X124023773Y-210870196D01*
X123999504Y-210873796D01*
X123975000Y-210875000D01*
X123050000Y-210875000D01*
X123025496Y-210873796D01*
X123001227Y-210870196D01*
X122977429Y-210864235D01*
X122954329Y-210855970D01*
X122932151Y-210845480D01*
X122911107Y-210832867D01*
X122891402Y-210818253D01*
X122873223Y-210801777D01*
X122856747Y-210783598D01*
X122842133Y-210763893D01*
X122829520Y-210742849D01*
X122819030Y-210720671D01*
X122810765Y-210697571D01*
X122804804Y-210673773D01*
X122801204Y-210649504D01*
X122800000Y-210625000D01*
X122800000Y-209375000D01*
X122801204Y-209350496D01*
X122804804Y-209326227D01*
X122810765Y-209302429D01*
X122819030Y-209279329D01*
X122829520Y-209257151D01*
X122842133Y-209236107D01*
X122856747Y-209216402D01*
X122873223Y-209198223D01*
X122891402Y-209181747D01*
X122911107Y-209167133D01*
X122932151Y-209154520D01*
X122954329Y-209144030D01*
X122977429Y-209135765D01*
X123001227Y-209129804D01*
X123025496Y-209126204D01*
X123050000Y-209125000D01*
X123975000Y-209125000D01*
X123999504Y-209126204D01*
X123999504Y-209126204D01*
G37*
D11*
X123512500Y-210000000D03*
D10*
G36*
X126974504Y-209126204D02*
G01*
X126998773Y-209129804D01*
X127022571Y-209135765D01*
X127045671Y-209144030D01*
X127067849Y-209154520D01*
X127088893Y-209167133D01*
X127108598Y-209181747D01*
X127126777Y-209198223D01*
X127143253Y-209216402D01*
X127157867Y-209236107D01*
X127170480Y-209257151D01*
X127180970Y-209279329D01*
X127189235Y-209302429D01*
X127195196Y-209326227D01*
X127198796Y-209350496D01*
X127200000Y-209375000D01*
X127200000Y-210625000D01*
X127198796Y-210649504D01*
X127195196Y-210673773D01*
X127189235Y-210697571D01*
X127180970Y-210720671D01*
X127170480Y-210742849D01*
X127157867Y-210763893D01*
X127143253Y-210783598D01*
X127126777Y-210801777D01*
X127108598Y-210818253D01*
X127088893Y-210832867D01*
X127067849Y-210845480D01*
X127045671Y-210855970D01*
X127022571Y-210864235D01*
X126998773Y-210870196D01*
X126974504Y-210873796D01*
X126950000Y-210875000D01*
X126025000Y-210875000D01*
X126000496Y-210873796D01*
X125976227Y-210870196D01*
X125952429Y-210864235D01*
X125929329Y-210855970D01*
X125907151Y-210845480D01*
X125886107Y-210832867D01*
X125866402Y-210818253D01*
X125848223Y-210801777D01*
X125831747Y-210783598D01*
X125817133Y-210763893D01*
X125804520Y-210742849D01*
X125794030Y-210720671D01*
X125785765Y-210697571D01*
X125779804Y-210673773D01*
X125776204Y-210649504D01*
X125775000Y-210625000D01*
X125775000Y-209375000D01*
X125776204Y-209350496D01*
X125779804Y-209326227D01*
X125785765Y-209302429D01*
X125794030Y-209279329D01*
X125804520Y-209257151D01*
X125817133Y-209236107D01*
X125831747Y-209216402D01*
X125848223Y-209198223D01*
X125866402Y-209181747D01*
X125886107Y-209167133D01*
X125907151Y-209154520D01*
X125929329Y-209144030D01*
X125952429Y-209135765D01*
X125976227Y-209129804D01*
X126000496Y-209126204D01*
X126025000Y-209125000D01*
X126950000Y-209125000D01*
X126974504Y-209126204D01*
X126974504Y-209126204D01*
G37*
D11*
X126487500Y-210000000D03*
M02*
