M48
; DRILL file {KiCad (5.1.2-1)-1} date Sunday, 06 February 2022 at 13:22:26
; FORMAT={-:-/ absolute / metric / decimal}
; #@! TF.CreationDate,2022-02-06T13:22:26-05:00
; #@! TF.GenerationSoftware,Kicad,Pcbnew,(5.1.2-1)-1
; #@! TF.FileFunction,Plated,1,2,PTH
FMAT,2
METRIC
T1C0.400
T2C0.800
T3C1.000
T4C1.016
T5C1.100
T6C3.300
%
G90
G05
T1
X31.0Y-109.0
X31.0Y-143.0
X34.0Y-109.0
X34.0Y-143.0
X41.0Y-92.0
X41.0Y-126.0
X41.0Y-160.0
X44.0Y-92.0
X44.0Y-126.0
X44.0Y-160.0
X51.0Y-75.0
X51.0Y-109.0
X51.0Y-143.0
X51.0Y-177.0
X54.0Y-75.0
X54.0Y-109.0
X54.0Y-143.0
X54.0Y-177.0
X55.0Y-192.75
X55.0Y-207.75
X61.0Y-92.0
X61.0Y-126.0
X61.0Y-160.0
X62.75Y-220.0
X64.0Y-92.0
X64.0Y-126.0
X64.0Y-160.0
X71.0Y-75.0
X71.0Y-109.0
X71.0Y-143.0
X74.0Y-75.0
X74.0Y-109.0
X74.0Y-143.0
X76.75Y-210.0
X77.75Y-220.0
X81.0Y-126.0
X83.25Y-210.0
X84.0Y-126.0
X85.75Y-190.0
X86.5Y-150.5
X86.5Y-152.0
X86.5Y-153.5
X86.5Y-155.0
X86.5Y-156.5
X86.5Y-158.0
X86.5Y-159.5
X86.5Y-161.0
X86.5Y-166.25
X86.5Y-167.75
X86.5Y-169.25
X86.5Y-170.75
X86.5Y-172.25
X86.5Y-173.75
X86.5Y-175.25
X86.5Y-176.75
X88.75Y-148.75
X88.75Y-164.5
X90.75Y-161.5
X90.75Y-177.25
X91.25Y-188.0
X91.25Y-190.0
X92.0Y-210.0
X92.75Y-220.0
X96.25Y-185.75
X96.5Y-151.25
X96.5Y-152.5
X96.5Y-154.0
X96.5Y-155.25
X96.5Y-167.0
X97.25Y-125.0
X97.25Y-187.75
X98.0Y-210.0
X101.75Y-186.25
X104.5Y-190.75
X107.0Y-210.0
X107.75Y-220.0
X108.35Y-190.5
X109.25Y-186.5
X109.25Y-189.0
X112.25Y-125.0
X112.5Y-192.75
X113.0Y-210.0
X117.0Y-184.75
X118.25Y-191.5
X120.75Y-186.75
X121.5Y-190.5
X122.275Y-151.5
X122.5Y-160.75
X122.5Y-169.75
X122.75Y-220.0
X123.0Y-179.0
X124.75Y-185.75
X126.0Y-183.5
X127.25Y-125.0
X128.0Y-210.0
X128.75Y-187.75
X129.75Y-183.5
X130.75Y-187.75
X135.0Y-137.25
X135.0Y-152.25
X135.0Y-167.25
X135.0Y-182.25
X135.0Y-197.25
X135.0Y-212.25
T3
X125.0Y-205.08
X125.0Y-213.38
X125.0Y-216.48
X68.0Y-70.08
X68.0Y-78.38
X68.0Y-81.48
X48.0Y-104.08
X48.0Y-112.38
X48.0Y-115.48
X78.0Y-121.08
X78.0Y-129.38
X78.0Y-132.48
X38.0Y-155.08
X38.0Y-163.38
X38.0Y-166.48
X95.0Y-205.08
X95.0Y-213.38
X95.0Y-216.48
X48.0Y-70.08
X48.0Y-78.38
X48.0Y-81.48
X28.0Y-104.08
X28.0Y-112.38
X28.0Y-115.48
X58.0Y-121.08
X58.0Y-129.38
X58.0Y-132.48
X68.0Y-138.08
X68.0Y-146.38
X68.0Y-149.48
X110.0Y-205.08
X110.0Y-213.38
X110.0Y-216.48
X58.0Y-87.08
X58.0Y-95.38
X58.0Y-98.48
X38.0Y-121.08
X38.0Y-129.38
X38.0Y-132.48
X48.0Y-138.08
X48.0Y-146.38
X48.0Y-149.48
X48.0Y-172.08
X48.0Y-180.38
X48.0Y-183.48
X80.0Y-205.08
X80.0Y-213.38
X80.0Y-216.48
X38.0Y-87.08
X38.0Y-95.38
X38.0Y-98.48
X68.0Y-104.08
X68.0Y-112.38
X68.0Y-115.48
X28.0Y-138.08
X28.0Y-146.38
X28.0Y-149.48
X58.0Y-155.08
X58.0Y-163.38
X58.0Y-166.48
T4
X102.33Y-175.93
X102.34Y-147.99
X102.34Y-150.53
X102.34Y-153.07
X102.34Y-155.61
X102.34Y-158.15
X102.34Y-160.69
X102.34Y-163.23
X102.34Y-165.77
X102.34Y-168.31
X102.34Y-170.85
X102.34Y-173.39
X102.34Y-178.47
X102.34Y-181.01
X104.88Y-147.99
X107.42Y-147.99
X109.96Y-147.99
X112.5Y-147.99
X115.04Y-147.99
X117.58Y-147.99
X117.58Y-150.53
X117.58Y-153.07
X117.58Y-155.61
X117.58Y-158.15
X117.58Y-160.69
X117.58Y-163.23
X117.58Y-165.77
X117.58Y-168.31
X117.58Y-170.85
X117.58Y-173.39
X117.58Y-175.93
X117.58Y-178.47
X117.58Y-181.01
T5
X65.0Y-207.0
X65.0Y-210.0
X65.0Y-213.0
T6
X24.0Y-129.0
X50.0Y-225.0
X34.0Y-78.0
X140.0Y-120.0
X72.0Y-89.0
X140.0Y-225.0
X42.5Y-190.0
X82.0Y-112.5
T2
G00X65.75Y-204.15
M15
G01X64.25Y-204.15
M16
G05
G00X65.75Y-215.85
M15
G01X64.25Y-215.85
M16
G05
T0
M30
